<?xml version="1.0" encoding="utf-8" standalone="no"?>
<!DOCTYPE svg PUBLIC "-//W3C//DTD SVG 1.1//EN"
  "http://www.w3.org/Graphics/SVG/1.1/DTD/svg11.dtd">
<!-- Created with matplotlib (http://matplotlib.org/) -->
<svg height="742pt" version="1.1" viewBox="0 0 936 742" width="936pt" xmlns="http://www.w3.org/2000/svg" xmlns:xlink="http://www.w3.org/1999/xlink">
 <defs>
  <style type="text/css">
*{stroke-linecap:butt;stroke-linejoin:round;}
  </style>
 </defs>
 <g id="figure_1">
  <g id="patch_1">
   <path d="M 0 742.734375 
L 936.7875 742.734375 
L 936.7875 0 
L 0 0 
z
" style="fill:#ffffff;"/>
  </g>
  <g id="axes_1">
   <g id="patch_2">
    <path d="M 33.2875 554.3 
L 926.0875 554.3 
L 926.0875 10.7 
L 33.2875 10.7 
z
" style="fill:#ffffff;"/>
   </g>
   <g id="patch_3">
    <path clip-path="url(#p788dd9779c)" d="M 41.554167 554.3 
L 58.0875 554.3 
L 58.0875 36.585714 
L 41.554167 36.585714 
z
" style="fill:#1f77b4;"/>
   </g>
   <g id="patch_4">
    <path clip-path="url(#p788dd9779c)" d="M 74.620833 554.3 
L 91.154167 554.3 
L 91.154167 41.379365 
L 74.620833 41.379365 
z
" style="fill:#1f77b4;"/>
   </g>
   <g id="patch_5">
    <path clip-path="url(#p788dd9779c)" d="M 107.6875 554.3 
L 124.220833 554.3 
L 124.220833 84.522222 
L 107.6875 84.522222 
z
" style="fill:#1f77b4;"/>
   </g>
   <g id="patch_6">
    <path clip-path="url(#p788dd9779c)" d="M 140.754167 554.3 
L 157.2875 554.3 
L 157.2875 213.950794 
L 140.754167 213.950794 
z
" style="fill:#1f77b4;"/>
   </g>
   <g id="patch_7">
    <path clip-path="url(#p788dd9779c)" d="M 173.820833 554.3 
L 190.354167 554.3 
L 190.354167 228.331746 
L 173.820833 228.331746 
z
" style="fill:#1f77b4;"/>
   </g>
   <g id="patch_8">
    <path clip-path="url(#p788dd9779c)" d="M 206.8875 554.3 
L 223.420833 554.3 
L 223.420833 266.680952 
L 206.8875 266.680952 
z
" style="fill:#1f77b4;"/>
   </g>
   <g id="patch_9">
    <path clip-path="url(#p788dd9779c)" d="M 239.954167 554.3 
L 256.4875 554.3 
L 256.4875 314.61746 
L 239.954167 314.61746 
z
" style="fill:#1f77b4;"/>
   </g>
   <g id="patch_10">
    <path clip-path="url(#p788dd9779c)" d="M 273.020833 554.3 
L 289.554167 554.3 
L 289.554167 352.966667 
L 273.020833 352.966667 
z
" style="fill:#1f77b4;"/>
   </g>
   <g id="patch_11">
    <path clip-path="url(#p788dd9779c)" d="M 306.0875 554.3 
L 322.620833 554.3 
L 322.620833 352.966667 
L 306.0875 352.966667 
z
" style="fill:#1f77b4;"/>
   </g>
   <g id="patch_12">
    <path clip-path="url(#p788dd9779c)" d="M 339.154167 554.3 
L 355.6875 554.3 
L 355.6875 391.315873 
L 339.154167 391.315873 
z
" style="fill:#1f77b4;"/>
   </g>
   <g id="patch_13">
    <path clip-path="url(#p788dd9779c)" d="M 372.220833 554.3 
L 388.754167 554.3 
L 388.754167 396.109524 
L 372.220833 396.109524 
z
" style="fill:#1f77b4;"/>
   </g>
   <g id="patch_14">
    <path clip-path="url(#p788dd9779c)" d="M 405.2875 554.3 
L 421.820833 554.3 
L 421.820833 405.696825 
L 405.2875 405.696825 
z
" style="fill:#1f77b4;"/>
   </g>
   <g id="patch_15">
    <path clip-path="url(#p788dd9779c)" d="M 438.354167 554.3 
L 454.8875 554.3 
L 454.8875 415.284127 
L 438.354167 415.284127 
z
" style="fill:#1f77b4;"/>
   </g>
   <g id="patch_16">
    <path clip-path="url(#p788dd9779c)" d="M 471.420833 554.3 
L 487.954167 554.3 
L 487.954167 420.077778 
L 471.420833 420.077778 
z
" style="fill:#1f77b4;"/>
   </g>
   <g id="patch_17">
    <path clip-path="url(#p788dd9779c)" d="M 504.4875 554.3 
L 521.020833 554.3 
L 521.020833 429.665079 
L 504.4875 429.665079 
z
" style="fill:#1f77b4;"/>
   </g>
   <g id="patch_18">
    <path clip-path="url(#p788dd9779c)" d="M 537.554167 554.3 
L 554.0875 554.3 
L 554.0875 444.046032 
L 537.554167 444.046032 
z
" style="fill:#1f77b4;"/>
   </g>
   <g id="patch_19">
    <path clip-path="url(#p788dd9779c)" d="M 570.620833 554.3 
L 587.154167 554.3 
L 587.154167 453.633333 
L 570.620833 453.633333 
z
" style="fill:#1f77b4;"/>
   </g>
   <g id="patch_20">
    <path clip-path="url(#p788dd9779c)" d="M 603.6875 554.3 
L 620.220833 554.3 
L 620.220833 468.014286 
L 603.6875 468.014286 
z
" style="fill:#1f77b4;"/>
   </g>
   <g id="patch_21">
    <path clip-path="url(#p788dd9779c)" d="M 636.754167 554.3 
L 653.2875 554.3 
L 653.2875 482.395238 
L 636.754167 482.395238 
z
" style="fill:#1f77b4;"/>
   </g>
   <g id="patch_22">
    <path clip-path="url(#p788dd9779c)" d="M 669.820833 554.3 
L 686.354167 554.3 
L 686.354167 491.98254 
L 669.820833 491.98254 
z
" style="fill:#1f77b4;"/>
   </g>
   <g id="patch_23">
    <path clip-path="url(#p788dd9779c)" d="M 702.8875 554.3 
L 719.420833 554.3 
L 719.420833 491.98254 
L 702.8875 491.98254 
z
" style="fill:#1f77b4;"/>
   </g>
   <g id="patch_24">
    <path clip-path="url(#p788dd9779c)" d="M 735.954167 554.3 
L 752.4875 554.3 
L 752.4875 501.569841 
L 735.954167 501.569841 
z
" style="fill:#1f77b4;"/>
   </g>
   <g id="patch_25">
    <path clip-path="url(#p788dd9779c)" d="M 769.020833 554.3 
L 785.554167 554.3 
L 785.554167 515.950794 
L 769.020833 515.950794 
z
" style="fill:#1f77b4;"/>
   </g>
   <g id="patch_26">
    <path clip-path="url(#p788dd9779c)" d="M 802.0875 554.3 
L 818.620833 554.3 
L 818.620833 525.538095 
L 802.0875 525.538095 
z
" style="fill:#1f77b4;"/>
   </g>
   <g id="patch_27">
    <path clip-path="url(#p788dd9779c)" d="M 835.154167 554.3 
L 851.6875 554.3 
L 851.6875 525.538095 
L 835.154167 525.538095 
z
" style="fill:#1f77b4;"/>
   </g>
   <g id="patch_28">
    <path clip-path="url(#p788dd9779c)" d="M 868.220833 554.3 
L 884.754167 554.3 
L 884.754167 535.125397 
L 868.220833 535.125397 
z
" style="fill:#1f77b4;"/>
   </g>
   <g id="patch_29">
    <path clip-path="url(#p788dd9779c)" d="M 901.2875 554.3 
L 917.820833 554.3 
L 917.820833 554.3 
L 901.2875 554.3 
z
" style="fill:#1f77b4;"/>
   </g>
   <g id="matplotlib.axis_1">
    <g id="xtick_1">
     <g id="line2d_1">
      <defs>
       <path d="M 0 0 
L 0 3.5 
" id="m2d25e9993c" style="stroke:#000000;stroke-width:0.8;"/>
      </defs>
      <g>
       <use style="stroke:#000000;stroke-width:0.8;" x="49.820833" xlink:href="#m2d25e9993c" y="554.3"/>
      </g>
     </g>
     <g id="text_1">
      <!-- {develop, sustain, govern} -->
      <defs>
       <path d="M 51.125 -9.28125 
L 51.125 -16.3125 
L 48.09375 -16.3125 
Q 35.9375 -16.3125 31.8125 -12.6875 
Q 27.6875 -9.078125 27.6875 1.703125 
L 27.6875 13.375 
Q 27.6875 20.75 25.046875 23.578125 
Q 22.40625 26.421875 15.484375 26.421875 
L 12.5 26.421875 
L 12.5 33.40625 
L 15.484375 33.40625 
Q 22.46875 33.40625 25.078125 36.203125 
Q 27.6875 39.015625 27.6875 46.296875 
L 27.6875 58.015625 
Q 27.6875 68.796875 31.8125 72.390625 
Q 35.9375 75.984375 48.09375 75.984375 
L 51.125 75.984375 
L 51.125 69 
L 47.796875 69 
Q 40.921875 69 38.8125 66.84375 
Q 36.71875 64.703125 36.71875 57.8125 
L 36.71875 45.703125 
Q 36.71875 38.03125 34.5 34.5625 
Q 32.28125 31.109375 26.90625 29.890625 
Q 32.328125 28.5625 34.515625 25.09375 
Q 36.71875 21.625 36.71875 14.015625 
L 36.71875 1.90625 
Q 36.71875 -4.984375 38.8125 -7.125 
Q 40.921875 -9.28125 47.796875 -9.28125 
z
" id="DejaVuSans-7b"/>
       <path d="M 45.40625 46.390625 
L 45.40625 75.984375 
L 54.390625 75.984375 
L 54.390625 0 
L 45.40625 0 
L 45.40625 8.203125 
Q 42.578125 3.328125 38.25 0.953125 
Q 33.9375 -1.421875 27.875 -1.421875 
Q 17.96875 -1.421875 11.734375 6.484375 
Q 5.515625 14.40625 5.515625 27.296875 
Q 5.515625 40.1875 11.734375 48.09375 
Q 17.96875 56 27.875 56 
Q 33.9375 56 38.25 53.625 
Q 42.578125 51.265625 45.40625 46.390625 
M 14.796875 27.296875 
Q 14.796875 17.390625 18.875 11.75 
Q 22.953125 6.109375 30.078125 6.109375 
Q 37.203125 6.109375 41.296875 11.75 
Q 45.40625 17.390625 45.40625 27.296875 
Q 45.40625 37.203125 41.296875 42.84375 
Q 37.203125 48.484375 30.078125 48.484375 
Q 22.953125 48.484375 18.875 42.84375 
Q 14.796875 37.203125 14.796875 27.296875 
" id="DejaVuSans-64"/>
       <path d="M 56.203125 29.59375 
L 56.203125 25.203125 
L 14.890625 25.203125 
Q 15.484375 15.921875 20.484375 11.0625 
Q 25.484375 6.203125 34.421875 6.203125 
Q 39.59375 6.203125 44.453125 7.46875 
Q 49.3125 8.734375 54.109375 11.28125 
L 54.109375 2.78125 
Q 49.265625 0.734375 44.1875 -0.34375 
Q 39.109375 -1.421875 33.890625 -1.421875 
Q 20.796875 -1.421875 13.15625 6.1875 
Q 5.515625 13.8125 5.515625 26.8125 
Q 5.515625 40.234375 12.765625 48.109375 
Q 20.015625 56 32.328125 56 
Q 43.359375 56 49.78125 48.890625 
Q 56.203125 41.796875 56.203125 29.59375 
M 47.21875 32.234375 
Q 47.125 39.59375 43.09375 43.984375 
Q 39.0625 48.390625 32.421875 48.390625 
Q 24.90625 48.390625 20.390625 44.140625 
Q 15.875 39.890625 15.1875 32.171875 
z
" id="DejaVuSans-65"/>
       <path d="M 2.984375 54.6875 
L 12.5 54.6875 
L 29.59375 8.796875 
L 46.6875 54.6875 
L 56.203125 54.6875 
L 35.6875 0 
L 23.484375 0 
z
" id="DejaVuSans-76"/>
       <path d="M 9.421875 75.984375 
L 18.40625 75.984375 
L 18.40625 0 
L 9.421875 0 
z
" id="DejaVuSans-6c"/>
       <path d="M 30.609375 48.390625 
Q 23.390625 48.390625 19.1875 42.75 
Q 14.984375 37.109375 14.984375 27.296875 
Q 14.984375 17.484375 19.15625 11.84375 
Q 23.34375 6.203125 30.609375 6.203125 
Q 37.796875 6.203125 41.984375 11.859375 
Q 46.1875 17.53125 46.1875 27.296875 
Q 46.1875 37.015625 41.984375 42.703125 
Q 37.796875 48.390625 30.609375 48.390625 
M 30.609375 56 
Q 42.328125 56 49.015625 48.375 
Q 55.71875 40.765625 55.71875 27.296875 
Q 55.71875 13.875 49.015625 6.21875 
Q 42.328125 -1.421875 30.609375 -1.421875 
Q 18.84375 -1.421875 12.171875 6.21875 
Q 5.515625 13.875 5.515625 27.296875 
Q 5.515625 40.765625 12.171875 48.375 
Q 18.84375 56 30.609375 56 
" id="DejaVuSans-6f"/>
       <path d="M 18.109375 8.203125 
L 18.109375 -20.796875 
L 9.078125 -20.796875 
L 9.078125 54.6875 
L 18.109375 54.6875 
L 18.109375 46.390625 
Q 20.953125 51.265625 25.265625 53.625 
Q 29.59375 56 35.59375 56 
Q 45.5625 56 51.78125 48.09375 
Q 58.015625 40.1875 58.015625 27.296875 
Q 58.015625 14.40625 51.78125 6.484375 
Q 45.5625 -1.421875 35.59375 -1.421875 
Q 29.59375 -1.421875 25.265625 0.953125 
Q 20.953125 3.328125 18.109375 8.203125 
M 48.6875 27.296875 
Q 48.6875 37.203125 44.609375 42.84375 
Q 40.53125 48.484375 33.40625 48.484375 
Q 26.265625 48.484375 22.1875 42.84375 
Q 18.109375 37.203125 18.109375 27.296875 
Q 18.109375 17.390625 22.1875 11.75 
Q 26.265625 6.109375 33.40625 6.109375 
Q 40.53125 6.109375 44.609375 11.75 
Q 48.6875 17.390625 48.6875 27.296875 
" id="DejaVuSans-70"/>
       <path d="M 11.71875 12.40625 
L 22.015625 12.40625 
L 22.015625 4 
L 14.015625 -11.625 
L 7.71875 -11.625 
L 11.71875 4 
z
" id="DejaVuSans-2c"/>
       <path id="DejaVuSans-20"/>
       <path d="M 44.28125 53.078125 
L 44.28125 44.578125 
Q 40.484375 46.53125 36.375 47.5 
Q 32.28125 48.484375 27.875 48.484375 
Q 21.1875 48.484375 17.84375 46.4375 
Q 14.5 44.390625 14.5 40.28125 
Q 14.5 37.15625 16.890625 35.375 
Q 19.28125 33.59375 26.515625 31.984375 
L 29.59375 31.296875 
Q 39.15625 29.25 43.1875 25.515625 
Q 47.21875 21.78125 47.21875 15.09375 
Q 47.21875 7.46875 41.1875 3.015625 
Q 35.15625 -1.421875 24.609375 -1.421875 
Q 20.21875 -1.421875 15.453125 -0.5625 
Q 10.6875 0.296875 5.421875 2 
L 5.421875 11.28125 
Q 10.40625 8.6875 15.234375 7.390625 
Q 20.0625 6.109375 24.8125 6.109375 
Q 31.15625 6.109375 34.5625 8.28125 
Q 37.984375 10.453125 37.984375 14.40625 
Q 37.984375 18.0625 35.515625 20.015625 
Q 33.0625 21.96875 24.703125 23.78125 
L 21.578125 24.515625 
Q 13.234375 26.265625 9.515625 29.90625 
Q 5.8125 33.546875 5.8125 39.890625 
Q 5.8125 47.609375 11.28125 51.796875 
Q 16.75 56 26.8125 56 
Q 31.78125 56 36.171875 55.265625 
Q 40.578125 54.546875 44.28125 53.078125 
" id="DejaVuSans-73"/>
       <path d="M 8.5 21.578125 
L 8.5 54.6875 
L 17.484375 54.6875 
L 17.484375 21.921875 
Q 17.484375 14.15625 20.5 10.265625 
Q 23.53125 6.390625 29.59375 6.390625 
Q 36.859375 6.390625 41.078125 11.03125 
Q 45.3125 15.671875 45.3125 23.6875 
L 45.3125 54.6875 
L 54.296875 54.6875 
L 54.296875 0 
L 45.3125 0 
L 45.3125 8.40625 
Q 42.046875 3.421875 37.71875 1 
Q 33.40625 -1.421875 27.6875 -1.421875 
Q 18.265625 -1.421875 13.375 4.4375 
Q 8.5 10.296875 8.5 21.578125 
M 31.109375 56 
z
" id="DejaVuSans-75"/>
       <path d="M 18.3125 70.21875 
L 18.3125 54.6875 
L 36.8125 54.6875 
L 36.8125 47.703125 
L 18.3125 47.703125 
L 18.3125 18.015625 
Q 18.3125 11.328125 20.140625 9.421875 
Q 21.96875 7.515625 27.59375 7.515625 
L 36.8125 7.515625 
L 36.8125 0 
L 27.59375 0 
Q 17.1875 0 13.234375 3.875 
Q 9.28125 7.765625 9.28125 18.015625 
L 9.28125 47.703125 
L 2.6875 47.703125 
L 2.6875 54.6875 
L 9.28125 54.6875 
L 9.28125 70.21875 
z
" id="DejaVuSans-74"/>
       <path d="M 34.28125 27.484375 
Q 23.390625 27.484375 19.1875 25 
Q 14.984375 22.515625 14.984375 16.5 
Q 14.984375 11.71875 18.140625 8.90625 
Q 21.296875 6.109375 26.703125 6.109375 
Q 34.1875 6.109375 38.703125 11.40625 
Q 43.21875 16.703125 43.21875 25.484375 
L 43.21875 27.484375 
z
M 52.203125 31.203125 
L 52.203125 0 
L 43.21875 0 
L 43.21875 8.296875 
Q 40.140625 3.328125 35.546875 0.953125 
Q 30.953125 -1.421875 24.3125 -1.421875 
Q 15.921875 -1.421875 10.953125 3.296875 
Q 6 8.015625 6 15.921875 
Q 6 25.140625 12.171875 29.828125 
Q 18.359375 34.515625 30.609375 34.515625 
L 43.21875 34.515625 
L 43.21875 35.40625 
Q 43.21875 41.609375 39.140625 45 
Q 35.0625 48.390625 27.6875 48.390625 
Q 23 48.390625 18.546875 47.265625 
Q 14.109375 46.140625 10.015625 43.890625 
L 10.015625 52.203125 
Q 14.9375 54.109375 19.578125 55.046875 
Q 24.21875 56 28.609375 56 
Q 40.484375 56 46.34375 49.84375 
Q 52.203125 43.703125 52.203125 31.203125 
" id="DejaVuSans-61"/>
       <path d="M 9.421875 54.6875 
L 18.40625 54.6875 
L 18.40625 0 
L 9.421875 0 
z
M 9.421875 75.984375 
L 18.40625 75.984375 
L 18.40625 64.59375 
L 9.421875 64.59375 
z
" id="DejaVuSans-69"/>
       <path d="M 54.890625 33.015625 
L 54.890625 0 
L 45.90625 0 
L 45.90625 32.71875 
Q 45.90625 40.484375 42.875 44.328125 
Q 39.84375 48.1875 33.796875 48.1875 
Q 26.515625 48.1875 22.3125 43.546875 
Q 18.109375 38.921875 18.109375 30.90625 
L 18.109375 0 
L 9.078125 0 
L 9.078125 54.6875 
L 18.109375 54.6875 
L 18.109375 46.1875 
Q 21.34375 51.125 25.703125 53.5625 
Q 30.078125 56 35.796875 56 
Q 45.21875 56 50.046875 50.171875 
Q 54.890625 44.34375 54.890625 33.015625 
" id="DejaVuSans-6e"/>
       <path d="M 45.40625 27.984375 
Q 45.40625 37.75 41.375 43.109375 
Q 37.359375 48.484375 30.078125 48.484375 
Q 22.859375 48.484375 18.828125 43.109375 
Q 14.796875 37.75 14.796875 27.984375 
Q 14.796875 18.265625 18.828125 12.890625 
Q 22.859375 7.515625 30.078125 7.515625 
Q 37.359375 7.515625 41.375 12.890625 
Q 45.40625 18.265625 45.40625 27.984375 
M 54.390625 6.78125 
Q 54.390625 -7.171875 48.1875 -13.984375 
Q 42 -20.796875 29.203125 -20.796875 
Q 24.46875 -20.796875 20.265625 -20.09375 
Q 16.0625 -19.390625 12.109375 -17.921875 
L 12.109375 -9.1875 
Q 16.0625 -11.328125 19.921875 -12.34375 
Q 23.78125 -13.375 27.78125 -13.375 
Q 36.625 -13.375 41.015625 -8.765625 
Q 45.40625 -4.15625 45.40625 5.171875 
L 45.40625 9.625 
Q 42.625 4.78125 38.28125 2.390625 
Q 33.9375 0 27.875 0 
Q 17.828125 0 11.671875 7.65625 
Q 5.515625 15.328125 5.515625 27.984375 
Q 5.515625 40.671875 11.671875 48.328125 
Q 17.828125 56 27.875 56 
Q 33.9375 56 38.28125 53.609375 
Q 42.625 51.21875 45.40625 46.390625 
L 45.40625 54.6875 
L 54.390625 54.6875 
z
" id="DejaVuSans-67"/>
       <path d="M 41.109375 46.296875 
Q 39.59375 47.171875 37.8125 47.578125 
Q 36.03125 48 33.890625 48 
Q 26.265625 48 22.1875 43.046875 
Q 18.109375 38.09375 18.109375 28.8125 
L 18.109375 0 
L 9.078125 0 
L 9.078125 54.6875 
L 18.109375 54.6875 
L 18.109375 46.1875 
Q 20.953125 51.171875 25.484375 53.578125 
Q 30.03125 56 36.53125 56 
Q 37.453125 56 38.578125 55.875 
Q 39.703125 55.765625 41.0625 55.515625 
z
" id="DejaVuSans-72"/>
       <path d="M 12.5 -9.28125 
L 15.921875 -9.28125 
Q 22.75 -9.28125 24.828125 -7.171875 
Q 26.90625 -5.078125 26.90625 1.90625 
L 26.90625 14.015625 
Q 26.90625 21.625 29.09375 25.09375 
Q 31.296875 28.5625 36.71875 29.890625 
Q 31.296875 31.109375 29.09375 34.5625 
Q 26.90625 38.03125 26.90625 45.703125 
L 26.90625 57.8125 
Q 26.90625 64.75 24.828125 66.875 
Q 22.75 69 15.921875 69 
L 12.5 69 
L 12.5 75.984375 
L 15.578125 75.984375 
Q 27.734375 75.984375 31.8125 72.390625 
Q 35.890625 68.796875 35.890625 58.015625 
L 35.890625 46.296875 
Q 35.890625 39.015625 38.515625 36.203125 
Q 41.15625 33.40625 48.09375 33.40625 
L 51.125 33.40625 
L 51.125 26.421875 
L 48.09375 26.421875 
Q 41.15625 26.421875 38.515625 23.578125 
Q 35.890625 20.75 35.890625 13.375 
L 35.890625 1.703125 
Q 35.890625 -9.078125 31.8125 -12.6875 
Q 27.734375 -16.3125 15.578125 -16.3125 
L 12.5 -16.3125 
z
" id="DejaVuSans-7d"/>
      </defs>
      <g transform="translate(52.580208 697.4625)rotate(-90)scale(0.1 -0.1)">
       <use xlink:href="#DejaVuSans-7b"/>
       <use x="63.623047" xlink:href="#DejaVuSans-64"/>
       <use x="127.099609" xlink:href="#DejaVuSans-65"/>
       <use x="188.623047" xlink:href="#DejaVuSans-76"/>
       <use x="247.802734" xlink:href="#DejaVuSans-65"/>
       <use x="309.326172" xlink:href="#DejaVuSans-6c"/>
       <use x="337.109375" xlink:href="#DejaVuSans-6f"/>
       <use x="398.291016" xlink:href="#DejaVuSans-70"/>
       <use x="461.767578" xlink:href="#DejaVuSans-2c"/>
       <use x="493.554688" xlink:href="#DejaVuSans-20"/>
       <use x="525.341797" xlink:href="#DejaVuSans-73"/>
       <use x="577.441406" xlink:href="#DejaVuSans-75"/>
       <use x="640.820312" xlink:href="#DejaVuSans-73"/>
       <use x="692.919922" xlink:href="#DejaVuSans-74"/>
       <use x="732.128906" xlink:href="#DejaVuSans-61"/>
       <use x="793.408203" xlink:href="#DejaVuSans-69"/>
       <use x="821.191406" xlink:href="#DejaVuSans-6e"/>
       <use x="884.570312" xlink:href="#DejaVuSans-2c"/>
       <use x="916.357422" xlink:href="#DejaVuSans-20"/>
       <use x="948.144531" xlink:href="#DejaVuSans-67"/>
       <use x="1011.621094" xlink:href="#DejaVuSans-6f"/>
       <use x="1072.802734" xlink:href="#DejaVuSans-76"/>
       <use x="1131.982422" xlink:href="#DejaVuSans-65"/>
       <use x="1193.505859" xlink:href="#DejaVuSans-72"/>
       <use x="1234.603516" xlink:href="#DejaVuSans-6e"/>
       <use x="1297.982422" xlink:href="#DejaVuSans-7d"/>
      </g>
     </g>
    </g>
    <g id="xtick_2">
     <g id="line2d_2">
      <g>
       <use style="stroke:#000000;stroke-width:0.8;" x="82.8875" xlink:href="#m2d25e9993c" y="554.3"/>
      </g>
     </g>
     <g id="text_2">
      <!-- {climat, chang, mitig} -->
      <defs>
       <path d="M 48.78125 52.59375 
L 48.78125 44.1875 
Q 44.96875 46.296875 41.140625 47.34375 
Q 37.3125 48.390625 33.40625 48.390625 
Q 24.65625 48.390625 19.8125 42.84375 
Q 14.984375 37.3125 14.984375 27.296875 
Q 14.984375 17.28125 19.8125 11.734375 
Q 24.65625 6.203125 33.40625 6.203125 
Q 37.3125 6.203125 41.140625 7.25 
Q 44.96875 8.296875 48.78125 10.40625 
L 48.78125 2.09375 
Q 45.015625 0.34375 40.984375 -0.53125 
Q 36.96875 -1.421875 32.421875 -1.421875 
Q 20.0625 -1.421875 12.78125 6.34375 
Q 5.515625 14.109375 5.515625 27.296875 
Q 5.515625 40.671875 12.859375 48.328125 
Q 20.21875 56 33.015625 56 
Q 37.15625 56 41.109375 55.140625 
Q 45.0625 54.296875 48.78125 52.59375 
" id="DejaVuSans-63"/>
       <path d="M 52 44.1875 
Q 55.375 50.25 60.0625 53.125 
Q 64.75 56 71.09375 56 
Q 79.640625 56 84.28125 50.015625 
Q 88.921875 44.046875 88.921875 33.015625 
L 88.921875 0 
L 79.890625 0 
L 79.890625 32.71875 
Q 79.890625 40.578125 77.09375 44.375 
Q 74.3125 48.1875 68.609375 48.1875 
Q 61.625 48.1875 57.5625 43.546875 
Q 53.515625 38.921875 53.515625 30.90625 
L 53.515625 0 
L 44.484375 0 
L 44.484375 32.71875 
Q 44.484375 40.625 41.703125 44.40625 
Q 38.921875 48.1875 33.109375 48.1875 
Q 26.21875 48.1875 22.15625 43.53125 
Q 18.109375 38.875 18.109375 30.90625 
L 18.109375 0 
L 9.078125 0 
L 9.078125 54.6875 
L 18.109375 54.6875 
L 18.109375 46.1875 
Q 21.1875 51.21875 25.484375 53.609375 
Q 29.78125 56 35.6875 56 
Q 41.65625 56 45.828125 52.96875 
Q 50 49.953125 52 44.1875 
" id="DejaVuSans-6d"/>
       <path d="M 54.890625 33.015625 
L 54.890625 0 
L 45.90625 0 
L 45.90625 32.71875 
Q 45.90625 40.484375 42.875 44.328125 
Q 39.84375 48.1875 33.796875 48.1875 
Q 26.515625 48.1875 22.3125 43.546875 
Q 18.109375 38.921875 18.109375 30.90625 
L 18.109375 0 
L 9.078125 0 
L 9.078125 75.984375 
L 18.109375 75.984375 
L 18.109375 46.1875 
Q 21.34375 51.125 25.703125 53.5625 
Q 30.078125 56 35.796875 56 
Q 45.21875 56 50.046875 50.171875 
Q 54.890625 44.34375 54.890625 33.015625 
" id="DejaVuSans-68"/>
      </defs>
      <g transform="translate(85.646875 673.796875)rotate(-90)scale(0.1 -0.1)">
       <use xlink:href="#DejaVuSans-7b"/>
       <use x="63.623047" xlink:href="#DejaVuSans-63"/>
       <use x="118.603516" xlink:href="#DejaVuSans-6c"/>
       <use x="146.386719" xlink:href="#DejaVuSans-69"/>
       <use x="174.169922" xlink:href="#DejaVuSans-6d"/>
       <use x="271.582031" xlink:href="#DejaVuSans-61"/>
       <use x="332.861328" xlink:href="#DejaVuSans-74"/>
       <use x="372.070312" xlink:href="#DejaVuSans-2c"/>
       <use x="403.857422" xlink:href="#DejaVuSans-20"/>
       <use x="435.644531" xlink:href="#DejaVuSans-63"/>
       <use x="490.625" xlink:href="#DejaVuSans-68"/>
       <use x="554.003906" xlink:href="#DejaVuSans-61"/>
       <use x="615.283203" xlink:href="#DejaVuSans-6e"/>
       <use x="678.662109" xlink:href="#DejaVuSans-67"/>
       <use x="742.138672" xlink:href="#DejaVuSans-2c"/>
       <use x="773.925781" xlink:href="#DejaVuSans-20"/>
       <use x="805.712891" xlink:href="#DejaVuSans-6d"/>
       <use x="903.125" xlink:href="#DejaVuSans-69"/>
       <use x="930.908203" xlink:href="#DejaVuSans-74"/>
       <use x="970.117188" xlink:href="#DejaVuSans-69"/>
       <use x="997.900391" xlink:href="#DejaVuSans-67"/>
       <use x="1061.376953" xlink:href="#DejaVuSans-7d"/>
      </g>
     </g>
    </g>
    <g id="xtick_3">
     <g id="line2d_3">
      <g>
       <use style="stroke:#000000;stroke-width:0.8;" x="115.954167" xlink:href="#m2d25e9993c" y="554.3"/>
      </g>
     </g>
     <g id="text_3">
      <!-- {emiss, carbon, ghg} -->
      <defs>
       <path d="M 48.6875 27.296875 
Q 48.6875 37.203125 44.609375 42.84375 
Q 40.53125 48.484375 33.40625 48.484375 
Q 26.265625 48.484375 22.1875 42.84375 
Q 18.109375 37.203125 18.109375 27.296875 
Q 18.109375 17.390625 22.1875 11.75 
Q 26.265625 6.109375 33.40625 6.109375 
Q 40.53125 6.109375 44.609375 11.75 
Q 48.6875 17.390625 48.6875 27.296875 
M 18.109375 46.390625 
Q 20.953125 51.265625 25.265625 53.625 
Q 29.59375 56 35.59375 56 
Q 45.5625 56 51.78125 48.09375 
Q 58.015625 40.1875 58.015625 27.296875 
Q 58.015625 14.40625 51.78125 6.484375 
Q 45.5625 -1.421875 35.59375 -1.421875 
Q 29.59375 -1.421875 25.265625 0.953125 
Q 20.953125 3.328125 18.109375 8.203125 
L 18.109375 0 
L 9.078125 0 
L 9.078125 75.984375 
L 18.109375 75.984375 
z
" id="DejaVuSans-62"/>
      </defs>
      <g transform="translate(118.713542 669.404688)rotate(-90)scale(0.1 -0.1)">
       <use xlink:href="#DejaVuSans-7b"/>
       <use x="63.623047" xlink:href="#DejaVuSans-65"/>
       <use x="125.146484" xlink:href="#DejaVuSans-6d"/>
       <use x="222.558594" xlink:href="#DejaVuSans-69"/>
       <use x="250.341797" xlink:href="#DejaVuSans-73"/>
       <use x="302.441406" xlink:href="#DejaVuSans-73"/>
       <use x="354.541016" xlink:href="#DejaVuSans-2c"/>
       <use x="386.328125" xlink:href="#DejaVuSans-20"/>
       <use x="418.115234" xlink:href="#DejaVuSans-63"/>
       <use x="473.095703" xlink:href="#DejaVuSans-61"/>
       <use x="534.375" xlink:href="#DejaVuSans-72"/>
       <use x="575.488281" xlink:href="#DejaVuSans-62"/>
       <use x="638.964844" xlink:href="#DejaVuSans-6f"/>
       <use x="700.146484" xlink:href="#DejaVuSans-6e"/>
       <use x="763.525391" xlink:href="#DejaVuSans-2c"/>
       <use x="795.3125" xlink:href="#DejaVuSans-20"/>
       <use x="827.099609" xlink:href="#DejaVuSans-67"/>
       <use x="890.576172" xlink:href="#DejaVuSans-68"/>
       <use x="953.955078" xlink:href="#DejaVuSans-67"/>
       <use x="1017.431641" xlink:href="#DejaVuSans-7d"/>
      </g>
     </g>
    </g>
    <g id="xtick_4">
     <g id="line2d_4">
      <g>
       <use style="stroke:#000000;stroke-width:0.8;" x="149.020833" xlink:href="#m2d25e9993c" y="554.3"/>
      </g>
     </g>
     <g id="text_4">
      <!-- {urban, citi, land} -->
      <g transform="translate(151.780208 652.567188)rotate(-90)scale(0.1 -0.1)">
       <use xlink:href="#DejaVuSans-7b"/>
       <use x="63.623047" xlink:href="#DejaVuSans-75"/>
       <use x="127.001953" xlink:href="#DejaVuSans-72"/>
       <use x="168.115234" xlink:href="#DejaVuSans-62"/>
       <use x="231.591797" xlink:href="#DejaVuSans-61"/>
       <use x="292.871094" xlink:href="#DejaVuSans-6e"/>
       <use x="356.25" xlink:href="#DejaVuSans-2c"/>
       <use x="388.037109" xlink:href="#DejaVuSans-20"/>
       <use x="419.824219" xlink:href="#DejaVuSans-63"/>
       <use x="474.804688" xlink:href="#DejaVuSans-69"/>
       <use x="502.587891" xlink:href="#DejaVuSans-74"/>
       <use x="541.796875" xlink:href="#DejaVuSans-69"/>
       <use x="569.580078" xlink:href="#DejaVuSans-2c"/>
       <use x="601.367188" xlink:href="#DejaVuSans-20"/>
       <use x="633.154297" xlink:href="#DejaVuSans-6c"/>
       <use x="660.9375" xlink:href="#DejaVuSans-61"/>
       <use x="722.216797" xlink:href="#DejaVuSans-6e"/>
       <use x="785.595703" xlink:href="#DejaVuSans-64"/>
       <use x="849.072266" xlink:href="#DejaVuSans-7d"/>
      </g>
     </g>
    </g>
    <g id="xtick_5">
     <g id="line2d_5">
      <g>
       <use style="stroke:#000000;stroke-width:0.8;" x="182.0875" xlink:href="#m2d25e9993c" y="554.3"/>
      </g>
     </g>
     <g id="text_5">
      <!-- {energi, effici, consumpt} -->
      <defs>
       <path d="M 37.109375 75.984375 
L 37.109375 68.5 
L 28.515625 68.5 
Q 23.6875 68.5 21.796875 66.546875 
Q 19.921875 64.59375 19.921875 59.515625 
L 19.921875 54.6875 
L 34.71875 54.6875 
L 34.71875 47.703125 
L 19.921875 47.703125 
L 19.921875 0 
L 10.890625 0 
L 10.890625 47.703125 
L 2.296875 47.703125 
L 2.296875 54.6875 
L 10.890625 54.6875 
L 10.890625 58.5 
Q 10.890625 67.625 15.140625 71.796875 
Q 19.390625 75.984375 28.609375 75.984375 
z
" id="DejaVuSans-66"/>
      </defs>
      <g transform="translate(184.846875 692.376562)rotate(-90)scale(0.1 -0.1)">
       <use xlink:href="#DejaVuSans-7b"/>
       <use x="63.623047" xlink:href="#DejaVuSans-65"/>
       <use x="125.146484" xlink:href="#DejaVuSans-6e"/>
       <use x="188.525391" xlink:href="#DejaVuSans-65"/>
       <use x="250.048828" xlink:href="#DejaVuSans-72"/>
       <use x="291.146484" xlink:href="#DejaVuSans-67"/>
       <use x="354.623047" xlink:href="#DejaVuSans-69"/>
       <use x="382.40625" xlink:href="#DejaVuSans-2c"/>
       <use x="414.193359" xlink:href="#DejaVuSans-20"/>
       <use x="445.980469" xlink:href="#DejaVuSans-65"/>
       <use x="507.503906" xlink:href="#DejaVuSans-66"/>
       <use x="542.708984" xlink:href="#DejaVuSans-66"/>
       <use x="577.914062" xlink:href="#DejaVuSans-69"/>
       <use x="605.697266" xlink:href="#DejaVuSans-63"/>
       <use x="660.677734" xlink:href="#DejaVuSans-69"/>
       <use x="688.460938" xlink:href="#DejaVuSans-2c"/>
       <use x="720.248047" xlink:href="#DejaVuSans-20"/>
       <use x="752.035156" xlink:href="#DejaVuSans-63"/>
       <use x="807.015625" xlink:href="#DejaVuSans-6f"/>
       <use x="868.197266" xlink:href="#DejaVuSans-6e"/>
       <use x="931.576172" xlink:href="#DejaVuSans-73"/>
       <use x="983.675781" xlink:href="#DejaVuSans-75"/>
       <use x="1047.054688" xlink:href="#DejaVuSans-6d"/>
       <use x="1144.466797" xlink:href="#DejaVuSans-70"/>
       <use x="1207.943359" xlink:href="#DejaVuSans-74"/>
       <use x="1247.152344" xlink:href="#DejaVuSans-7d"/>
      </g>
     </g>
    </g>
    <g id="xtick_6">
     <g id="line2d_6">
      <g>
       <use style="stroke:#000000;stroke-width:0.8;" x="215.154167" xlink:href="#m2d25e9993c" y="554.3"/>
      </g>
     </g>
     <g id="text_6">
      <!-- {activ, health, household} -->
      <g transform="translate(217.913542 694.375)rotate(-90)scale(0.1 -0.1)">
       <use xlink:href="#DejaVuSans-7b"/>
       <use x="63.623047" xlink:href="#DejaVuSans-61"/>
       <use x="124.902344" xlink:href="#DejaVuSans-63"/>
       <use x="179.882812" xlink:href="#DejaVuSans-74"/>
       <use x="219.091797" xlink:href="#DejaVuSans-69"/>
       <use x="246.875" xlink:href="#DejaVuSans-76"/>
       <use x="306.054688" xlink:href="#DejaVuSans-2c"/>
       <use x="337.841797" xlink:href="#DejaVuSans-20"/>
       <use x="369.628906" xlink:href="#DejaVuSans-68"/>
       <use x="433.007812" xlink:href="#DejaVuSans-65"/>
       <use x="494.53125" xlink:href="#DejaVuSans-61"/>
       <use x="555.810547" xlink:href="#DejaVuSans-6c"/>
       <use x="583.59375" xlink:href="#DejaVuSans-74"/>
       <use x="622.802734" xlink:href="#DejaVuSans-68"/>
       <use x="686.181641" xlink:href="#DejaVuSans-2c"/>
       <use x="717.96875" xlink:href="#DejaVuSans-20"/>
       <use x="749.755859" xlink:href="#DejaVuSans-68"/>
       <use x="813.134766" xlink:href="#DejaVuSans-6f"/>
       <use x="874.316406" xlink:href="#DejaVuSans-75"/>
       <use x="937.695312" xlink:href="#DejaVuSans-73"/>
       <use x="989.794922" xlink:href="#DejaVuSans-65"/>
       <use x="1051.318359" xlink:href="#DejaVuSans-68"/>
       <use x="1114.697266" xlink:href="#DejaVuSans-6f"/>
       <use x="1175.878906" xlink:href="#DejaVuSans-6c"/>
       <use x="1203.662109" xlink:href="#DejaVuSans-64"/>
       <use x="1267.138672" xlink:href="#DejaVuSans-7d"/>
      </g>
     </g>
    </g>
    <g id="xtick_7">
     <g id="line2d_7">
      <g>
       <use style="stroke:#000000;stroke-width:0.8;" x="248.220833" xlink:href="#m2d25e9993c" y="554.3"/>
      </g>
     </g>
     <g id="text_7">
      <!-- {transport, public, car} -->
      <g transform="translate(250.980208 678.76875)rotate(-90)scale(0.1 -0.1)">
       <use xlink:href="#DejaVuSans-7b"/>
       <use x="63.623047" xlink:href="#DejaVuSans-74"/>
       <use x="102.832031" xlink:href="#DejaVuSans-72"/>
       <use x="143.945312" xlink:href="#DejaVuSans-61"/>
       <use x="205.224609" xlink:href="#DejaVuSans-6e"/>
       <use x="268.603516" xlink:href="#DejaVuSans-73"/>
       <use x="320.703125" xlink:href="#DejaVuSans-70"/>
       <use x="384.179688" xlink:href="#DejaVuSans-6f"/>
       <use x="445.361328" xlink:href="#DejaVuSans-72"/>
       <use x="486.474609" xlink:href="#DejaVuSans-74"/>
       <use x="525.683594" xlink:href="#DejaVuSans-2c"/>
       <use x="557.470703" xlink:href="#DejaVuSans-20"/>
       <use x="589.257812" xlink:href="#DejaVuSans-70"/>
       <use x="652.734375" xlink:href="#DejaVuSans-75"/>
       <use x="716.113281" xlink:href="#DejaVuSans-62"/>
       <use x="779.589844" xlink:href="#DejaVuSans-6c"/>
       <use x="807.373047" xlink:href="#DejaVuSans-69"/>
       <use x="835.15625" xlink:href="#DejaVuSans-63"/>
       <use x="890.136719" xlink:href="#DejaVuSans-2c"/>
       <use x="921.923828" xlink:href="#DejaVuSans-20"/>
       <use x="953.710938" xlink:href="#DejaVuSans-63"/>
       <use x="1008.691406" xlink:href="#DejaVuSans-61"/>
       <use x="1069.970703" xlink:href="#DejaVuSans-72"/>
       <use x="1111.083984" xlink:href="#DejaVuSans-7d"/>
      </g>
     </g>
    </g>
    <g id="xtick_8">
     <g id="line2d_8">
      <g>
       <use style="stroke:#000000;stroke-width:0.8;" x="281.2875" xlink:href="#m2d25e9993c" y="554.3"/>
      </g>
     </g>
     <g id="text_8">
      <!-- {air, pollut, ventil} -->
      <g transform="translate(284.046875 655.921875)rotate(-90)scale(0.1 -0.1)">
       <use xlink:href="#DejaVuSans-7b"/>
       <use x="63.623047" xlink:href="#DejaVuSans-61"/>
       <use x="124.902344" xlink:href="#DejaVuSans-69"/>
       <use x="152.685547" xlink:href="#DejaVuSans-72"/>
       <use x="193.798828" xlink:href="#DejaVuSans-2c"/>
       <use x="225.585938" xlink:href="#DejaVuSans-20"/>
       <use x="257.373047" xlink:href="#DejaVuSans-70"/>
       <use x="320.849609" xlink:href="#DejaVuSans-6f"/>
       <use x="382.03125" xlink:href="#DejaVuSans-6c"/>
       <use x="409.814453" xlink:href="#DejaVuSans-6c"/>
       <use x="437.597656" xlink:href="#DejaVuSans-75"/>
       <use x="500.976562" xlink:href="#DejaVuSans-74"/>
       <use x="540.185547" xlink:href="#DejaVuSans-2c"/>
       <use x="571.972656" xlink:href="#DejaVuSans-20"/>
       <use x="603.759766" xlink:href="#DejaVuSans-76"/>
       <use x="662.939453" xlink:href="#DejaVuSans-65"/>
       <use x="724.462891" xlink:href="#DejaVuSans-6e"/>
       <use x="787.841797" xlink:href="#DejaVuSans-74"/>
       <use x="827.050781" xlink:href="#DejaVuSans-69"/>
       <use x="854.833984" xlink:href="#DejaVuSans-6c"/>
       <use x="882.617188" xlink:href="#DejaVuSans-7d"/>
      </g>
     </g>
    </g>
    <g id="xtick_9">
     <g id="line2d_9">
      <g>
       <use style="stroke:#000000;stroke-width:0.8;" x="314.354167" xlink:href="#m2d25e9993c" y="554.3"/>
      </g>
     </g>
     <g id="text_9">
      <!-- {model, network, optim} -->
      <defs>
       <path d="M 4.203125 54.6875 
L 13.1875 54.6875 
L 24.421875 12.015625 
L 35.59375 54.6875 
L 46.1875 54.6875 
L 57.421875 12.015625 
L 68.609375 54.6875 
L 77.59375 54.6875 
L 63.28125 0 
L 52.6875 0 
L 40.921875 44.828125 
L 29.109375 0 
L 18.5 0 
z
" id="DejaVuSans-77"/>
       <path d="M 9.078125 75.984375 
L 18.109375 75.984375 
L 18.109375 31.109375 
L 44.921875 54.6875 
L 56.390625 54.6875 
L 27.390625 29.109375 
L 57.625 0 
L 45.90625 0 
L 18.109375 26.703125 
L 18.109375 0 
L 9.078125 0 
z
" id="DejaVuSans-6b"/>
      </defs>
      <g transform="translate(317.113542 687.392187)rotate(-90)scale(0.1 -0.1)">
       <use xlink:href="#DejaVuSans-7b"/>
       <use x="63.623047" xlink:href="#DejaVuSans-6d"/>
       <use x="161.035156" xlink:href="#DejaVuSans-6f"/>
       <use x="222.216797" xlink:href="#DejaVuSans-64"/>
       <use x="285.693359" xlink:href="#DejaVuSans-65"/>
       <use x="347.216797" xlink:href="#DejaVuSans-6c"/>
       <use x="375" xlink:href="#DejaVuSans-2c"/>
       <use x="406.787109" xlink:href="#DejaVuSans-20"/>
       <use x="438.574219" xlink:href="#DejaVuSans-6e"/>
       <use x="501.953125" xlink:href="#DejaVuSans-65"/>
       <use x="563.476562" xlink:href="#DejaVuSans-74"/>
       <use x="602.685547" xlink:href="#DejaVuSans-77"/>
       <use x="684.472656" xlink:href="#DejaVuSans-6f"/>
       <use x="745.654297" xlink:href="#DejaVuSans-72"/>
       <use x="786.767578" xlink:href="#DejaVuSans-6b"/>
       <use x="844.677734" xlink:href="#DejaVuSans-2c"/>
       <use x="876.464844" xlink:href="#DejaVuSans-20"/>
       <use x="908.251953" xlink:href="#DejaVuSans-6f"/>
       <use x="969.433594" xlink:href="#DejaVuSans-70"/>
       <use x="1032.910156" xlink:href="#DejaVuSans-74"/>
       <use x="1072.119141" xlink:href="#DejaVuSans-69"/>
       <use x="1099.902344" xlink:href="#DejaVuSans-6d"/>
       <use x="1197.314453" xlink:href="#DejaVuSans-7d"/>
      </g>
     </g>
    </g>
    <g id="xtick_10">
     <g id="line2d_10">
      <g>
       <use style="stroke:#000000;stroke-width:0.8;" x="347.420833" xlink:href="#m2d25e9993c" y="554.3"/>
      </g>
     </g>
     <g id="text_10">
      <!-- {system, oper, cost} -->
      <defs>
       <path d="M 32.171875 -5.078125 
Q 28.375 -14.84375 24.75 -17.8125 
Q 21.140625 -20.796875 15.09375 -20.796875 
L 7.90625 -20.796875 
L 7.90625 -13.28125 
L 13.1875 -13.28125 
Q 16.890625 -13.28125 18.9375 -11.515625 
Q 21 -9.765625 23.484375 -3.21875 
L 25.09375 0.875 
L 2.984375 54.6875 
L 12.5 54.6875 
L 29.59375 11.921875 
L 46.6875 54.6875 
L 56.203125 54.6875 
z
" id="DejaVuSans-79"/>
      </defs>
      <g transform="translate(350.180208 666.367188)rotate(-90)scale(0.1 -0.1)">
       <use xlink:href="#DejaVuSans-7b"/>
       <use x="63.623047" xlink:href="#DejaVuSans-73"/>
       <use x="115.722656" xlink:href="#DejaVuSans-79"/>
       <use x="174.902344" xlink:href="#DejaVuSans-73"/>
       <use x="227.001953" xlink:href="#DejaVuSans-74"/>
       <use x="266.210938" xlink:href="#DejaVuSans-65"/>
       <use x="327.734375" xlink:href="#DejaVuSans-6d"/>
       <use x="425.146484" xlink:href="#DejaVuSans-2c"/>
       <use x="456.933594" xlink:href="#DejaVuSans-20"/>
       <use x="488.720703" xlink:href="#DejaVuSans-6f"/>
       <use x="549.902344" xlink:href="#DejaVuSans-70"/>
       <use x="613.378906" xlink:href="#DejaVuSans-65"/>
       <use x="674.902344" xlink:href="#DejaVuSans-72"/>
       <use x="716.015625" xlink:href="#DejaVuSans-2c"/>
       <use x="747.802734" xlink:href="#DejaVuSans-20"/>
       <use x="779.589844" xlink:href="#DejaVuSans-63"/>
       <use x="834.570312" xlink:href="#DejaVuSans-6f"/>
       <use x="895.751953" xlink:href="#DejaVuSans-73"/>
       <use x="947.851562" xlink:href="#DejaVuSans-74"/>
       <use x="987.060547" xlink:href="#DejaVuSans-7d"/>
      </g>
     </g>
    </g>
    <g id="xtick_11">
     <g id="line2d_11">
      <g>
       <use style="stroke:#000000;stroke-width:0.8;" x="380.4875" xlink:href="#m2d25e9993c" y="554.3"/>
      </g>
     </g>
     <g id="text_11">
      <!-- {build, energi, perform} -->
      <g transform="translate(383.246875 683.309375)rotate(-90)scale(0.1 -0.1)">
       <use xlink:href="#DejaVuSans-7b"/>
       <use x="63.623047" xlink:href="#DejaVuSans-62"/>
       <use x="127.099609" xlink:href="#DejaVuSans-75"/>
       <use x="190.478516" xlink:href="#DejaVuSans-69"/>
       <use x="218.261719" xlink:href="#DejaVuSans-6c"/>
       <use x="246.044922" xlink:href="#DejaVuSans-64"/>
       <use x="309.521484" xlink:href="#DejaVuSans-2c"/>
       <use x="341.308594" xlink:href="#DejaVuSans-20"/>
       <use x="373.095703" xlink:href="#DejaVuSans-65"/>
       <use x="434.619141" xlink:href="#DejaVuSans-6e"/>
       <use x="497.998047" xlink:href="#DejaVuSans-65"/>
       <use x="559.521484" xlink:href="#DejaVuSans-72"/>
       <use x="600.619141" xlink:href="#DejaVuSans-67"/>
       <use x="664.095703" xlink:href="#DejaVuSans-69"/>
       <use x="691.878906" xlink:href="#DejaVuSans-2c"/>
       <use x="723.666016" xlink:href="#DejaVuSans-20"/>
       <use x="755.453125" xlink:href="#DejaVuSans-70"/>
       <use x="818.929688" xlink:href="#DejaVuSans-65"/>
       <use x="880.453125" xlink:href="#DejaVuSans-72"/>
       <use x="921.566406" xlink:href="#DejaVuSans-66"/>
       <use x="956.771484" xlink:href="#DejaVuSans-6f"/>
       <use x="1017.953125" xlink:href="#DejaVuSans-72"/>
       <use x="1059.050781" xlink:href="#DejaVuSans-6d"/>
       <use x="1156.462891" xlink:href="#DejaVuSans-7d"/>
      </g>
     </g>
    </g>
    <g id="xtick_12">
     <g id="line2d_12">
      <g>
       <use style="stroke:#000000;stroke-width:0.8;" x="413.554167" xlink:href="#m2d25e9993c" y="554.3"/>
      </g>
     </g>
     <g id="text_12">
      <!-- {wast, manag, solid} -->
      <g transform="translate(416.313542 668.089062)rotate(-90)scale(0.1 -0.1)">
       <use xlink:href="#DejaVuSans-7b"/>
       <use x="63.623047" xlink:href="#DejaVuSans-77"/>
       <use x="145.410156" xlink:href="#DejaVuSans-61"/>
       <use x="206.689453" xlink:href="#DejaVuSans-73"/>
       <use x="258.789062" xlink:href="#DejaVuSans-74"/>
       <use x="297.998047" xlink:href="#DejaVuSans-2c"/>
       <use x="329.785156" xlink:href="#DejaVuSans-20"/>
       <use x="361.572266" xlink:href="#DejaVuSans-6d"/>
       <use x="458.984375" xlink:href="#DejaVuSans-61"/>
       <use x="520.263672" xlink:href="#DejaVuSans-6e"/>
       <use x="583.642578" xlink:href="#DejaVuSans-61"/>
       <use x="644.921875" xlink:href="#DejaVuSans-67"/>
       <use x="708.398438" xlink:href="#DejaVuSans-2c"/>
       <use x="740.185547" xlink:href="#DejaVuSans-20"/>
       <use x="771.972656" xlink:href="#DejaVuSans-73"/>
       <use x="824.072266" xlink:href="#DejaVuSans-6f"/>
       <use x="885.253906" xlink:href="#DejaVuSans-6c"/>
       <use x="913.037109" xlink:href="#DejaVuSans-69"/>
       <use x="940.820312" xlink:href="#DejaVuSans-64"/>
       <use x="1004.296875" xlink:href="#DejaVuSans-7d"/>
      </g>
     </g>
    </g>
    <g id="xtick_13">
     <g id="line2d_13">
      <g>
       <use style="stroke:#000000;stroke-width:0.8;" x="446.620833" xlink:href="#m2d25e9993c" y="554.3"/>
      </g>
     </g>
     <g id="text_13">
      <!-- {vehicl, electr, fuel} -->
      <g transform="translate(449.380208 663.604687)rotate(-90)scale(0.1 -0.1)">
       <use xlink:href="#DejaVuSans-7b"/>
       <use x="63.623047" xlink:href="#DejaVuSans-76"/>
       <use x="122.802734" xlink:href="#DejaVuSans-65"/>
       <use x="184.326172" xlink:href="#DejaVuSans-68"/>
       <use x="247.705078" xlink:href="#DejaVuSans-69"/>
       <use x="275.488281" xlink:href="#DejaVuSans-63"/>
       <use x="330.46875" xlink:href="#DejaVuSans-6c"/>
       <use x="358.251953" xlink:href="#DejaVuSans-2c"/>
       <use x="390.039062" xlink:href="#DejaVuSans-20"/>
       <use x="421.826172" xlink:href="#DejaVuSans-65"/>
       <use x="483.349609" xlink:href="#DejaVuSans-6c"/>
       <use x="511.132812" xlink:href="#DejaVuSans-65"/>
       <use x="572.65625" xlink:href="#DejaVuSans-63"/>
       <use x="627.636719" xlink:href="#DejaVuSans-74"/>
       <use x="666.845703" xlink:href="#DejaVuSans-72"/>
       <use x="707.958984" xlink:href="#DejaVuSans-2c"/>
       <use x="739.746094" xlink:href="#DejaVuSans-20"/>
       <use x="771.533203" xlink:href="#DejaVuSans-66"/>
       <use x="806.738281" xlink:href="#DejaVuSans-75"/>
       <use x="870.117188" xlink:href="#DejaVuSans-65"/>
       <use x="931.640625" xlink:href="#DejaVuSans-6c"/>
       <use x="959.423828" xlink:href="#DejaVuSans-7d"/>
      </g>
     </g>
    </g>
    <g id="xtick_14">
     <g id="line2d_14">
      <g>
       <use style="stroke:#000000;stroke-width:0.8;" x="479.6875" xlink:href="#m2d25e9993c" y="554.3"/>
      </g>
     </g>
     <g id="text_14">
      <!-- {price, congest, road} -->
      <g transform="translate(482.446875 673.915625)rotate(-90)scale(0.1 -0.1)">
       <use xlink:href="#DejaVuSans-7b"/>
       <use x="63.623047" xlink:href="#DejaVuSans-70"/>
       <use x="127.099609" xlink:href="#DejaVuSans-72"/>
       <use x="168.212891" xlink:href="#DejaVuSans-69"/>
       <use x="195.996094" xlink:href="#DejaVuSans-63"/>
       <use x="250.976562" xlink:href="#DejaVuSans-65"/>
       <use x="312.5" xlink:href="#DejaVuSans-2c"/>
       <use x="344.287109" xlink:href="#DejaVuSans-20"/>
       <use x="376.074219" xlink:href="#DejaVuSans-63"/>
       <use x="431.054688" xlink:href="#DejaVuSans-6f"/>
       <use x="492.236328" xlink:href="#DejaVuSans-6e"/>
       <use x="555.615234" xlink:href="#DejaVuSans-67"/>
       <use x="619.091797" xlink:href="#DejaVuSans-65"/>
       <use x="680.615234" xlink:href="#DejaVuSans-73"/>
       <use x="732.714844" xlink:href="#DejaVuSans-74"/>
       <use x="771.923828" xlink:href="#DejaVuSans-2c"/>
       <use x="803.710938" xlink:href="#DejaVuSans-20"/>
       <use x="835.498047" xlink:href="#DejaVuSans-72"/>
       <use x="876.580078" xlink:href="#DejaVuSans-6f"/>
       <use x="937.761719" xlink:href="#DejaVuSans-61"/>
       <use x="999.041016" xlink:href="#DejaVuSans-64"/>
       <use x="1062.517578" xlink:href="#DejaVuSans-7d"/>
      </g>
     </g>
    </g>
    <g id="xtick_15">
     <g id="line2d_15">
      <g>
       <use style="stroke:#000000;stroke-width:0.8;" x="512.754167" xlink:href="#m2d25e9993c" y="554.3"/>
      </g>
     </g>
     <g id="text_15">
      <!-- {heat, hous, pump} -->
      <g transform="translate(515.513542 662.054688)rotate(-90)scale(0.1 -0.1)">
       <use xlink:href="#DejaVuSans-7b"/>
       <use x="63.623047" xlink:href="#DejaVuSans-68"/>
       <use x="127.001953" xlink:href="#DejaVuSans-65"/>
       <use x="188.525391" xlink:href="#DejaVuSans-61"/>
       <use x="249.804688" xlink:href="#DejaVuSans-74"/>
       <use x="289.013672" xlink:href="#DejaVuSans-2c"/>
       <use x="320.800781" xlink:href="#DejaVuSans-20"/>
       <use x="352.587891" xlink:href="#DejaVuSans-68"/>
       <use x="415.966797" xlink:href="#DejaVuSans-6f"/>
       <use x="477.148438" xlink:href="#DejaVuSans-75"/>
       <use x="540.527344" xlink:href="#DejaVuSans-73"/>
       <use x="592.626953" xlink:href="#DejaVuSans-2c"/>
       <use x="624.414062" xlink:href="#DejaVuSans-20"/>
       <use x="656.201172" xlink:href="#DejaVuSans-70"/>
       <use x="719.677734" xlink:href="#DejaVuSans-75"/>
       <use x="783.056641" xlink:href="#DejaVuSans-6d"/>
       <use x="880.46875" xlink:href="#DejaVuSans-70"/>
       <use x="943.945312" xlink:href="#DejaVuSans-7d"/>
      </g>
     </g>
    </g>
    <g id="xtick_16">
     <g id="line2d_16">
      <g>
       <use style="stroke:#000000;stroke-width:0.8;" x="545.820833" xlink:href="#m2d25e9993c" y="554.3"/>
      </g>
     </g>
     <g id="text_16">
      <!-- {travel, mode, choic} -->
      <g transform="translate(548.580208 670.339062)rotate(-90)scale(0.1 -0.1)">
       <use xlink:href="#DejaVuSans-7b"/>
       <use x="63.623047" xlink:href="#DejaVuSans-74"/>
       <use x="102.832031" xlink:href="#DejaVuSans-72"/>
       <use x="143.945312" xlink:href="#DejaVuSans-61"/>
       <use x="205.224609" xlink:href="#DejaVuSans-76"/>
       <use x="264.404297" xlink:href="#DejaVuSans-65"/>
       <use x="325.927734" xlink:href="#DejaVuSans-6c"/>
       <use x="353.710938" xlink:href="#DejaVuSans-2c"/>
       <use x="385.498047" xlink:href="#DejaVuSans-20"/>
       <use x="417.285156" xlink:href="#DejaVuSans-6d"/>
       <use x="514.697266" xlink:href="#DejaVuSans-6f"/>
       <use x="575.878906" xlink:href="#DejaVuSans-64"/>
       <use x="639.355469" xlink:href="#DejaVuSans-65"/>
       <use x="700.878906" xlink:href="#DejaVuSans-2c"/>
       <use x="732.666016" xlink:href="#DejaVuSans-20"/>
       <use x="764.453125" xlink:href="#DejaVuSans-63"/>
       <use x="819.433594" xlink:href="#DejaVuSans-68"/>
       <use x="882.8125" xlink:href="#DejaVuSans-6f"/>
       <use x="943.994141" xlink:href="#DejaVuSans-69"/>
       <use x="971.777344" xlink:href="#DejaVuSans-63"/>
       <use x="1026.757812" xlink:href="#DejaVuSans-7d"/>
      </g>
     </g>
    </g>
    <g id="xtick_17">
     <g id="line2d_17">
      <g>
       <use style="stroke:#000000;stroke-width:0.8;" x="578.8875" xlink:href="#m2d25e9993c" y="554.3"/>
      </g>
     </g>
     <g id="text_17">
      <!-- {servic, ecosystem, oper} -->
      <g transform="translate(581.646875 693.059375)rotate(-90)scale(0.1 -0.1)">
       <use xlink:href="#DejaVuSans-7b"/>
       <use x="63.623047" xlink:href="#DejaVuSans-73"/>
       <use x="115.722656" xlink:href="#DejaVuSans-65"/>
       <use x="177.246094" xlink:href="#DejaVuSans-72"/>
       <use x="218.359375" xlink:href="#DejaVuSans-76"/>
       <use x="277.539062" xlink:href="#DejaVuSans-69"/>
       <use x="305.322266" xlink:href="#DejaVuSans-63"/>
       <use x="360.302734" xlink:href="#DejaVuSans-2c"/>
       <use x="392.089844" xlink:href="#DejaVuSans-20"/>
       <use x="423.876953" xlink:href="#DejaVuSans-65"/>
       <use x="485.400391" xlink:href="#DejaVuSans-63"/>
       <use x="540.380859" xlink:href="#DejaVuSans-6f"/>
       <use x="601.5625" xlink:href="#DejaVuSans-73"/>
       <use x="653.662109" xlink:href="#DejaVuSans-79"/>
       <use x="712.841797" xlink:href="#DejaVuSans-73"/>
       <use x="764.941406" xlink:href="#DejaVuSans-74"/>
       <use x="804.150391" xlink:href="#DejaVuSans-65"/>
       <use x="865.673828" xlink:href="#DejaVuSans-6d"/>
       <use x="963.085938" xlink:href="#DejaVuSans-2c"/>
       <use x="994.873047" xlink:href="#DejaVuSans-20"/>
       <use x="1026.660156" xlink:href="#DejaVuSans-6f"/>
       <use x="1087.841797" xlink:href="#DejaVuSans-70"/>
       <use x="1151.318359" xlink:href="#DejaVuSans-65"/>
       <use x="1212.841797" xlink:href="#DejaVuSans-72"/>
       <use x="1253.955078" xlink:href="#DejaVuSans-7d"/>
      </g>
     </g>
    </g>
    <g id="xtick_18">
     <g id="line2d_18">
      <g>
       <use style="stroke:#000000;stroke-width:0.8;" x="611.954167" xlink:href="#m2d25e9993c" y="554.3"/>
      </g>
     </g>
     <g id="text_18">
      <!-- {transit, rail, station} -->
      <g transform="translate(614.713542 669.35)rotate(-90)scale(0.1 -0.1)">
       <use xlink:href="#DejaVuSans-7b"/>
       <use x="63.623047" xlink:href="#DejaVuSans-74"/>
       <use x="102.832031" xlink:href="#DejaVuSans-72"/>
       <use x="143.945312" xlink:href="#DejaVuSans-61"/>
       <use x="205.224609" xlink:href="#DejaVuSans-6e"/>
       <use x="268.603516" xlink:href="#DejaVuSans-73"/>
       <use x="320.703125" xlink:href="#DejaVuSans-69"/>
       <use x="348.486328" xlink:href="#DejaVuSans-74"/>
       <use x="387.695312" xlink:href="#DejaVuSans-2c"/>
       <use x="419.482422" xlink:href="#DejaVuSans-20"/>
       <use x="451.269531" xlink:href="#DejaVuSans-72"/>
       <use x="492.382812" xlink:href="#DejaVuSans-61"/>
       <use x="553.662109" xlink:href="#DejaVuSans-69"/>
       <use x="581.445312" xlink:href="#DejaVuSans-6c"/>
       <use x="609.228516" xlink:href="#DejaVuSans-2c"/>
       <use x="641.015625" xlink:href="#DejaVuSans-20"/>
       <use x="672.802734" xlink:href="#DejaVuSans-73"/>
       <use x="724.902344" xlink:href="#DejaVuSans-74"/>
       <use x="764.111328" xlink:href="#DejaVuSans-61"/>
       <use x="825.390625" xlink:href="#DejaVuSans-74"/>
       <use x="864.599609" xlink:href="#DejaVuSans-69"/>
       <use x="892.382812" xlink:href="#DejaVuSans-6f"/>
       <use x="953.564453" xlink:href="#DejaVuSans-6e"/>
       <use x="1016.943359" xlink:href="#DejaVuSans-7d"/>
      </g>
     </g>
    </g>
    <g id="xtick_19">
     <g id="line2d_19">
      <g>
       <use style="stroke:#000000;stroke-width:0.8;" x="645.020833" xlink:href="#m2d25e9993c" y="554.3"/>
      </g>
     </g>
     <g id="text_19">
      <!-- {thermal, comfort, temperatur} -->
      <g transform="translate(647.780208 721.85625)rotate(-90)scale(0.1 -0.1)">
       <use xlink:href="#DejaVuSans-7b"/>
       <use x="63.623047" xlink:href="#DejaVuSans-74"/>
       <use x="102.832031" xlink:href="#DejaVuSans-68"/>
       <use x="166.210938" xlink:href="#DejaVuSans-65"/>
       <use x="227.734375" xlink:href="#DejaVuSans-72"/>
       <use x="268.832031" xlink:href="#DejaVuSans-6d"/>
       <use x="366.244141" xlink:href="#DejaVuSans-61"/>
       <use x="427.523438" xlink:href="#DejaVuSans-6c"/>
       <use x="455.306641" xlink:href="#DejaVuSans-2c"/>
       <use x="487.09375" xlink:href="#DejaVuSans-20"/>
       <use x="518.880859" xlink:href="#DejaVuSans-63"/>
       <use x="573.861328" xlink:href="#DejaVuSans-6f"/>
       <use x="635.042969" xlink:href="#DejaVuSans-6d"/>
       <use x="732.455078" xlink:href="#DejaVuSans-66"/>
       <use x="767.660156" xlink:href="#DejaVuSans-6f"/>
       <use x="828.841797" xlink:href="#DejaVuSans-72"/>
       <use x="869.955078" xlink:href="#DejaVuSans-74"/>
       <use x="909.164062" xlink:href="#DejaVuSans-2c"/>
       <use x="940.951172" xlink:href="#DejaVuSans-20"/>
       <use x="972.738281" xlink:href="#DejaVuSans-74"/>
       <use x="1011.947266" xlink:href="#DejaVuSans-65"/>
       <use x="1073.470703" xlink:href="#DejaVuSans-6d"/>
       <use x="1170.882812" xlink:href="#DejaVuSans-70"/>
       <use x="1234.359375" xlink:href="#DejaVuSans-65"/>
       <use x="1295.882812" xlink:href="#DejaVuSans-72"/>
       <use x="1336.996094" xlink:href="#DejaVuSans-61"/>
       <use x="1398.275391" xlink:href="#DejaVuSans-74"/>
       <use x="1437.484375" xlink:href="#DejaVuSans-75"/>
       <use x="1500.863281" xlink:href="#DejaVuSans-72"/>
       <use x="1541.976562" xlink:href="#DejaVuSans-7d"/>
      </g>
     </g>
    </g>
    <g id="xtick_20">
     <g id="line2d_20">
      <g>
       <use style="stroke:#000000;stroke-width:0.8;" x="678.0875" xlink:href="#m2d25e9993c" y="554.3"/>
      </g>
     </g>
     <g id="text_20">
      <!-- {water, suppli, hot} -->
      <g transform="translate(680.846875 661.404688)rotate(-90)scale(0.1 -0.1)">
       <use xlink:href="#DejaVuSans-7b"/>
       <use x="63.623047" xlink:href="#DejaVuSans-77"/>
       <use x="145.410156" xlink:href="#DejaVuSans-61"/>
       <use x="206.689453" xlink:href="#DejaVuSans-74"/>
       <use x="245.898438" xlink:href="#DejaVuSans-65"/>
       <use x="307.421875" xlink:href="#DejaVuSans-72"/>
       <use x="348.535156" xlink:href="#DejaVuSans-2c"/>
       <use x="380.322266" xlink:href="#DejaVuSans-20"/>
       <use x="412.109375" xlink:href="#DejaVuSans-73"/>
       <use x="464.208984" xlink:href="#DejaVuSans-75"/>
       <use x="527.587891" xlink:href="#DejaVuSans-70"/>
       <use x="591.064453" xlink:href="#DejaVuSans-70"/>
       <use x="654.541016" xlink:href="#DejaVuSans-6c"/>
       <use x="682.324219" xlink:href="#DejaVuSans-69"/>
       <use x="710.107422" xlink:href="#DejaVuSans-2c"/>
       <use x="741.894531" xlink:href="#DejaVuSans-20"/>
       <use x="773.681641" xlink:href="#DejaVuSans-68"/>
       <use x="837.060547" xlink:href="#DejaVuSans-6f"/>
       <use x="898.242188" xlink:href="#DejaVuSans-74"/>
       <use x="937.451172" xlink:href="#DejaVuSans-7d"/>
      </g>
     </g>
    </g>
    <g id="xtick_21">
     <g id="line2d_21">
      <g>
       <use style="stroke:#000000;stroke-width:0.8;" x="711.154167" xlink:href="#m2d25e9993c" y="554.3"/>
      </g>
     </g>
     <g id="text_21">
      <!-- {treatment, wastewat, plant} -->
      <g transform="translate(713.913542 710.446875)rotate(-90)scale(0.1 -0.1)">
       <use xlink:href="#DejaVuSans-7b"/>
       <use x="63.623047" xlink:href="#DejaVuSans-74"/>
       <use x="102.832031" xlink:href="#DejaVuSans-72"/>
       <use x="143.914062" xlink:href="#DejaVuSans-65"/>
       <use x="205.4375" xlink:href="#DejaVuSans-61"/>
       <use x="266.716797" xlink:href="#DejaVuSans-74"/>
       <use x="305.925781" xlink:href="#DejaVuSans-6d"/>
       <use x="403.337891" xlink:href="#DejaVuSans-65"/>
       <use x="464.861328" xlink:href="#DejaVuSans-6e"/>
       <use x="528.240234" xlink:href="#DejaVuSans-74"/>
       <use x="567.449219" xlink:href="#DejaVuSans-2c"/>
       <use x="599.236328" xlink:href="#DejaVuSans-20"/>
       <use x="631.023438" xlink:href="#DejaVuSans-77"/>
       <use x="712.810547" xlink:href="#DejaVuSans-61"/>
       <use x="774.089844" xlink:href="#DejaVuSans-73"/>
       <use x="826.189453" xlink:href="#DejaVuSans-74"/>
       <use x="865.398438" xlink:href="#DejaVuSans-65"/>
       <use x="926.921875" xlink:href="#DejaVuSans-77"/>
       <use x="1008.708984" xlink:href="#DejaVuSans-61"/>
       <use x="1069.988281" xlink:href="#DejaVuSans-74"/>
       <use x="1109.197266" xlink:href="#DejaVuSans-2c"/>
       <use x="1140.984375" xlink:href="#DejaVuSans-20"/>
       <use x="1172.771484" xlink:href="#DejaVuSans-70"/>
       <use x="1236.248047" xlink:href="#DejaVuSans-6c"/>
       <use x="1264.03125" xlink:href="#DejaVuSans-61"/>
       <use x="1325.310547" xlink:href="#DejaVuSans-6e"/>
       <use x="1388.689453" xlink:href="#DejaVuSans-74"/>
       <use x="1427.898438" xlink:href="#DejaVuSans-7d"/>
      </g>
     </g>
    </g>
    <g id="xtick_22">
     <g id="line2d_22">
      <g>
       <use style="stroke:#000000;stroke-width:0.8;" x="744.220833" xlink:href="#m2d25e9993c" y="554.3"/>
      </g>
     </g>
     <g id="text_22">
      <!-- {recycl, household, collect} -->
      <g transform="translate(746.980208 701.176563)rotate(-90)scale(0.1 -0.1)">
       <use xlink:href="#DejaVuSans-7b"/>
       <use x="63.623047" xlink:href="#DejaVuSans-72"/>
       <use x="104.705078" xlink:href="#DejaVuSans-65"/>
       <use x="166.228516" xlink:href="#DejaVuSans-63"/>
       <use x="221.208984" xlink:href="#DejaVuSans-79"/>
       <use x="280.388672" xlink:href="#DejaVuSans-63"/>
       <use x="335.369141" xlink:href="#DejaVuSans-6c"/>
       <use x="363.152344" xlink:href="#DejaVuSans-2c"/>
       <use x="394.939453" xlink:href="#DejaVuSans-20"/>
       <use x="426.726562" xlink:href="#DejaVuSans-68"/>
       <use x="490.105469" xlink:href="#DejaVuSans-6f"/>
       <use x="551.287109" xlink:href="#DejaVuSans-75"/>
       <use x="614.666016" xlink:href="#DejaVuSans-73"/>
       <use x="666.765625" xlink:href="#DejaVuSans-65"/>
       <use x="728.289062" xlink:href="#DejaVuSans-68"/>
       <use x="791.667969" xlink:href="#DejaVuSans-6f"/>
       <use x="852.849609" xlink:href="#DejaVuSans-6c"/>
       <use x="880.632812" xlink:href="#DejaVuSans-64"/>
       <use x="944.109375" xlink:href="#DejaVuSans-2c"/>
       <use x="975.896484" xlink:href="#DejaVuSans-20"/>
       <use x="1007.683594" xlink:href="#DejaVuSans-63"/>
       <use x="1062.664062" xlink:href="#DejaVuSans-6f"/>
       <use x="1123.845703" xlink:href="#DejaVuSans-6c"/>
       <use x="1151.628906" xlink:href="#DejaVuSans-6c"/>
       <use x="1179.412109" xlink:href="#DejaVuSans-65"/>
       <use x="1240.935547" xlink:href="#DejaVuSans-63"/>
       <use x="1295.916016" xlink:href="#DejaVuSans-74"/>
       <use x="1335.125" xlink:href="#DejaVuSans-7d"/>
      </g>
     </g>
    </g>
    <g id="xtick_23">
     <g id="line2d_23">
      <g>
       <use style="stroke:#000000;stroke-width:0.8;" x="777.2875" xlink:href="#m2d25e9993c" y="554.3"/>
      </g>
     </g>
     <g id="text_23">
      <!-- {charg, station, congest} -->
      <g transform="translate(780.046875 689.157812)rotate(-90)scale(0.1 -0.1)">
       <use xlink:href="#DejaVuSans-7b"/>
       <use x="63.623047" xlink:href="#DejaVuSans-63"/>
       <use x="118.603516" xlink:href="#DejaVuSans-68"/>
       <use x="181.982422" xlink:href="#DejaVuSans-61"/>
       <use x="243.261719" xlink:href="#DejaVuSans-72"/>
       <use x="284.359375" xlink:href="#DejaVuSans-67"/>
       <use x="347.835938" xlink:href="#DejaVuSans-2c"/>
       <use x="379.623047" xlink:href="#DejaVuSans-20"/>
       <use x="411.410156" xlink:href="#DejaVuSans-73"/>
       <use x="463.509766" xlink:href="#DejaVuSans-74"/>
       <use x="502.71875" xlink:href="#DejaVuSans-61"/>
       <use x="563.998047" xlink:href="#DejaVuSans-74"/>
       <use x="603.207031" xlink:href="#DejaVuSans-69"/>
       <use x="630.990234" xlink:href="#DejaVuSans-6f"/>
       <use x="692.171875" xlink:href="#DejaVuSans-6e"/>
       <use x="755.550781" xlink:href="#DejaVuSans-2c"/>
       <use x="787.337891" xlink:href="#DejaVuSans-20"/>
       <use x="819.125" xlink:href="#DejaVuSans-63"/>
       <use x="874.105469" xlink:href="#DejaVuSans-6f"/>
       <use x="935.287109" xlink:href="#DejaVuSans-6e"/>
       <use x="998.666016" xlink:href="#DejaVuSans-67"/>
       <use x="1062.142578" xlink:href="#DejaVuSans-65"/>
       <use x="1123.666016" xlink:href="#DejaVuSans-73"/>
       <use x="1175.765625" xlink:href="#DejaVuSans-74"/>
       <use x="1214.974609" xlink:href="#DejaVuSans-7d"/>
      </g>
     </g>
    </g>
    <g id="xtick_24">
     <g id="line2d_24">
      <g>
       <use style="stroke:#000000;stroke-width:0.8;" x="810.354167" xlink:href="#m2d25e9993c" y="554.3"/>
      </g>
     </g>
     <g id="text_24">
      <!-- {bicycl, cycl, cyclist} -->
      <g transform="translate(813.113542 666.853125)rotate(-90)scale(0.1 -0.1)">
       <use xlink:href="#DejaVuSans-7b"/>
       <use x="63.623047" xlink:href="#DejaVuSans-62"/>
       <use x="127.099609" xlink:href="#DejaVuSans-69"/>
       <use x="154.882812" xlink:href="#DejaVuSans-63"/>
       <use x="209.863281" xlink:href="#DejaVuSans-79"/>
       <use x="269.042969" xlink:href="#DejaVuSans-63"/>
       <use x="324.023438" xlink:href="#DejaVuSans-6c"/>
       <use x="351.806641" xlink:href="#DejaVuSans-2c"/>
       <use x="383.59375" xlink:href="#DejaVuSans-20"/>
       <use x="415.380859" xlink:href="#DejaVuSans-63"/>
       <use x="470.361328" xlink:href="#DejaVuSans-79"/>
       <use x="529.541016" xlink:href="#DejaVuSans-63"/>
       <use x="584.521484" xlink:href="#DejaVuSans-6c"/>
       <use x="612.304688" xlink:href="#DejaVuSans-2c"/>
       <use x="644.091797" xlink:href="#DejaVuSans-20"/>
       <use x="675.878906" xlink:href="#DejaVuSans-63"/>
       <use x="730.859375" xlink:href="#DejaVuSans-79"/>
       <use x="790.039062" xlink:href="#DejaVuSans-63"/>
       <use x="845.019531" xlink:href="#DejaVuSans-6c"/>
       <use x="872.802734" xlink:href="#DejaVuSans-69"/>
       <use x="900.585938" xlink:href="#DejaVuSans-73"/>
       <use x="952.685547" xlink:href="#DejaVuSans-74"/>
       <use x="991.894531" xlink:href="#DejaVuSans-7d"/>
      </g>
     </g>
    </g>
    <g id="xtick_25">
     <g id="line2d_25">
      <g>
       <use style="stroke:#000000;stroke-width:0.8;" x="843.420833" xlink:href="#m2d25e9993c" y="554.3"/>
      </g>
     </g>
     <g id="text_25">
      <!-- {bus, brt, buse} -->
      <g transform="translate(846.180208 643.060938)rotate(-90)scale(0.1 -0.1)">
       <use xlink:href="#DejaVuSans-7b"/>
       <use x="63.623047" xlink:href="#DejaVuSans-62"/>
       <use x="127.099609" xlink:href="#DejaVuSans-75"/>
       <use x="190.478516" xlink:href="#DejaVuSans-73"/>
       <use x="242.578125" xlink:href="#DejaVuSans-2c"/>
       <use x="274.365234" xlink:href="#DejaVuSans-20"/>
       <use x="306.152344" xlink:href="#DejaVuSans-62"/>
       <use x="369.628906" xlink:href="#DejaVuSans-72"/>
       <use x="410.742188" xlink:href="#DejaVuSans-74"/>
       <use x="449.951172" xlink:href="#DejaVuSans-2c"/>
       <use x="481.738281" xlink:href="#DejaVuSans-20"/>
       <use x="513.525391" xlink:href="#DejaVuSans-62"/>
       <use x="577.001953" xlink:href="#DejaVuSans-75"/>
       <use x="640.380859" xlink:href="#DejaVuSans-73"/>
       <use x="692.480469" xlink:href="#DejaVuSans-65"/>
       <use x="754.003906" xlink:href="#DejaVuSans-7d"/>
      </g>
     </g>
    </g>
    <g id="xtick_26">
     <g id="line2d_26">
      <g>
       <use style="stroke:#000000;stroke-width:0.8;" x="876.4875" xlink:href="#m2d25e9993c" y="554.3"/>
      </g>
     </g>
     <g id="text_26">
      <!-- {toll, lane, road} -->
      <g transform="translate(879.246875 646.432812)rotate(-90)scale(0.1 -0.1)">
       <use xlink:href="#DejaVuSans-7b"/>
       <use x="63.623047" xlink:href="#DejaVuSans-74"/>
       <use x="102.832031" xlink:href="#DejaVuSans-6f"/>
       <use x="164.013672" xlink:href="#DejaVuSans-6c"/>
       <use x="191.796875" xlink:href="#DejaVuSans-6c"/>
       <use x="219.580078" xlink:href="#DejaVuSans-2c"/>
       <use x="251.367188" xlink:href="#DejaVuSans-20"/>
       <use x="283.154297" xlink:href="#DejaVuSans-6c"/>
       <use x="310.9375" xlink:href="#DejaVuSans-61"/>
       <use x="372.216797" xlink:href="#DejaVuSans-6e"/>
       <use x="435.595703" xlink:href="#DejaVuSans-65"/>
       <use x="497.119141" xlink:href="#DejaVuSans-2c"/>
       <use x="528.90625" xlink:href="#DejaVuSans-20"/>
       <use x="560.693359" xlink:href="#DejaVuSans-72"/>
       <use x="601.775391" xlink:href="#DejaVuSans-6f"/>
       <use x="662.957031" xlink:href="#DejaVuSans-61"/>
       <use x="724.236328" xlink:href="#DejaVuSans-64"/>
       <use x="787.712891" xlink:href="#DejaVuSans-7d"/>
      </g>
     </g>
    </g>
    <g id="xtick_27">
     <g id="line2d_27">
      <g>
       <use style="stroke:#000000;stroke-width:0.8;" x="909.554167" xlink:href="#m2d25e9993c" y="554.3"/>
      </g>
     </g>
     <g id="text_27">
      <!-- {park, space, car} -->
      <g transform="translate(912.313542 654.190625)rotate(-90)scale(0.1 -0.1)">
       <use xlink:href="#DejaVuSans-7b"/>
       <use x="63.623047" xlink:href="#DejaVuSans-70"/>
       <use x="127.099609" xlink:href="#DejaVuSans-61"/>
       <use x="188.378906" xlink:href="#DejaVuSans-72"/>
       <use x="229.492188" xlink:href="#DejaVuSans-6b"/>
       <use x="287.402344" xlink:href="#DejaVuSans-2c"/>
       <use x="319.189453" xlink:href="#DejaVuSans-20"/>
       <use x="350.976562" xlink:href="#DejaVuSans-73"/>
       <use x="403.076172" xlink:href="#DejaVuSans-70"/>
       <use x="466.552734" xlink:href="#DejaVuSans-61"/>
       <use x="527.832031" xlink:href="#DejaVuSans-63"/>
       <use x="582.8125" xlink:href="#DejaVuSans-65"/>
       <use x="644.335938" xlink:href="#DejaVuSans-2c"/>
       <use x="676.123047" xlink:href="#DejaVuSans-20"/>
       <use x="707.910156" xlink:href="#DejaVuSans-63"/>
       <use x="762.890625" xlink:href="#DejaVuSans-61"/>
       <use x="824.169922" xlink:href="#DejaVuSans-72"/>
       <use x="865.283203" xlink:href="#DejaVuSans-7d"/>
      </g>
     </g>
    </g>
    <g id="text_28">
     <!-- Topic Title -->
     <defs>
      <path d="M -0.296875 72.90625 
L 61.375 72.90625 
L 61.375 64.59375 
L 35.5 64.59375 
L 35.5 0 
L 25.59375 0 
L 25.59375 64.59375 
L -0.296875 64.59375 
z
" id="DejaVuSans-54"/>
     </defs>
     <g transform="translate(453.819531 733.454687)scale(0.1 -0.1)">
      <use xlink:href="#DejaVuSans-54"/>
      <use x="60.818359" xlink:href="#DejaVuSans-6f"/>
      <use x="122" xlink:href="#DejaVuSans-70"/>
      <use x="185.476562" xlink:href="#DejaVuSans-69"/>
      <use x="213.259766" xlink:href="#DejaVuSans-63"/>
      <use x="268.240234" xlink:href="#DejaVuSans-20"/>
      <use x="300.027344" xlink:href="#DejaVuSans-54"/>
      <use x="361.064453" xlink:href="#DejaVuSans-69"/>
      <use x="388.847656" xlink:href="#DejaVuSans-74"/>
      <use x="428.056641" xlink:href="#DejaVuSans-6c"/>
      <use x="455.839844" xlink:href="#DejaVuSans-65"/>
     </g>
    </g>
   </g>
   <g id="matplotlib.axis_2">
    <g id="ytick_1">
     <g id="line2d_28">
      <defs>
       <path d="M 0 0 
L -3.5 0 
" id="m83fd48160d" style="stroke:#000000;stroke-width:0.8;"/>
      </defs>
      <g>
       <use style="stroke:#000000;stroke-width:0.8;" x="33.2875" xlink:href="#m83fd48160d" y="554.3"/>
      </g>
     </g>
     <g id="text_29">
      <!-- 0 -->
      <defs>
       <path d="M 31.78125 66.40625 
Q 24.171875 66.40625 20.328125 58.90625 
Q 16.5 51.421875 16.5 36.375 
Q 16.5 21.390625 20.328125 13.890625 
Q 24.171875 6.390625 31.78125 6.390625 
Q 39.453125 6.390625 43.28125 13.890625 
Q 47.125 21.390625 47.125 36.375 
Q 47.125 51.421875 43.28125 58.90625 
Q 39.453125 66.40625 31.78125 66.40625 
M 31.78125 74.21875 
Q 44.046875 74.21875 50.515625 64.515625 
Q 56.984375 54.828125 56.984375 36.375 
Q 56.984375 17.96875 50.515625 8.265625 
Q 44.046875 -1.421875 31.78125 -1.421875 
Q 19.53125 -1.421875 13.0625 8.265625 
Q 6.59375 17.96875 6.59375 36.375 
Q 6.59375 54.828125 13.0625 64.515625 
Q 19.53125 74.21875 31.78125 74.21875 
" id="DejaVuSans-30"/>
      </defs>
      <g transform="translate(19.925 558.099219)scale(0.1 -0.1)">
       <use xlink:href="#DejaVuSans-30"/>
      </g>
     </g>
    </g>
    <g id="ytick_2">
     <g id="line2d_29">
      <g>
       <use style="stroke:#000000;stroke-width:0.8;" x="33.2875" xlink:href="#m83fd48160d" y="458.426984"/>
      </g>
     </g>
     <g id="text_30">
      <!-- 20 -->
      <defs>
       <path d="M 19.1875 8.296875 
L 53.609375 8.296875 
L 53.609375 0 
L 7.328125 0 
L 7.328125 8.296875 
Q 12.9375 14.109375 22.625 23.890625 
Q 32.328125 33.6875 34.8125 36.53125 
Q 39.546875 41.84375 41.421875 45.53125 
Q 43.3125 49.21875 43.3125 52.78125 
Q 43.3125 58.59375 39.234375 62.25 
Q 35.15625 65.921875 28.609375 65.921875 
Q 23.96875 65.921875 18.8125 64.3125 
Q 13.671875 62.703125 7.8125 59.421875 
L 7.8125 69.390625 
Q 13.765625 71.78125 18.9375 73 
Q 24.125 74.21875 28.421875 74.21875 
Q 39.75 74.21875 46.484375 68.546875 
Q 53.21875 62.890625 53.21875 53.421875 
Q 53.21875 48.921875 51.53125 44.890625 
Q 49.859375 40.875 45.40625 35.40625 
Q 44.1875 33.984375 37.640625 27.21875 
Q 31.109375 20.453125 19.1875 8.296875 
" id="DejaVuSans-32"/>
      </defs>
      <g transform="translate(13.5625 462.226203)scale(0.1 -0.1)">
       <use xlink:href="#DejaVuSans-32"/>
       <use x="63.623047" xlink:href="#DejaVuSans-30"/>
      </g>
     </g>
    </g>
    <g id="ytick_3">
     <g id="line2d_30">
      <g>
       <use style="stroke:#000000;stroke-width:0.8;" x="33.2875" xlink:href="#m83fd48160d" y="362.553968"/>
      </g>
     </g>
     <g id="text_31">
      <!-- 40 -->
      <defs>
       <path d="M 37.796875 64.3125 
L 12.890625 25.390625 
L 37.796875 25.390625 
z
M 35.203125 72.90625 
L 47.609375 72.90625 
L 47.609375 25.390625 
L 58.015625 25.390625 
L 58.015625 17.1875 
L 47.609375 17.1875 
L 47.609375 0 
L 37.796875 0 
L 37.796875 17.1875 
L 4.890625 17.1875 
L 4.890625 26.703125 
z
" id="DejaVuSans-34"/>
      </defs>
      <g transform="translate(13.5625 366.353187)scale(0.1 -0.1)">
       <use xlink:href="#DejaVuSans-34"/>
       <use x="63.623047" xlink:href="#DejaVuSans-30"/>
      </g>
     </g>
    </g>
    <g id="ytick_4">
     <g id="line2d_31">
      <g>
       <use style="stroke:#000000;stroke-width:0.8;" x="33.2875" xlink:href="#m83fd48160d" y="266.680952"/>
      </g>
     </g>
     <g id="text_32">
      <!-- 60 -->
      <defs>
       <path d="M 33.015625 40.375 
Q 26.375 40.375 22.484375 35.828125 
Q 18.609375 31.296875 18.609375 23.390625 
Q 18.609375 15.53125 22.484375 10.953125 
Q 26.375 6.390625 33.015625 6.390625 
Q 39.65625 6.390625 43.53125 10.953125 
Q 47.40625 15.53125 47.40625 23.390625 
Q 47.40625 31.296875 43.53125 35.828125 
Q 39.65625 40.375 33.015625 40.375 
M 52.59375 71.296875 
L 52.59375 62.3125 
Q 48.875 64.0625 45.09375 64.984375 
Q 41.3125 65.921875 37.59375 65.921875 
Q 27.828125 65.921875 22.671875 59.328125 
Q 17.53125 52.734375 16.796875 39.40625 
Q 19.671875 43.65625 24.015625 45.921875 
Q 28.375 48.1875 33.59375 48.1875 
Q 44.578125 48.1875 50.953125 41.515625 
Q 57.328125 34.859375 57.328125 23.390625 
Q 57.328125 12.15625 50.6875 5.359375 
Q 44.046875 -1.421875 33.015625 -1.421875 
Q 20.359375 -1.421875 13.671875 8.265625 
Q 6.984375 17.96875 6.984375 36.375 
Q 6.984375 53.65625 15.1875 63.9375 
Q 23.390625 74.21875 37.203125 74.21875 
Q 40.921875 74.21875 44.703125 73.484375 
Q 48.484375 72.75 52.59375 71.296875 
" id="DejaVuSans-36"/>
      </defs>
      <g transform="translate(13.5625 270.480171)scale(0.1 -0.1)">
       <use xlink:href="#DejaVuSans-36"/>
       <use x="63.623047" xlink:href="#DejaVuSans-30"/>
      </g>
     </g>
    </g>
    <g id="ytick_5">
     <g id="line2d_32">
      <g>
       <use style="stroke:#000000;stroke-width:0.8;" x="33.2875" xlink:href="#m83fd48160d" y="170.807937"/>
      </g>
     </g>
     <g id="text_33">
      <!-- 80 -->
      <defs>
       <path d="M 31.78125 34.625 
Q 24.75 34.625 20.71875 30.859375 
Q 16.703125 27.09375 16.703125 20.515625 
Q 16.703125 13.921875 20.71875 10.15625 
Q 24.75 6.390625 31.78125 6.390625 
Q 38.8125 6.390625 42.859375 10.171875 
Q 46.921875 13.96875 46.921875 20.515625 
Q 46.921875 27.09375 42.890625 30.859375 
Q 38.875 34.625 31.78125 34.625 
M 21.921875 38.8125 
Q 15.578125 40.375 12.03125 44.71875 
Q 8.5 49.078125 8.5 55.328125 
Q 8.5 64.0625 14.71875 69.140625 
Q 20.953125 74.21875 31.78125 74.21875 
Q 42.671875 74.21875 48.875 69.140625 
Q 55.078125 64.0625 55.078125 55.328125 
Q 55.078125 49.078125 51.53125 44.71875 
Q 48 40.375 41.703125 38.8125 
Q 48.828125 37.15625 52.796875 32.3125 
Q 56.78125 27.484375 56.78125 20.515625 
Q 56.78125 9.90625 50.3125 4.234375 
Q 43.84375 -1.421875 31.78125 -1.421875 
Q 19.734375 -1.421875 13.25 4.234375 
Q 6.78125 9.90625 6.78125 20.515625 
Q 6.78125 27.484375 10.78125 32.3125 
Q 14.796875 37.15625 21.921875 38.8125 
M 18.3125 54.390625 
Q 18.3125 48.734375 21.84375 45.5625 
Q 25.390625 42.390625 31.78125 42.390625 
Q 38.140625 42.390625 41.71875 45.5625 
Q 45.3125 48.734375 45.3125 54.390625 
Q 45.3125 60.0625 41.71875 63.234375 
Q 38.140625 66.40625 31.78125 66.40625 
Q 25.390625 66.40625 21.84375 63.234375 
Q 18.3125 60.0625 18.3125 54.390625 
" id="DejaVuSans-38"/>
      </defs>
      <g transform="translate(13.5625 174.607155)scale(0.1 -0.1)">
       <use xlink:href="#DejaVuSans-38"/>
       <use x="63.623047" xlink:href="#DejaVuSans-30"/>
      </g>
     </g>
    </g>
    <g id="ytick_6">
     <g id="line2d_33">
      <g>
       <use style="stroke:#000000;stroke-width:0.8;" x="33.2875" xlink:href="#m83fd48160d" y="74.934921"/>
      </g>
     </g>
     <g id="text_34">
      <!-- 100 -->
      <defs>
       <path d="M 12.40625 8.296875 
L 28.515625 8.296875 
L 28.515625 63.921875 
L 10.984375 60.40625 
L 10.984375 69.390625 
L 28.421875 72.90625 
L 38.28125 72.90625 
L 38.28125 8.296875 
L 54.390625 8.296875 
L 54.390625 0 
L 12.40625 0 
z
" id="DejaVuSans-31"/>
      </defs>
      <g transform="translate(7.2 78.734139)scale(0.1 -0.1)">
       <use xlink:href="#DejaVuSans-31"/>
       <use x="63.623047" xlink:href="#DejaVuSans-30"/>
       <use x="127.246094" xlink:href="#DejaVuSans-30"/>
      </g>
     </g>
    </g>
   </g>
   <g id="patch_30">
    <path d="M 33.2875 554.3 
L 33.2875 10.7 
" style="fill:none;stroke:#000000;stroke-linecap:square;stroke-linejoin:miter;stroke-width:0.8;"/>
   </g>
   <g id="patch_31">
    <path d="M 926.0875 554.3 
L 926.0875 10.7 
" style="fill:none;stroke:#000000;stroke-linecap:square;stroke-linejoin:miter;stroke-width:0.8;"/>
   </g>
   <g id="patch_32">
    <path d="M 33.2875 554.3 
L 926.0875 554.3 
" style="fill:none;stroke:#000000;stroke-linecap:square;stroke-linejoin:miter;stroke-width:0.8;"/>
   </g>
   <g id="patch_33">
    <path d="M 33.2875 10.7 
L 926.0875 10.7 
" style="fill:none;stroke:#000000;stroke-linecap:square;stroke-linejoin:miter;stroke-width:0.8;"/>
   </g>
   <g id="legend_1">
    <g id="patch_34">
     <path d="M 866.964062 33.378125 
L 919.0875 33.378125 
Q 921.0875 33.378125 921.0875 31.378125 
L 921.0875 17.7 
Q 921.0875 15.7 919.0875 15.7 
L 866.964062 15.7 
Q 864.964062 15.7 864.964062 17.7 
L 864.964062 31.378125 
Q 864.964062 33.378125 866.964062 33.378125 
z
" style="fill:#ffffff;opacity:0.8;stroke:#cccccc;stroke-linejoin:miter;"/>
    </g>
    <g id="patch_35">
     <path d="M 868.964062 27.298437 
L 888.964062 27.298437 
L 888.964062 20.298437 
L 868.964062 20.298437 
z
" style="fill:#1f77b4;"/>
    </g>
    <g id="text_35">
     <!-- ipcc -->
     <g transform="translate(896.964062 27.298437)scale(0.1 -0.1)">
      <use xlink:href="#DejaVuSans-69"/>
      <use x="27.783203" xlink:href="#DejaVuSans-70"/>
      <use x="91.259766" xlink:href="#DejaVuSans-63"/>
      <use x="146.240234" xlink:href="#DejaVuSans-63"/>
     </g>
    </g>
   </g>
  </g>
 </g>
 <defs>
  <clipPath id="p788dd9779c">
   <rect height="543.6" width="892.8" x="33.2875" y="10.7"/>
  </clipPath>
 </defs>
</svg>
