<?xml version="1.0" encoding="utf-8" standalone="no"?>
<!DOCTYPE svg PUBLIC "-//W3C//DTD SVG 1.1//EN"
  "http://www.w3.org/Graphics/SVG/1.1/DTD/svg11.dtd">
<!-- Created with matplotlib (http://matplotlib.org/) -->
<svg height="731pt" version="1.1" viewBox="0 0 930 731" width="930pt" xmlns="http://www.w3.org/2000/svg" xmlns:xlink="http://www.w3.org/1999/xlink">
 <defs>
  <style type="text/css">
*{stroke-linecap:butt;stroke-linejoin:round;}
  </style>
 </defs>
 <g id="figure_1">
  <g id="patch_1">
   <path d="M 0 731.325 
L 930.425 731.325 
L 930.425 0 
L 0 0 
z
" style="fill:#ffffff;"/>
  </g>
  <g id="axes_1">
   <g id="patch_2">
    <path d="M 26.925 554.3 
L 919.725 554.3 
L 919.725 10.7 
L 26.925 10.7 
z
" style="fill:#ffffff;"/>
   </g>
   <g id="patch_3">
    <path clip-path="url(#p6cf6cffb38)" d="M 35.853 554.3 
L 53.709 554.3 
L 53.709 36.585714 
L 35.853 36.585714 
z
" style="fill:#1f77b4;"/>
   </g>
   <g id="patch_4">
    <path clip-path="url(#p6cf6cffb38)" d="M 71.565 554.3 
L 89.421 554.3 
L 89.421 36.585714 
L 71.565 36.585714 
z
" style="fill:#1f77b4;"/>
   </g>
   <g id="patch_5">
    <path clip-path="url(#p6cf6cffb38)" d="M 107.277 554.3 
L 125.133 554.3 
L 125.133 113.692097 
L 107.277 113.692097 
z
" style="fill:#1f77b4;"/>
   </g>
   <g id="patch_6">
    <path clip-path="url(#p6cf6cffb38)" d="M 142.989 554.3 
L 160.845 554.3 
L 160.845 207.321277 
L 142.989 207.321277 
z
" style="fill:#1f77b4;"/>
   </g>
   <g id="patch_7">
    <path clip-path="url(#p6cf6cffb38)" d="M 178.701 554.3 
L 196.557 554.3 
L 196.557 229.351672 
L 178.701 229.351672 
z
" style="fill:#1f77b4;"/>
   </g>
   <g id="patch_8">
    <path clip-path="url(#p6cf6cffb38)" d="M 214.413 554.3 
L 232.269 554.3 
L 232.269 322.980851 
L 214.413 322.980851 
z
" style="fill:#1f77b4;"/>
   </g>
   <g id="patch_9">
    <path clip-path="url(#p6cf6cffb38)" d="M 250.125 554.3 
L 267.981 554.3 
L 267.981 328.48845 
L 250.125 328.48845 
z
" style="fill:#1f77b4;"/>
   </g>
   <g id="patch_10">
    <path clip-path="url(#p6cf6cffb38)" d="M 285.837 554.3 
L 303.693 554.3 
L 303.693 328.48845 
L 285.837 328.48845 
z
" style="fill:#1f77b4;"/>
   </g>
   <g id="patch_11">
    <path clip-path="url(#p6cf6cffb38)" d="M 321.549 554.3 
L 339.405 554.3 
L 339.405 333.996049 
L 321.549 333.996049 
z
" style="fill:#1f77b4;"/>
   </g>
   <g id="patch_12">
    <path clip-path="url(#p6cf6cffb38)" d="M 357.261 554.3 
L 375.117 554.3 
L 375.117 416.61003 
L 357.261 416.61003 
z
" style="fill:#1f77b4;"/>
   </g>
   <g id="patch_13">
    <path clip-path="url(#p6cf6cffb38)" d="M 392.973 554.3 
L 410.829 554.3 
L 410.829 416.61003 
L 392.973 416.61003 
z
" style="fill:#1f77b4;"/>
   </g>
   <g id="patch_14">
    <path clip-path="url(#p6cf6cffb38)" d="M 428.685 554.3 
L 446.541 554.3 
L 446.541 433.132827 
L 428.685 433.132827 
z
" style="fill:#1f77b4;"/>
   </g>
   <g id="patch_15">
    <path clip-path="url(#p6cf6cffb38)" d="M 464.397 554.3 
L 482.253 554.3 
L 482.253 449.655623 
L 464.397 449.655623 
z
" style="fill:#1f77b4;"/>
   </g>
   <g id="patch_16">
    <path clip-path="url(#p6cf6cffb38)" d="M 500.109 554.3 
L 517.965 554.3 
L 517.965 449.655623 
L 500.109 449.655623 
z
" style="fill:#1f77b4;"/>
   </g>
   <g id="patch_17">
    <path clip-path="url(#p6cf6cffb38)" d="M 535.821 554.3 
L 553.677 554.3 
L 553.677 449.655623 
L 535.821 449.655623 
z
" style="fill:#1f77b4;"/>
   </g>
   <g id="patch_18">
    <path clip-path="url(#p6cf6cffb38)" d="M 571.533 554.3 
L 589.389 554.3 
L 589.389 477.193617 
L 571.533 477.193617 
z
" style="fill:#1f77b4;"/>
   </g>
   <g id="patch_19">
    <path clip-path="url(#p6cf6cffb38)" d="M 607.245 554.3 
L 625.101 554.3 
L 625.101 482.701216 
L 607.245 482.701216 
z
" style="fill:#1f77b4;"/>
   </g>
   <g id="patch_20">
    <path clip-path="url(#p6cf6cffb38)" d="M 642.957 554.3 
L 660.813 554.3 
L 660.813 488.208815 
L 642.957 488.208815 
z
" style="fill:#1f77b4;"/>
   </g>
   <g id="patch_21">
    <path clip-path="url(#p6cf6cffb38)" d="M 678.669 554.3 
L 696.525 554.3 
L 696.525 493.716413 
L 678.669 493.716413 
z
" style="fill:#1f77b4;"/>
   </g>
   <g id="patch_22">
    <path clip-path="url(#p6cf6cffb38)" d="M 714.381 554.3 
L 732.237 554.3 
L 732.237 499.224012 
L 714.381 499.224012 
z
" style="fill:#1f77b4;"/>
   </g>
   <g id="patch_23">
    <path clip-path="url(#p6cf6cffb38)" d="M 750.093 554.3 
L 767.949 554.3 
L 767.949 504.731611 
L 750.093 504.731611 
z
" style="fill:#1f77b4;"/>
   </g>
   <g id="patch_24">
    <path clip-path="url(#p6cf6cffb38)" d="M 785.805 554.3 
L 803.661 554.3 
L 803.661 526.762006 
L 785.805 526.762006 
z
" style="fill:#1f77b4;"/>
   </g>
   <g id="patch_25">
    <path clip-path="url(#p6cf6cffb38)" d="M 821.517 554.3 
L 839.373 554.3 
L 839.373 543.284802 
L 821.517 543.284802 
z
" style="fill:#1f77b4;"/>
   </g>
   <g id="patch_26">
    <path clip-path="url(#p6cf6cffb38)" d="M 857.229 554.3 
L 875.085 554.3 
L 875.085 548.792401 
L 857.229 548.792401 
z
" style="fill:#1f77b4;"/>
   </g>
   <g id="patch_27">
    <path clip-path="url(#p6cf6cffb38)" d="M 892.941 554.3 
L 910.797 554.3 
L 910.797 554.3 
L 892.941 554.3 
z
" style="fill:#1f77b4;"/>
   </g>
   <g id="matplotlib.axis_1">
    <g id="xtick_1">
     <g id="line2d_1">
      <defs>
       <path d="M 0 0 
L 0 3.5 
" id="m02412a16a2" style="stroke:#000000;stroke-width:0.8;"/>
      </defs>
      <g>
       <use style="stroke:#000000;stroke-width:0.8;" x="44.781" xlink:href="#m02412a16a2" y="554.3"/>
      </g>
     </g>
     <g id="text_1">
      <!-- {climat, chang, mitig} -->
      <defs>
       <path d="M 51.125 -9.28125 
L 51.125 -16.3125 
L 48.09375 -16.3125 
Q 35.9375 -16.3125 31.8125 -12.6875 
Q 27.6875 -9.078125 27.6875 1.703125 
L 27.6875 13.375 
Q 27.6875 20.75 25.046875 23.578125 
Q 22.40625 26.421875 15.484375 26.421875 
L 12.5 26.421875 
L 12.5 33.40625 
L 15.484375 33.40625 
Q 22.46875 33.40625 25.078125 36.203125 
Q 27.6875 39.015625 27.6875 46.296875 
L 27.6875 58.015625 
Q 27.6875 68.796875 31.8125 72.390625 
Q 35.9375 75.984375 48.09375 75.984375 
L 51.125 75.984375 
L 51.125 69 
L 47.796875 69 
Q 40.921875 69 38.8125 66.84375 
Q 36.71875 64.703125 36.71875 57.8125 
L 36.71875 45.703125 
Q 36.71875 38.03125 34.5 34.5625 
Q 32.28125 31.109375 26.90625 29.890625 
Q 32.328125 28.5625 34.515625 25.09375 
Q 36.71875 21.625 36.71875 14.015625 
L 36.71875 1.90625 
Q 36.71875 -4.984375 38.8125 -7.125 
Q 40.921875 -9.28125 47.796875 -9.28125 
z
" id="DejaVuSans-7b"/>
       <path d="M 48.78125 52.59375 
L 48.78125 44.1875 
Q 44.96875 46.296875 41.140625 47.34375 
Q 37.3125 48.390625 33.40625 48.390625 
Q 24.65625 48.390625 19.8125 42.84375 
Q 14.984375 37.3125 14.984375 27.296875 
Q 14.984375 17.28125 19.8125 11.734375 
Q 24.65625 6.203125 33.40625 6.203125 
Q 37.3125 6.203125 41.140625 7.25 
Q 44.96875 8.296875 48.78125 10.40625 
L 48.78125 2.09375 
Q 45.015625 0.34375 40.984375 -0.53125 
Q 36.96875 -1.421875 32.421875 -1.421875 
Q 20.0625 -1.421875 12.78125 6.34375 
Q 5.515625 14.109375 5.515625 27.296875 
Q 5.515625 40.671875 12.859375 48.328125 
Q 20.21875 56 33.015625 56 
Q 37.15625 56 41.109375 55.140625 
Q 45.0625 54.296875 48.78125 52.59375 
" id="DejaVuSans-63"/>
       <path d="M 9.421875 75.984375 
L 18.40625 75.984375 
L 18.40625 0 
L 9.421875 0 
z
" id="DejaVuSans-6c"/>
       <path d="M 9.421875 54.6875 
L 18.40625 54.6875 
L 18.40625 0 
L 9.421875 0 
z
M 9.421875 75.984375 
L 18.40625 75.984375 
L 18.40625 64.59375 
L 9.421875 64.59375 
z
" id="DejaVuSans-69"/>
       <path d="M 52 44.1875 
Q 55.375 50.25 60.0625 53.125 
Q 64.75 56 71.09375 56 
Q 79.640625 56 84.28125 50.015625 
Q 88.921875 44.046875 88.921875 33.015625 
L 88.921875 0 
L 79.890625 0 
L 79.890625 32.71875 
Q 79.890625 40.578125 77.09375 44.375 
Q 74.3125 48.1875 68.609375 48.1875 
Q 61.625 48.1875 57.5625 43.546875 
Q 53.515625 38.921875 53.515625 30.90625 
L 53.515625 0 
L 44.484375 0 
L 44.484375 32.71875 
Q 44.484375 40.625 41.703125 44.40625 
Q 38.921875 48.1875 33.109375 48.1875 
Q 26.21875 48.1875 22.15625 43.53125 
Q 18.109375 38.875 18.109375 30.90625 
L 18.109375 0 
L 9.078125 0 
L 9.078125 54.6875 
L 18.109375 54.6875 
L 18.109375 46.1875 
Q 21.1875 51.21875 25.484375 53.609375 
Q 29.78125 56 35.6875 56 
Q 41.65625 56 45.828125 52.96875 
Q 50 49.953125 52 44.1875 
" id="DejaVuSans-6d"/>
       <path d="M 34.28125 27.484375 
Q 23.390625 27.484375 19.1875 25 
Q 14.984375 22.515625 14.984375 16.5 
Q 14.984375 11.71875 18.140625 8.90625 
Q 21.296875 6.109375 26.703125 6.109375 
Q 34.1875 6.109375 38.703125 11.40625 
Q 43.21875 16.703125 43.21875 25.484375 
L 43.21875 27.484375 
z
M 52.203125 31.203125 
L 52.203125 0 
L 43.21875 0 
L 43.21875 8.296875 
Q 40.140625 3.328125 35.546875 0.953125 
Q 30.953125 -1.421875 24.3125 -1.421875 
Q 15.921875 -1.421875 10.953125 3.296875 
Q 6 8.015625 6 15.921875 
Q 6 25.140625 12.171875 29.828125 
Q 18.359375 34.515625 30.609375 34.515625 
L 43.21875 34.515625 
L 43.21875 35.40625 
Q 43.21875 41.609375 39.140625 45 
Q 35.0625 48.390625 27.6875 48.390625 
Q 23 48.390625 18.546875 47.265625 
Q 14.109375 46.140625 10.015625 43.890625 
L 10.015625 52.203125 
Q 14.9375 54.109375 19.578125 55.046875 
Q 24.21875 56 28.609375 56 
Q 40.484375 56 46.34375 49.84375 
Q 52.203125 43.703125 52.203125 31.203125 
" id="DejaVuSans-61"/>
       <path d="M 18.3125 70.21875 
L 18.3125 54.6875 
L 36.8125 54.6875 
L 36.8125 47.703125 
L 18.3125 47.703125 
L 18.3125 18.015625 
Q 18.3125 11.328125 20.140625 9.421875 
Q 21.96875 7.515625 27.59375 7.515625 
L 36.8125 7.515625 
L 36.8125 0 
L 27.59375 0 
Q 17.1875 0 13.234375 3.875 
Q 9.28125 7.765625 9.28125 18.015625 
L 9.28125 47.703125 
L 2.6875 47.703125 
L 2.6875 54.6875 
L 9.28125 54.6875 
L 9.28125 70.21875 
z
" id="DejaVuSans-74"/>
       <path d="M 11.71875 12.40625 
L 22.015625 12.40625 
L 22.015625 4 
L 14.015625 -11.625 
L 7.71875 -11.625 
L 11.71875 4 
z
" id="DejaVuSans-2c"/>
       <path id="DejaVuSans-20"/>
       <path d="M 54.890625 33.015625 
L 54.890625 0 
L 45.90625 0 
L 45.90625 32.71875 
Q 45.90625 40.484375 42.875 44.328125 
Q 39.84375 48.1875 33.796875 48.1875 
Q 26.515625 48.1875 22.3125 43.546875 
Q 18.109375 38.921875 18.109375 30.90625 
L 18.109375 0 
L 9.078125 0 
L 9.078125 75.984375 
L 18.109375 75.984375 
L 18.109375 46.1875 
Q 21.34375 51.125 25.703125 53.5625 
Q 30.078125 56 35.796875 56 
Q 45.21875 56 50.046875 50.171875 
Q 54.890625 44.34375 54.890625 33.015625 
" id="DejaVuSans-68"/>
       <path d="M 54.890625 33.015625 
L 54.890625 0 
L 45.90625 0 
L 45.90625 32.71875 
Q 45.90625 40.484375 42.875 44.328125 
Q 39.84375 48.1875 33.796875 48.1875 
Q 26.515625 48.1875 22.3125 43.546875 
Q 18.109375 38.921875 18.109375 30.90625 
L 18.109375 0 
L 9.078125 0 
L 9.078125 54.6875 
L 18.109375 54.6875 
L 18.109375 46.1875 
Q 21.34375 51.125 25.703125 53.5625 
Q 30.078125 56 35.796875 56 
Q 45.21875 56 50.046875 50.171875 
Q 54.890625 44.34375 54.890625 33.015625 
" id="DejaVuSans-6e"/>
       <path d="M 45.40625 27.984375 
Q 45.40625 37.75 41.375 43.109375 
Q 37.359375 48.484375 30.078125 48.484375 
Q 22.859375 48.484375 18.828125 43.109375 
Q 14.796875 37.75 14.796875 27.984375 
Q 14.796875 18.265625 18.828125 12.890625 
Q 22.859375 7.515625 30.078125 7.515625 
Q 37.359375 7.515625 41.375 12.890625 
Q 45.40625 18.265625 45.40625 27.984375 
M 54.390625 6.78125 
Q 54.390625 -7.171875 48.1875 -13.984375 
Q 42 -20.796875 29.203125 -20.796875 
Q 24.46875 -20.796875 20.265625 -20.09375 
Q 16.0625 -19.390625 12.109375 -17.921875 
L 12.109375 -9.1875 
Q 16.0625 -11.328125 19.921875 -12.34375 
Q 23.78125 -13.375 27.78125 -13.375 
Q 36.625 -13.375 41.015625 -8.765625 
Q 45.40625 -4.15625 45.40625 5.171875 
L 45.40625 9.625 
Q 42.625 4.78125 38.28125 2.390625 
Q 33.9375 0 27.875 0 
Q 17.828125 0 11.671875 7.65625 
Q 5.515625 15.328125 5.515625 27.984375 
Q 5.515625 40.671875 11.671875 48.328125 
Q 17.828125 56 27.875 56 
Q 33.9375 56 38.28125 53.609375 
Q 42.625 51.21875 45.40625 46.390625 
L 45.40625 54.6875 
L 54.390625 54.6875 
z
" id="DejaVuSans-67"/>
       <path d="M 12.5 -9.28125 
L 15.921875 -9.28125 
Q 22.75 -9.28125 24.828125 -7.171875 
Q 26.90625 -5.078125 26.90625 1.90625 
L 26.90625 14.015625 
Q 26.90625 21.625 29.09375 25.09375 
Q 31.296875 28.5625 36.71875 29.890625 
Q 31.296875 31.109375 29.09375 34.5625 
Q 26.90625 38.03125 26.90625 45.703125 
L 26.90625 57.8125 
Q 26.90625 64.75 24.828125 66.875 
Q 22.75 69 15.921875 69 
L 12.5 69 
L 12.5 75.984375 
L 15.578125 75.984375 
Q 27.734375 75.984375 31.8125 72.390625 
Q 35.890625 68.796875 35.890625 58.015625 
L 35.890625 46.296875 
Q 35.890625 39.015625 38.515625 36.203125 
Q 41.15625 33.40625 48.09375 33.40625 
L 51.125 33.40625 
L 51.125 26.421875 
L 48.09375 26.421875 
Q 41.15625 26.421875 38.515625 23.578125 
Q 35.890625 20.75 35.890625 13.375 
L 35.890625 1.703125 
Q 35.890625 -9.078125 31.8125 -12.6875 
Q 27.734375 -16.3125 15.578125 -16.3125 
L 12.5 -16.3125 
z
" id="DejaVuSans-7d"/>
      </defs>
      <g transform="translate(47.540375 673.796875)rotate(-90)scale(0.1 -0.1)">
       <use xlink:href="#DejaVuSans-7b"/>
       <use x="63.623047" xlink:href="#DejaVuSans-63"/>
       <use x="118.603516" xlink:href="#DejaVuSans-6c"/>
       <use x="146.386719" xlink:href="#DejaVuSans-69"/>
       <use x="174.169922" xlink:href="#DejaVuSans-6d"/>
       <use x="271.582031" xlink:href="#DejaVuSans-61"/>
       <use x="332.861328" xlink:href="#DejaVuSans-74"/>
       <use x="372.070312" xlink:href="#DejaVuSans-2c"/>
       <use x="403.857422" xlink:href="#DejaVuSans-20"/>
       <use x="435.644531" xlink:href="#DejaVuSans-63"/>
       <use x="490.625" xlink:href="#DejaVuSans-68"/>
       <use x="554.003906" xlink:href="#DejaVuSans-61"/>
       <use x="615.283203" xlink:href="#DejaVuSans-6e"/>
       <use x="678.662109" xlink:href="#DejaVuSans-67"/>
       <use x="742.138672" xlink:href="#DejaVuSans-2c"/>
       <use x="773.925781" xlink:href="#DejaVuSans-20"/>
       <use x="805.712891" xlink:href="#DejaVuSans-6d"/>
       <use x="903.125" xlink:href="#DejaVuSans-69"/>
       <use x="930.908203" xlink:href="#DejaVuSans-74"/>
       <use x="970.117188" xlink:href="#DejaVuSans-69"/>
       <use x="997.900391" xlink:href="#DejaVuSans-67"/>
       <use x="1061.376953" xlink:href="#DejaVuSans-7d"/>
      </g>
     </g>
    </g>
    <g id="xtick_2">
     <g id="line2d_2">
      <g>
       <use style="stroke:#000000;stroke-width:0.8;" x="80.493" xlink:href="#m02412a16a2" y="554.3"/>
      </g>
     </g>
     <g id="text_2">
      <!-- {develop, sustain, plan} -->
      <defs>
       <path d="M 45.40625 46.390625 
L 45.40625 75.984375 
L 54.390625 75.984375 
L 54.390625 0 
L 45.40625 0 
L 45.40625 8.203125 
Q 42.578125 3.328125 38.25 0.953125 
Q 33.9375 -1.421875 27.875 -1.421875 
Q 17.96875 -1.421875 11.734375 6.484375 
Q 5.515625 14.40625 5.515625 27.296875 
Q 5.515625 40.1875 11.734375 48.09375 
Q 17.96875 56 27.875 56 
Q 33.9375 56 38.25 53.625 
Q 42.578125 51.265625 45.40625 46.390625 
M 14.796875 27.296875 
Q 14.796875 17.390625 18.875 11.75 
Q 22.953125 6.109375 30.078125 6.109375 
Q 37.203125 6.109375 41.296875 11.75 
Q 45.40625 17.390625 45.40625 27.296875 
Q 45.40625 37.203125 41.296875 42.84375 
Q 37.203125 48.484375 30.078125 48.484375 
Q 22.953125 48.484375 18.875 42.84375 
Q 14.796875 37.203125 14.796875 27.296875 
" id="DejaVuSans-64"/>
       <path d="M 56.203125 29.59375 
L 56.203125 25.203125 
L 14.890625 25.203125 
Q 15.484375 15.921875 20.484375 11.0625 
Q 25.484375 6.203125 34.421875 6.203125 
Q 39.59375 6.203125 44.453125 7.46875 
Q 49.3125 8.734375 54.109375 11.28125 
L 54.109375 2.78125 
Q 49.265625 0.734375 44.1875 -0.34375 
Q 39.109375 -1.421875 33.890625 -1.421875 
Q 20.796875 -1.421875 13.15625 6.1875 
Q 5.515625 13.8125 5.515625 26.8125 
Q 5.515625 40.234375 12.765625 48.109375 
Q 20.015625 56 32.328125 56 
Q 43.359375 56 49.78125 48.890625 
Q 56.203125 41.796875 56.203125 29.59375 
M 47.21875 32.234375 
Q 47.125 39.59375 43.09375 43.984375 
Q 39.0625 48.390625 32.421875 48.390625 
Q 24.90625 48.390625 20.390625 44.140625 
Q 15.875 39.890625 15.1875 32.171875 
z
" id="DejaVuSans-65"/>
       <path d="M 2.984375 54.6875 
L 12.5 54.6875 
L 29.59375 8.796875 
L 46.6875 54.6875 
L 56.203125 54.6875 
L 35.6875 0 
L 23.484375 0 
z
" id="DejaVuSans-76"/>
       <path d="M 30.609375 48.390625 
Q 23.390625 48.390625 19.1875 42.75 
Q 14.984375 37.109375 14.984375 27.296875 
Q 14.984375 17.484375 19.15625 11.84375 
Q 23.34375 6.203125 30.609375 6.203125 
Q 37.796875 6.203125 41.984375 11.859375 
Q 46.1875 17.53125 46.1875 27.296875 
Q 46.1875 37.015625 41.984375 42.703125 
Q 37.796875 48.390625 30.609375 48.390625 
M 30.609375 56 
Q 42.328125 56 49.015625 48.375 
Q 55.71875 40.765625 55.71875 27.296875 
Q 55.71875 13.875 49.015625 6.21875 
Q 42.328125 -1.421875 30.609375 -1.421875 
Q 18.84375 -1.421875 12.171875 6.21875 
Q 5.515625 13.875 5.515625 27.296875 
Q 5.515625 40.765625 12.171875 48.375 
Q 18.84375 56 30.609375 56 
" id="DejaVuSans-6f"/>
       <path d="M 18.109375 8.203125 
L 18.109375 -20.796875 
L 9.078125 -20.796875 
L 9.078125 54.6875 
L 18.109375 54.6875 
L 18.109375 46.390625 
Q 20.953125 51.265625 25.265625 53.625 
Q 29.59375 56 35.59375 56 
Q 45.5625 56 51.78125 48.09375 
Q 58.015625 40.1875 58.015625 27.296875 
Q 58.015625 14.40625 51.78125 6.484375 
Q 45.5625 -1.421875 35.59375 -1.421875 
Q 29.59375 -1.421875 25.265625 0.953125 
Q 20.953125 3.328125 18.109375 8.203125 
M 48.6875 27.296875 
Q 48.6875 37.203125 44.609375 42.84375 
Q 40.53125 48.484375 33.40625 48.484375 
Q 26.265625 48.484375 22.1875 42.84375 
Q 18.109375 37.203125 18.109375 27.296875 
Q 18.109375 17.390625 22.1875 11.75 
Q 26.265625 6.109375 33.40625 6.109375 
Q 40.53125 6.109375 44.609375 11.75 
Q 48.6875 17.390625 48.6875 27.296875 
" id="DejaVuSans-70"/>
       <path d="M 44.28125 53.078125 
L 44.28125 44.578125 
Q 40.484375 46.53125 36.375 47.5 
Q 32.28125 48.484375 27.875 48.484375 
Q 21.1875 48.484375 17.84375 46.4375 
Q 14.5 44.390625 14.5 40.28125 
Q 14.5 37.15625 16.890625 35.375 
Q 19.28125 33.59375 26.515625 31.984375 
L 29.59375 31.296875 
Q 39.15625 29.25 43.1875 25.515625 
Q 47.21875 21.78125 47.21875 15.09375 
Q 47.21875 7.46875 41.1875 3.015625 
Q 35.15625 -1.421875 24.609375 -1.421875 
Q 20.21875 -1.421875 15.453125 -0.5625 
Q 10.6875 0.296875 5.421875 2 
L 5.421875 11.28125 
Q 10.40625 8.6875 15.234375 7.390625 
Q 20.0625 6.109375 24.8125 6.109375 
Q 31.15625 6.109375 34.5625 8.28125 
Q 37.984375 10.453125 37.984375 14.40625 
Q 37.984375 18.0625 35.515625 20.015625 
Q 33.0625 21.96875 24.703125 23.78125 
L 21.578125 24.515625 
Q 13.234375 26.265625 9.515625 29.90625 
Q 5.8125 33.546875 5.8125 39.890625 
Q 5.8125 47.609375 11.28125 51.796875 
Q 16.75 56 26.8125 56 
Q 31.78125 56 36.171875 55.265625 
Q 40.578125 54.546875 44.28125 53.078125 
" id="DejaVuSans-73"/>
       <path d="M 8.5 21.578125 
L 8.5 54.6875 
L 17.484375 54.6875 
L 17.484375 21.921875 
Q 17.484375 14.15625 20.5 10.265625 
Q 23.53125 6.390625 29.59375 6.390625 
Q 36.859375 6.390625 41.078125 11.03125 
Q 45.3125 15.671875 45.3125 23.6875 
L 45.3125 54.6875 
L 54.296875 54.6875 
L 54.296875 0 
L 45.3125 0 
L 45.3125 8.40625 
Q 42.046875 3.421875 37.71875 1 
Q 33.40625 -1.421875 27.6875 -1.421875 
Q 18.265625 -1.421875 13.375 4.4375 
Q 8.5 10.296875 8.5 21.578125 
M 31.109375 56 
z
" id="DejaVuSans-75"/>
      </defs>
      <g transform="translate(83.252375 684.06875)rotate(-90)scale(0.1 -0.1)">
       <use xlink:href="#DejaVuSans-7b"/>
       <use x="63.623047" xlink:href="#DejaVuSans-64"/>
       <use x="127.099609" xlink:href="#DejaVuSans-65"/>
       <use x="188.623047" xlink:href="#DejaVuSans-76"/>
       <use x="247.802734" xlink:href="#DejaVuSans-65"/>
       <use x="309.326172" xlink:href="#DejaVuSans-6c"/>
       <use x="337.109375" xlink:href="#DejaVuSans-6f"/>
       <use x="398.291016" xlink:href="#DejaVuSans-70"/>
       <use x="461.767578" xlink:href="#DejaVuSans-2c"/>
       <use x="493.554688" xlink:href="#DejaVuSans-20"/>
       <use x="525.341797" xlink:href="#DejaVuSans-73"/>
       <use x="577.441406" xlink:href="#DejaVuSans-75"/>
       <use x="640.820312" xlink:href="#DejaVuSans-73"/>
       <use x="692.919922" xlink:href="#DejaVuSans-74"/>
       <use x="732.128906" xlink:href="#DejaVuSans-61"/>
       <use x="793.408203" xlink:href="#DejaVuSans-69"/>
       <use x="821.191406" xlink:href="#DejaVuSans-6e"/>
       <use x="884.570312" xlink:href="#DejaVuSans-2c"/>
       <use x="916.357422" xlink:href="#DejaVuSans-20"/>
       <use x="948.144531" xlink:href="#DejaVuSans-70"/>
       <use x="1011.621094" xlink:href="#DejaVuSans-6c"/>
       <use x="1039.404297" xlink:href="#DejaVuSans-61"/>
       <use x="1100.683594" xlink:href="#DejaVuSans-6e"/>
       <use x="1164.0625" xlink:href="#DejaVuSans-7d"/>
      </g>
     </g>
    </g>
    <g id="xtick_3">
     <g id="line2d_3">
      <g>
       <use style="stroke:#000000;stroke-width:0.8;" x="116.205" xlink:href="#m02412a16a2" y="554.3"/>
      </g>
     </g>
     <g id="text_3">
      <!-- {emiss, carbon, ghg} -->
      <defs>
       <path d="M 41.109375 46.296875 
Q 39.59375 47.171875 37.8125 47.578125 
Q 36.03125 48 33.890625 48 
Q 26.265625 48 22.1875 43.046875 
Q 18.109375 38.09375 18.109375 28.8125 
L 18.109375 0 
L 9.078125 0 
L 9.078125 54.6875 
L 18.109375 54.6875 
L 18.109375 46.1875 
Q 20.953125 51.171875 25.484375 53.578125 
Q 30.03125 56 36.53125 56 
Q 37.453125 56 38.578125 55.875 
Q 39.703125 55.765625 41.0625 55.515625 
z
" id="DejaVuSans-72"/>
       <path d="M 48.6875 27.296875 
Q 48.6875 37.203125 44.609375 42.84375 
Q 40.53125 48.484375 33.40625 48.484375 
Q 26.265625 48.484375 22.1875 42.84375 
Q 18.109375 37.203125 18.109375 27.296875 
Q 18.109375 17.390625 22.1875 11.75 
Q 26.265625 6.109375 33.40625 6.109375 
Q 40.53125 6.109375 44.609375 11.75 
Q 48.6875 17.390625 48.6875 27.296875 
M 18.109375 46.390625 
Q 20.953125 51.265625 25.265625 53.625 
Q 29.59375 56 35.59375 56 
Q 45.5625 56 51.78125 48.09375 
Q 58.015625 40.1875 58.015625 27.296875 
Q 58.015625 14.40625 51.78125 6.484375 
Q 45.5625 -1.421875 35.59375 -1.421875 
Q 29.59375 -1.421875 25.265625 0.953125 
Q 20.953125 3.328125 18.109375 8.203125 
L 18.109375 0 
L 9.078125 0 
L 9.078125 75.984375 
L 18.109375 75.984375 
z
" id="DejaVuSans-62"/>
      </defs>
      <g transform="translate(118.964375 669.404687)rotate(-90)scale(0.1 -0.1)">
       <use xlink:href="#DejaVuSans-7b"/>
       <use x="63.623047" xlink:href="#DejaVuSans-65"/>
       <use x="125.146484" xlink:href="#DejaVuSans-6d"/>
       <use x="222.558594" xlink:href="#DejaVuSans-69"/>
       <use x="250.341797" xlink:href="#DejaVuSans-73"/>
       <use x="302.441406" xlink:href="#DejaVuSans-73"/>
       <use x="354.541016" xlink:href="#DejaVuSans-2c"/>
       <use x="386.328125" xlink:href="#DejaVuSans-20"/>
       <use x="418.115234" xlink:href="#DejaVuSans-63"/>
       <use x="473.095703" xlink:href="#DejaVuSans-61"/>
       <use x="534.375" xlink:href="#DejaVuSans-72"/>
       <use x="575.488281" xlink:href="#DejaVuSans-62"/>
       <use x="638.964844" xlink:href="#DejaVuSans-6f"/>
       <use x="700.146484" xlink:href="#DejaVuSans-6e"/>
       <use x="763.525391" xlink:href="#DejaVuSans-2c"/>
       <use x="795.3125" xlink:href="#DejaVuSans-20"/>
       <use x="827.099609" xlink:href="#DejaVuSans-67"/>
       <use x="890.576172" xlink:href="#DejaVuSans-68"/>
       <use x="953.955078" xlink:href="#DejaVuSans-67"/>
       <use x="1017.431641" xlink:href="#DejaVuSans-7d"/>
      </g>
     </g>
    </g>
    <g id="xtick_4">
     <g id="line2d_4">
      <g>
       <use style="stroke:#000000;stroke-width:0.8;" x="151.917" xlink:href="#m02412a16a2" y="554.3"/>
      </g>
     </g>
     <g id="text_4">
      <!-- {urban, land, citi} -->
      <g transform="translate(154.676375 652.567187)rotate(-90)scale(0.1 -0.1)">
       <use xlink:href="#DejaVuSans-7b"/>
       <use x="63.623047" xlink:href="#DejaVuSans-75"/>
       <use x="127.001953" xlink:href="#DejaVuSans-72"/>
       <use x="168.115234" xlink:href="#DejaVuSans-62"/>
       <use x="231.591797" xlink:href="#DejaVuSans-61"/>
       <use x="292.871094" xlink:href="#DejaVuSans-6e"/>
       <use x="356.25" xlink:href="#DejaVuSans-2c"/>
       <use x="388.037109" xlink:href="#DejaVuSans-20"/>
       <use x="419.824219" xlink:href="#DejaVuSans-6c"/>
       <use x="447.607422" xlink:href="#DejaVuSans-61"/>
       <use x="508.886719" xlink:href="#DejaVuSans-6e"/>
       <use x="572.265625" xlink:href="#DejaVuSans-64"/>
       <use x="635.742188" xlink:href="#DejaVuSans-2c"/>
       <use x="667.529297" xlink:href="#DejaVuSans-20"/>
       <use x="699.316406" xlink:href="#DejaVuSans-63"/>
       <use x="754.296875" xlink:href="#DejaVuSans-69"/>
       <use x="782.080078" xlink:href="#DejaVuSans-74"/>
       <use x="821.289062" xlink:href="#DejaVuSans-69"/>
       <use x="849.072266" xlink:href="#DejaVuSans-7d"/>
      </g>
     </g>
    </g>
    <g id="xtick_5">
     <g id="line2d_5">
      <g>
       <use style="stroke:#000000;stroke-width:0.8;" x="187.629" xlink:href="#m02412a16a2" y="554.3"/>
      </g>
     </g>
     <g id="text_5">
      <!-- {polici, instrument, effect} -->
      <defs>
       <path d="M 37.109375 75.984375 
L 37.109375 68.5 
L 28.515625 68.5 
Q 23.6875 68.5 21.796875 66.546875 
Q 19.921875 64.59375 19.921875 59.515625 
L 19.921875 54.6875 
L 34.71875 54.6875 
L 34.71875 47.703125 
L 19.921875 47.703125 
L 19.921875 0 
L 10.890625 0 
L 10.890625 47.703125 
L 2.296875 47.703125 
L 2.296875 54.6875 
L 10.890625 54.6875 
L 10.890625 58.5 
Q 10.890625 67.625 15.140625 71.796875 
Q 19.390625 75.984375 28.609375 75.984375 
z
" id="DejaVuSans-66"/>
      </defs>
      <g transform="translate(190.388375 696.648438)rotate(-90)scale(0.1 -0.1)">
       <use xlink:href="#DejaVuSans-7b"/>
       <use x="63.623047" xlink:href="#DejaVuSans-70"/>
       <use x="127.099609" xlink:href="#DejaVuSans-6f"/>
       <use x="188.28125" xlink:href="#DejaVuSans-6c"/>
       <use x="216.064453" xlink:href="#DejaVuSans-69"/>
       <use x="243.847656" xlink:href="#DejaVuSans-63"/>
       <use x="298.828125" xlink:href="#DejaVuSans-69"/>
       <use x="326.611328" xlink:href="#DejaVuSans-2c"/>
       <use x="358.398438" xlink:href="#DejaVuSans-20"/>
       <use x="390.185547" xlink:href="#DejaVuSans-69"/>
       <use x="417.96875" xlink:href="#DejaVuSans-6e"/>
       <use x="481.347656" xlink:href="#DejaVuSans-73"/>
       <use x="533.447266" xlink:href="#DejaVuSans-74"/>
       <use x="572.65625" xlink:href="#DejaVuSans-72"/>
       <use x="613.769531" xlink:href="#DejaVuSans-75"/>
       <use x="677.148438" xlink:href="#DejaVuSans-6d"/>
       <use x="774.560547" xlink:href="#DejaVuSans-65"/>
       <use x="836.083984" xlink:href="#DejaVuSans-6e"/>
       <use x="899.462891" xlink:href="#DejaVuSans-74"/>
       <use x="938.671875" xlink:href="#DejaVuSans-2c"/>
       <use x="970.458984" xlink:href="#DejaVuSans-20"/>
       <use x="1002.246094" xlink:href="#DejaVuSans-65"/>
       <use x="1063.769531" xlink:href="#DejaVuSans-66"/>
       <use x="1098.974609" xlink:href="#DejaVuSans-66"/>
       <use x="1134.179688" xlink:href="#DejaVuSans-65"/>
       <use x="1195.703125" xlink:href="#DejaVuSans-63"/>
       <use x="1250.683594" xlink:href="#DejaVuSans-74"/>
       <use x="1289.892578" xlink:href="#DejaVuSans-7d"/>
      </g>
     </g>
    </g>
    <g id="xtick_6">
     <g id="line2d_6">
      <g>
       <use style="stroke:#000000;stroke-width:0.8;" x="223.341" xlink:href="#m02412a16a2" y="554.3"/>
      </g>
     </g>
     <g id="text_6">
      <!-- {air, pollut, qualiti} -->
      <defs>
       <path d="M 14.796875 27.296875 
Q 14.796875 17.390625 18.875 11.75 
Q 22.953125 6.109375 30.078125 6.109375 
Q 37.203125 6.109375 41.296875 11.75 
Q 45.40625 17.390625 45.40625 27.296875 
Q 45.40625 37.203125 41.296875 42.84375 
Q 37.203125 48.484375 30.078125 48.484375 
Q 22.953125 48.484375 18.875 42.84375 
Q 14.796875 37.203125 14.796875 27.296875 
M 45.40625 8.203125 
Q 42.578125 3.328125 38.25 0.953125 
Q 33.9375 -1.421875 27.875 -1.421875 
Q 17.96875 -1.421875 11.734375 6.484375 
Q 5.515625 14.40625 5.515625 27.296875 
Q 5.515625 40.1875 11.734375 48.09375 
Q 17.96875 56 27.875 56 
Q 33.9375 56 38.25 53.625 
Q 42.578125 51.265625 45.40625 46.390625 
L 45.40625 54.6875 
L 54.390625 54.6875 
L 54.390625 -20.796875 
L 45.40625 -20.796875 
z
" id="DejaVuSans-71"/>
      </defs>
      <g transform="translate(226.100375 659.104687)rotate(-90)scale(0.1 -0.1)">
       <use xlink:href="#DejaVuSans-7b"/>
       <use x="63.623047" xlink:href="#DejaVuSans-61"/>
       <use x="124.902344" xlink:href="#DejaVuSans-69"/>
       <use x="152.685547" xlink:href="#DejaVuSans-72"/>
       <use x="193.798828" xlink:href="#DejaVuSans-2c"/>
       <use x="225.585938" xlink:href="#DejaVuSans-20"/>
       <use x="257.373047" xlink:href="#DejaVuSans-70"/>
       <use x="320.849609" xlink:href="#DejaVuSans-6f"/>
       <use x="382.03125" xlink:href="#DejaVuSans-6c"/>
       <use x="409.814453" xlink:href="#DejaVuSans-6c"/>
       <use x="437.597656" xlink:href="#DejaVuSans-75"/>
       <use x="500.976562" xlink:href="#DejaVuSans-74"/>
       <use x="540.185547" xlink:href="#DejaVuSans-2c"/>
       <use x="571.972656" xlink:href="#DejaVuSans-20"/>
       <use x="603.759766" xlink:href="#DejaVuSans-71"/>
       <use x="667.236328" xlink:href="#DejaVuSans-75"/>
       <use x="730.615234" xlink:href="#DejaVuSans-61"/>
       <use x="791.894531" xlink:href="#DejaVuSans-6c"/>
       <use x="819.677734" xlink:href="#DejaVuSans-69"/>
       <use x="847.460938" xlink:href="#DejaVuSans-74"/>
       <use x="886.669922" xlink:href="#DejaVuSans-69"/>
       <use x="914.453125" xlink:href="#DejaVuSans-7d"/>
      </g>
     </g>
    </g>
    <g id="xtick_7">
     <g id="line2d_7">
      <g>
       <use style="stroke:#000000;stroke-width:0.8;" x="259.053" xlink:href="#m02412a16a2" y="554.3"/>
      </g>
     </g>
     <g id="text_7">
      <!-- {energi, build, consumpt} -->
      <g transform="translate(261.812375 692.71875)rotate(-90)scale(0.1 -0.1)">
       <use xlink:href="#DejaVuSans-7b"/>
       <use x="63.623047" xlink:href="#DejaVuSans-65"/>
       <use x="125.146484" xlink:href="#DejaVuSans-6e"/>
       <use x="188.525391" xlink:href="#DejaVuSans-65"/>
       <use x="250.048828" xlink:href="#DejaVuSans-72"/>
       <use x="291.146484" xlink:href="#DejaVuSans-67"/>
       <use x="354.623047" xlink:href="#DejaVuSans-69"/>
       <use x="382.40625" xlink:href="#DejaVuSans-2c"/>
       <use x="414.193359" xlink:href="#DejaVuSans-20"/>
       <use x="445.980469" xlink:href="#DejaVuSans-62"/>
       <use x="509.457031" xlink:href="#DejaVuSans-75"/>
       <use x="572.835938" xlink:href="#DejaVuSans-69"/>
       <use x="600.619141" xlink:href="#DejaVuSans-6c"/>
       <use x="628.402344" xlink:href="#DejaVuSans-64"/>
       <use x="691.878906" xlink:href="#DejaVuSans-2c"/>
       <use x="723.666016" xlink:href="#DejaVuSans-20"/>
       <use x="755.453125" xlink:href="#DejaVuSans-63"/>
       <use x="810.433594" xlink:href="#DejaVuSans-6f"/>
       <use x="871.615234" xlink:href="#DejaVuSans-6e"/>
       <use x="934.994141" xlink:href="#DejaVuSans-73"/>
       <use x="987.09375" xlink:href="#DejaVuSans-75"/>
       <use x="1050.472656" xlink:href="#DejaVuSans-6d"/>
       <use x="1147.884766" xlink:href="#DejaVuSans-70"/>
       <use x="1211.361328" xlink:href="#DejaVuSans-74"/>
       <use x="1250.570312" xlink:href="#DejaVuSans-7d"/>
      </g>
     </g>
    </g>
    <g id="xtick_8">
     <g id="line2d_8">
      <g>
       <use style="stroke:#000000;stroke-width:0.8;" x="294.765" xlink:href="#m02412a16a2" y="554.3"/>
      </g>
     </g>
     <g id="text_8">
      <!-- {transport, public, access} -->
      <g transform="translate(297.524375 696.728125)rotate(-90)scale(0.1 -0.1)">
       <use xlink:href="#DejaVuSans-7b"/>
       <use x="63.623047" xlink:href="#DejaVuSans-74"/>
       <use x="102.832031" xlink:href="#DejaVuSans-72"/>
       <use x="143.945312" xlink:href="#DejaVuSans-61"/>
       <use x="205.224609" xlink:href="#DejaVuSans-6e"/>
       <use x="268.603516" xlink:href="#DejaVuSans-73"/>
       <use x="320.703125" xlink:href="#DejaVuSans-70"/>
       <use x="384.179688" xlink:href="#DejaVuSans-6f"/>
       <use x="445.361328" xlink:href="#DejaVuSans-72"/>
       <use x="486.474609" xlink:href="#DejaVuSans-74"/>
       <use x="525.683594" xlink:href="#DejaVuSans-2c"/>
       <use x="557.470703" xlink:href="#DejaVuSans-20"/>
       <use x="589.257812" xlink:href="#DejaVuSans-70"/>
       <use x="652.734375" xlink:href="#DejaVuSans-75"/>
       <use x="716.113281" xlink:href="#DejaVuSans-62"/>
       <use x="779.589844" xlink:href="#DejaVuSans-6c"/>
       <use x="807.373047" xlink:href="#DejaVuSans-69"/>
       <use x="835.15625" xlink:href="#DejaVuSans-63"/>
       <use x="890.136719" xlink:href="#DejaVuSans-2c"/>
       <use x="921.923828" xlink:href="#DejaVuSans-20"/>
       <use x="953.710938" xlink:href="#DejaVuSans-61"/>
       <use x="1014.990234" xlink:href="#DejaVuSans-63"/>
       <use x="1069.970703" xlink:href="#DejaVuSans-63"/>
       <use x="1124.951172" xlink:href="#DejaVuSans-65"/>
       <use x="1186.474609" xlink:href="#DejaVuSans-73"/>
       <use x="1238.574219" xlink:href="#DejaVuSans-73"/>
       <use x="1290.673828" xlink:href="#DejaVuSans-7d"/>
      </g>
     </g>
    </g>
    <g id="xtick_9">
     <g id="line2d_9">
      <g>
       <use style="stroke:#000000;stroke-width:0.8;" x="330.477" xlink:href="#m02412a16a2" y="554.3"/>
      </g>
     </g>
     <g id="text_9">
      <!-- {activ, school, health} -->
      <g transform="translate(333.236375 674.696875)rotate(-90)scale(0.1 -0.1)">
       <use xlink:href="#DejaVuSans-7b"/>
       <use x="63.623047" xlink:href="#DejaVuSans-61"/>
       <use x="124.902344" xlink:href="#DejaVuSans-63"/>
       <use x="179.882812" xlink:href="#DejaVuSans-74"/>
       <use x="219.091797" xlink:href="#DejaVuSans-69"/>
       <use x="246.875" xlink:href="#DejaVuSans-76"/>
       <use x="306.054688" xlink:href="#DejaVuSans-2c"/>
       <use x="337.841797" xlink:href="#DejaVuSans-20"/>
       <use x="369.628906" xlink:href="#DejaVuSans-73"/>
       <use x="421.728516" xlink:href="#DejaVuSans-63"/>
       <use x="476.708984" xlink:href="#DejaVuSans-68"/>
       <use x="540.087891" xlink:href="#DejaVuSans-6f"/>
       <use x="601.269531" xlink:href="#DejaVuSans-6f"/>
       <use x="662.451172" xlink:href="#DejaVuSans-6c"/>
       <use x="690.234375" xlink:href="#DejaVuSans-2c"/>
       <use x="722.021484" xlink:href="#DejaVuSans-20"/>
       <use x="753.808594" xlink:href="#DejaVuSans-68"/>
       <use x="817.1875" xlink:href="#DejaVuSans-65"/>
       <use x="878.710938" xlink:href="#DejaVuSans-61"/>
       <use x="939.990234" xlink:href="#DejaVuSans-6c"/>
       <use x="967.773438" xlink:href="#DejaVuSans-74"/>
       <use x="1006.982422" xlink:href="#DejaVuSans-68"/>
       <use x="1070.361328" xlink:href="#DejaVuSans-7d"/>
      </g>
     </g>
    </g>
    <g id="xtick_10">
     <g id="line2d_10">
      <g>
       <use style="stroke:#000000;stroke-width:0.8;" x="366.189" xlink:href="#m02412a16a2" y="554.3"/>
      </g>
     </g>
     <g id="text_10">
      <!-- {wast, manag, solid} -->
      <defs>
       <path d="M 4.203125 54.6875 
L 13.1875 54.6875 
L 24.421875 12.015625 
L 35.59375 54.6875 
L 46.1875 54.6875 
L 57.421875 12.015625 
L 68.609375 54.6875 
L 77.59375 54.6875 
L 63.28125 0 
L 52.6875 0 
L 40.921875 44.828125 
L 29.109375 0 
L 18.5 0 
z
" id="DejaVuSans-77"/>
      </defs>
      <g transform="translate(368.948375 668.089062)rotate(-90)scale(0.1 -0.1)">
       <use xlink:href="#DejaVuSans-7b"/>
       <use x="63.623047" xlink:href="#DejaVuSans-77"/>
       <use x="145.410156" xlink:href="#DejaVuSans-61"/>
       <use x="206.689453" xlink:href="#DejaVuSans-73"/>
       <use x="258.789062" xlink:href="#DejaVuSans-74"/>
       <use x="297.998047" xlink:href="#DejaVuSans-2c"/>
       <use x="329.785156" xlink:href="#DejaVuSans-20"/>
       <use x="361.572266" xlink:href="#DejaVuSans-6d"/>
       <use x="458.984375" xlink:href="#DejaVuSans-61"/>
       <use x="520.263672" xlink:href="#DejaVuSans-6e"/>
       <use x="583.642578" xlink:href="#DejaVuSans-61"/>
       <use x="644.921875" xlink:href="#DejaVuSans-67"/>
       <use x="708.398438" xlink:href="#DejaVuSans-2c"/>
       <use x="740.185547" xlink:href="#DejaVuSans-20"/>
       <use x="771.972656" xlink:href="#DejaVuSans-73"/>
       <use x="824.072266" xlink:href="#DejaVuSans-6f"/>
       <use x="885.253906" xlink:href="#DejaVuSans-6c"/>
       <use x="913.037109" xlink:href="#DejaVuSans-69"/>
       <use x="940.820312" xlink:href="#DejaVuSans-64"/>
       <use x="1004.296875" xlink:href="#DejaVuSans-7d"/>
      </g>
     </g>
    </g>
    <g id="xtick_11">
     <g id="line2d_11">
      <g>
       <use style="stroke:#000000;stroke-width:0.8;" x="401.901" xlink:href="#m02412a16a2" y="554.3"/>
      </g>
     </g>
     <g id="text_11">
      <!-- {travel, mode, choic} -->
      <g transform="translate(404.660375 670.339062)rotate(-90)scale(0.1 -0.1)">
       <use xlink:href="#DejaVuSans-7b"/>
       <use x="63.623047" xlink:href="#DejaVuSans-74"/>
       <use x="102.832031" xlink:href="#DejaVuSans-72"/>
       <use x="143.945312" xlink:href="#DejaVuSans-61"/>
       <use x="205.224609" xlink:href="#DejaVuSans-76"/>
       <use x="264.404297" xlink:href="#DejaVuSans-65"/>
       <use x="325.927734" xlink:href="#DejaVuSans-6c"/>
       <use x="353.710938" xlink:href="#DejaVuSans-2c"/>
       <use x="385.498047" xlink:href="#DejaVuSans-20"/>
       <use x="417.285156" xlink:href="#DejaVuSans-6d"/>
       <use x="514.697266" xlink:href="#DejaVuSans-6f"/>
       <use x="575.878906" xlink:href="#DejaVuSans-64"/>
       <use x="639.355469" xlink:href="#DejaVuSans-65"/>
       <use x="700.878906" xlink:href="#DejaVuSans-2c"/>
       <use x="732.666016" xlink:href="#DejaVuSans-20"/>
       <use x="764.453125" xlink:href="#DejaVuSans-63"/>
       <use x="819.433594" xlink:href="#DejaVuSans-68"/>
       <use x="882.8125" xlink:href="#DejaVuSans-6f"/>
       <use x="943.994141" xlink:href="#DejaVuSans-69"/>
       <use x="971.777344" xlink:href="#DejaVuSans-63"/>
       <use x="1026.757812" xlink:href="#DejaVuSans-7d"/>
      </g>
     </g>
    </g>
    <g id="xtick_12">
     <g id="line2d_12">
      <g>
       <use style="stroke:#000000;stroke-width:0.8;" x="437.613" xlink:href="#m02412a16a2" y="554.3"/>
      </g>
     </g>
     <g id="text_12">
      <!-- {model, network, optim} -->
      <defs>
       <path d="M 9.078125 75.984375 
L 18.109375 75.984375 
L 18.109375 31.109375 
L 44.921875 54.6875 
L 56.390625 54.6875 
L 27.390625 29.109375 
L 57.625 0 
L 45.90625 0 
L 18.109375 26.703125 
L 18.109375 0 
L 9.078125 0 
z
" id="DejaVuSans-6b"/>
      </defs>
      <g transform="translate(440.372375 687.392187)rotate(-90)scale(0.1 -0.1)">
       <use xlink:href="#DejaVuSans-7b"/>
       <use x="63.623047" xlink:href="#DejaVuSans-6d"/>
       <use x="161.035156" xlink:href="#DejaVuSans-6f"/>
       <use x="222.216797" xlink:href="#DejaVuSans-64"/>
       <use x="285.693359" xlink:href="#DejaVuSans-65"/>
       <use x="347.216797" xlink:href="#DejaVuSans-6c"/>
       <use x="375" xlink:href="#DejaVuSans-2c"/>
       <use x="406.787109" xlink:href="#DejaVuSans-20"/>
       <use x="438.574219" xlink:href="#DejaVuSans-6e"/>
       <use x="501.953125" xlink:href="#DejaVuSans-65"/>
       <use x="563.476562" xlink:href="#DejaVuSans-74"/>
       <use x="602.685547" xlink:href="#DejaVuSans-77"/>
       <use x="684.472656" xlink:href="#DejaVuSans-6f"/>
       <use x="745.654297" xlink:href="#DejaVuSans-72"/>
       <use x="786.767578" xlink:href="#DejaVuSans-6b"/>
       <use x="844.677734" xlink:href="#DejaVuSans-2c"/>
       <use x="876.464844" xlink:href="#DejaVuSans-20"/>
       <use x="908.251953" xlink:href="#DejaVuSans-6f"/>
       <use x="969.433594" xlink:href="#DejaVuSans-70"/>
       <use x="1032.910156" xlink:href="#DejaVuSans-74"/>
       <use x="1072.119141" xlink:href="#DejaVuSans-69"/>
       <use x="1099.902344" xlink:href="#DejaVuSans-6d"/>
       <use x="1197.314453" xlink:href="#DejaVuSans-7d"/>
      </g>
     </g>
    </g>
    <g id="xtick_13">
     <g id="line2d_13">
      <g>
       <use style="stroke:#000000;stroke-width:0.8;" x="473.325" xlink:href="#m02412a16a2" y="554.3"/>
      </g>
     </g>
     <g id="text_13">
      <!-- {price, congest, road} -->
      <g transform="translate(476.084375 673.915625)rotate(-90)scale(0.1 -0.1)">
       <use xlink:href="#DejaVuSans-7b"/>
       <use x="63.623047" xlink:href="#DejaVuSans-70"/>
       <use x="127.099609" xlink:href="#DejaVuSans-72"/>
       <use x="168.212891" xlink:href="#DejaVuSans-69"/>
       <use x="195.996094" xlink:href="#DejaVuSans-63"/>
       <use x="250.976562" xlink:href="#DejaVuSans-65"/>
       <use x="312.5" xlink:href="#DejaVuSans-2c"/>
       <use x="344.287109" xlink:href="#DejaVuSans-20"/>
       <use x="376.074219" xlink:href="#DejaVuSans-63"/>
       <use x="431.054688" xlink:href="#DejaVuSans-6f"/>
       <use x="492.236328" xlink:href="#DejaVuSans-6e"/>
       <use x="555.615234" xlink:href="#DejaVuSans-67"/>
       <use x="619.091797" xlink:href="#DejaVuSans-65"/>
       <use x="680.615234" xlink:href="#DejaVuSans-73"/>
       <use x="732.714844" xlink:href="#DejaVuSans-74"/>
       <use x="771.923828" xlink:href="#DejaVuSans-2c"/>
       <use x="803.710938" xlink:href="#DejaVuSans-20"/>
       <use x="835.498047" xlink:href="#DejaVuSans-72"/>
       <use x="876.580078" xlink:href="#DejaVuSans-6f"/>
       <use x="937.761719" xlink:href="#DejaVuSans-61"/>
       <use x="999.041016" xlink:href="#DejaVuSans-64"/>
       <use x="1062.517578" xlink:href="#DejaVuSans-7d"/>
      </g>
     </g>
    </g>
    <g id="xtick_14">
     <g id="line2d_14">
      <g>
       <use style="stroke:#000000;stroke-width:0.8;" x="509.037" xlink:href="#m02412a16a2" y="554.3"/>
      </g>
     </g>
     <g id="text_14">
      <!-- {heat, thermal, comfort} -->
      <g transform="translate(511.796375 687.471875)rotate(-90)scale(0.1 -0.1)">
       <use xlink:href="#DejaVuSans-7b"/>
       <use x="63.623047" xlink:href="#DejaVuSans-68"/>
       <use x="127.001953" xlink:href="#DejaVuSans-65"/>
       <use x="188.525391" xlink:href="#DejaVuSans-61"/>
       <use x="249.804688" xlink:href="#DejaVuSans-74"/>
       <use x="289.013672" xlink:href="#DejaVuSans-2c"/>
       <use x="320.800781" xlink:href="#DejaVuSans-20"/>
       <use x="352.587891" xlink:href="#DejaVuSans-74"/>
       <use x="391.796875" xlink:href="#DejaVuSans-68"/>
       <use x="455.175781" xlink:href="#DejaVuSans-65"/>
       <use x="516.699219" xlink:href="#DejaVuSans-72"/>
       <use x="557.796875" xlink:href="#DejaVuSans-6d"/>
       <use x="655.208984" xlink:href="#DejaVuSans-61"/>
       <use x="716.488281" xlink:href="#DejaVuSans-6c"/>
       <use x="744.271484" xlink:href="#DejaVuSans-2c"/>
       <use x="776.058594" xlink:href="#DejaVuSans-20"/>
       <use x="807.845703" xlink:href="#DejaVuSans-63"/>
       <use x="862.826172" xlink:href="#DejaVuSans-6f"/>
       <use x="924.007812" xlink:href="#DejaVuSans-6d"/>
       <use x="1021.419922" xlink:href="#DejaVuSans-66"/>
       <use x="1056.625" xlink:href="#DejaVuSans-6f"/>
       <use x="1117.806641" xlink:href="#DejaVuSans-72"/>
       <use x="1158.919922" xlink:href="#DejaVuSans-74"/>
       <use x="1198.128906" xlink:href="#DejaVuSans-7d"/>
      </g>
     </g>
    </g>
    <g id="xtick_15">
     <g id="line2d_15">
      <g>
       <use style="stroke:#000000;stroke-width:0.8;" x="544.749" xlink:href="#m02412a16a2" y="554.3"/>
      </g>
     </g>
     <g id="text_15">
      <!-- {vehicl, electr, charg} -->
      <g transform="translate(547.508375 673.2375)rotate(-90)scale(0.1 -0.1)">
       <use xlink:href="#DejaVuSans-7b"/>
       <use x="63.623047" xlink:href="#DejaVuSans-76"/>
       <use x="122.802734" xlink:href="#DejaVuSans-65"/>
       <use x="184.326172" xlink:href="#DejaVuSans-68"/>
       <use x="247.705078" xlink:href="#DejaVuSans-69"/>
       <use x="275.488281" xlink:href="#DejaVuSans-63"/>
       <use x="330.46875" xlink:href="#DejaVuSans-6c"/>
       <use x="358.251953" xlink:href="#DejaVuSans-2c"/>
       <use x="390.039062" xlink:href="#DejaVuSans-20"/>
       <use x="421.826172" xlink:href="#DejaVuSans-65"/>
       <use x="483.349609" xlink:href="#DejaVuSans-6c"/>
       <use x="511.132812" xlink:href="#DejaVuSans-65"/>
       <use x="572.65625" xlink:href="#DejaVuSans-63"/>
       <use x="627.636719" xlink:href="#DejaVuSans-74"/>
       <use x="666.845703" xlink:href="#DejaVuSans-72"/>
       <use x="707.958984" xlink:href="#DejaVuSans-2c"/>
       <use x="739.746094" xlink:href="#DejaVuSans-20"/>
       <use x="771.533203" xlink:href="#DejaVuSans-63"/>
       <use x="826.513672" xlink:href="#DejaVuSans-68"/>
       <use x="889.892578" xlink:href="#DejaVuSans-61"/>
       <use x="951.171875" xlink:href="#DejaVuSans-72"/>
       <use x="992.269531" xlink:href="#DejaVuSans-67"/>
       <use x="1055.746094" xlink:href="#DejaVuSans-7d"/>
      </g>
     </g>
    </g>
    <g id="xtick_16">
     <g id="line2d_16">
      <g>
       <use style="stroke:#000000;stroke-width:0.8;" x="580.461" xlink:href="#m02412a16a2" y="554.3"/>
      </g>
     </g>
     <g id="text_16">
      <!-- {water, heat, suppli} -->
      <g transform="translate(583.220375 667.567187)rotate(-90)scale(0.1 -0.1)">
       <use xlink:href="#DejaVuSans-7b"/>
       <use x="63.623047" xlink:href="#DejaVuSans-77"/>
       <use x="145.410156" xlink:href="#DejaVuSans-61"/>
       <use x="206.689453" xlink:href="#DejaVuSans-74"/>
       <use x="245.898438" xlink:href="#DejaVuSans-65"/>
       <use x="307.421875" xlink:href="#DejaVuSans-72"/>
       <use x="348.535156" xlink:href="#DejaVuSans-2c"/>
       <use x="380.322266" xlink:href="#DejaVuSans-20"/>
       <use x="412.109375" xlink:href="#DejaVuSans-68"/>
       <use x="475.488281" xlink:href="#DejaVuSans-65"/>
       <use x="537.011719" xlink:href="#DejaVuSans-61"/>
       <use x="598.291016" xlink:href="#DejaVuSans-74"/>
       <use x="637.5" xlink:href="#DejaVuSans-2c"/>
       <use x="669.287109" xlink:href="#DejaVuSans-20"/>
       <use x="701.074219" xlink:href="#DejaVuSans-73"/>
       <use x="753.173828" xlink:href="#DejaVuSans-75"/>
       <use x="816.552734" xlink:href="#DejaVuSans-70"/>
       <use x="880.029297" xlink:href="#DejaVuSans-70"/>
       <use x="943.505859" xlink:href="#DejaVuSans-6c"/>
       <use x="971.289062" xlink:href="#DejaVuSans-69"/>
       <use x="999.072266" xlink:href="#DejaVuSans-7d"/>
      </g>
     </g>
    </g>
    <g id="xtick_17">
     <g id="line2d_17">
      <g>
       <use style="stroke:#000000;stroke-width:0.8;" x="616.173" xlink:href="#m02412a16a2" y="554.3"/>
      </g>
     </g>
     <g id="text_17">
      <!-- {transit, rail, station} -->
      <g transform="translate(618.932375 669.35)rotate(-90)scale(0.1 -0.1)">
       <use xlink:href="#DejaVuSans-7b"/>
       <use x="63.623047" xlink:href="#DejaVuSans-74"/>
       <use x="102.832031" xlink:href="#DejaVuSans-72"/>
       <use x="143.945312" xlink:href="#DejaVuSans-61"/>
       <use x="205.224609" xlink:href="#DejaVuSans-6e"/>
       <use x="268.603516" xlink:href="#DejaVuSans-73"/>
       <use x="320.703125" xlink:href="#DejaVuSans-69"/>
       <use x="348.486328" xlink:href="#DejaVuSans-74"/>
       <use x="387.695312" xlink:href="#DejaVuSans-2c"/>
       <use x="419.482422" xlink:href="#DejaVuSans-20"/>
       <use x="451.269531" xlink:href="#DejaVuSans-72"/>
       <use x="492.382812" xlink:href="#DejaVuSans-61"/>
       <use x="553.662109" xlink:href="#DejaVuSans-69"/>
       <use x="581.445312" xlink:href="#DejaVuSans-6c"/>
       <use x="609.228516" xlink:href="#DejaVuSans-2c"/>
       <use x="641.015625" xlink:href="#DejaVuSans-20"/>
       <use x="672.802734" xlink:href="#DejaVuSans-73"/>
       <use x="724.902344" xlink:href="#DejaVuSans-74"/>
       <use x="764.111328" xlink:href="#DejaVuSans-61"/>
       <use x="825.390625" xlink:href="#DejaVuSans-74"/>
       <use x="864.599609" xlink:href="#DejaVuSans-69"/>
       <use x="892.382812" xlink:href="#DejaVuSans-6f"/>
       <use x="953.564453" xlink:href="#DejaVuSans-6e"/>
       <use x="1016.943359" xlink:href="#DejaVuSans-7d"/>
      </g>
     </g>
    </g>
    <g id="xtick_18">
     <g id="line2d_18">
      <g>
       <use style="stroke:#000000;stroke-width:0.8;" x="651.885" xlink:href="#m02412a16a2" y="554.3"/>
      </g>
     </g>
     <g id="text_18">
      <!-- {bus, servic, oper} -->
      <g transform="translate(654.644375 657.032812)rotate(-90)scale(0.1 -0.1)">
       <use xlink:href="#DejaVuSans-7b"/>
       <use x="63.623047" xlink:href="#DejaVuSans-62"/>
       <use x="127.099609" xlink:href="#DejaVuSans-75"/>
       <use x="190.478516" xlink:href="#DejaVuSans-73"/>
       <use x="242.578125" xlink:href="#DejaVuSans-2c"/>
       <use x="274.365234" xlink:href="#DejaVuSans-20"/>
       <use x="306.152344" xlink:href="#DejaVuSans-73"/>
       <use x="358.251953" xlink:href="#DejaVuSans-65"/>
       <use x="419.775391" xlink:href="#DejaVuSans-72"/>
       <use x="460.888672" xlink:href="#DejaVuSans-76"/>
       <use x="520.068359" xlink:href="#DejaVuSans-69"/>
       <use x="547.851562" xlink:href="#DejaVuSans-63"/>
       <use x="602.832031" xlink:href="#DejaVuSans-2c"/>
       <use x="634.619141" xlink:href="#DejaVuSans-20"/>
       <use x="666.40625" xlink:href="#DejaVuSans-6f"/>
       <use x="727.587891" xlink:href="#DejaVuSans-70"/>
       <use x="791.064453" xlink:href="#DejaVuSans-65"/>
       <use x="852.587891" xlink:href="#DejaVuSans-72"/>
       <use x="893.701172" xlink:href="#DejaVuSans-7d"/>
      </g>
     </g>
    </g>
    <g id="xtick_19">
     <g id="line2d_19">
      <g>
       <use style="stroke:#000000;stroke-width:0.8;" x="687.597" xlink:href="#m02412a16a2" y="554.3"/>
      </g>
     </g>
     <g id="text_19">
      <!-- {green, build, roof} -->
      <g transform="translate(690.356375 660.29375)rotate(-90)scale(0.1 -0.1)">
       <use xlink:href="#DejaVuSans-7b"/>
       <use x="63.623047" xlink:href="#DejaVuSans-67"/>
       <use x="127.099609" xlink:href="#DejaVuSans-72"/>
       <use x="168.181641" xlink:href="#DejaVuSans-65"/>
       <use x="229.705078" xlink:href="#DejaVuSans-65"/>
       <use x="291.228516" xlink:href="#DejaVuSans-6e"/>
       <use x="354.607422" xlink:href="#DejaVuSans-2c"/>
       <use x="386.394531" xlink:href="#DejaVuSans-20"/>
       <use x="418.181641" xlink:href="#DejaVuSans-62"/>
       <use x="481.658203" xlink:href="#DejaVuSans-75"/>
       <use x="545.037109" xlink:href="#DejaVuSans-69"/>
       <use x="572.820312" xlink:href="#DejaVuSans-6c"/>
       <use x="600.603516" xlink:href="#DejaVuSans-64"/>
       <use x="664.080078" xlink:href="#DejaVuSans-2c"/>
       <use x="695.867188" xlink:href="#DejaVuSans-20"/>
       <use x="727.654297" xlink:href="#DejaVuSans-72"/>
       <use x="768.736328" xlink:href="#DejaVuSans-6f"/>
       <use x="829.917969" xlink:href="#DejaVuSans-6f"/>
       <use x="891.099609" xlink:href="#DejaVuSans-66"/>
       <use x="926.304688" xlink:href="#DejaVuSans-7d"/>
      </g>
     </g>
    </g>
    <g id="xtick_20">
     <g id="line2d_20">
      <g>
       <use style="stroke:#000000;stroke-width:0.8;" x="723.309" xlink:href="#m02412a16a2" y="554.3"/>
      </g>
     </g>
     <g id="text_20">
      <!-- {treatment, wastewat, plant} -->
      <g transform="translate(726.068375 710.446875)rotate(-90)scale(0.1 -0.1)">
       <use xlink:href="#DejaVuSans-7b"/>
       <use x="63.623047" xlink:href="#DejaVuSans-74"/>
       <use x="102.832031" xlink:href="#DejaVuSans-72"/>
       <use x="143.914062" xlink:href="#DejaVuSans-65"/>
       <use x="205.4375" xlink:href="#DejaVuSans-61"/>
       <use x="266.716797" xlink:href="#DejaVuSans-74"/>
       <use x="305.925781" xlink:href="#DejaVuSans-6d"/>
       <use x="403.337891" xlink:href="#DejaVuSans-65"/>
       <use x="464.861328" xlink:href="#DejaVuSans-6e"/>
       <use x="528.240234" xlink:href="#DejaVuSans-74"/>
       <use x="567.449219" xlink:href="#DejaVuSans-2c"/>
       <use x="599.236328" xlink:href="#DejaVuSans-20"/>
       <use x="631.023438" xlink:href="#DejaVuSans-77"/>
       <use x="712.810547" xlink:href="#DejaVuSans-61"/>
       <use x="774.089844" xlink:href="#DejaVuSans-73"/>
       <use x="826.189453" xlink:href="#DejaVuSans-74"/>
       <use x="865.398438" xlink:href="#DejaVuSans-65"/>
       <use x="926.921875" xlink:href="#DejaVuSans-77"/>
       <use x="1008.708984" xlink:href="#DejaVuSans-61"/>
       <use x="1069.988281" xlink:href="#DejaVuSans-74"/>
       <use x="1109.197266" xlink:href="#DejaVuSans-2c"/>
       <use x="1140.984375" xlink:href="#DejaVuSans-20"/>
       <use x="1172.771484" xlink:href="#DejaVuSans-70"/>
       <use x="1236.248047" xlink:href="#DejaVuSans-6c"/>
       <use x="1264.03125" xlink:href="#DejaVuSans-61"/>
       <use x="1325.310547" xlink:href="#DejaVuSans-6e"/>
       <use x="1388.689453" xlink:href="#DejaVuSans-74"/>
       <use x="1427.898438" xlink:href="#DejaVuSans-7d"/>
      </g>
     </g>
    </g>
    <g id="xtick_21">
     <g id="line2d_21">
      <g>
       <use style="stroke:#000000;stroke-width:0.8;" x="759.021" xlink:href="#m02412a16a2" y="554.3"/>
      </g>
     </g>
     <g id="text_21">
      <!-- {recycl, household, collect} -->
      <defs>
       <path d="M 32.171875 -5.078125 
Q 28.375 -14.84375 24.75 -17.8125 
Q 21.140625 -20.796875 15.09375 -20.796875 
L 7.90625 -20.796875 
L 7.90625 -13.28125 
L 13.1875 -13.28125 
Q 16.890625 -13.28125 18.9375 -11.515625 
Q 21 -9.765625 23.484375 -3.21875 
L 25.09375 0.875 
L 2.984375 54.6875 
L 12.5 54.6875 
L 29.59375 11.921875 
L 46.6875 54.6875 
L 56.203125 54.6875 
z
" id="DejaVuSans-79"/>
      </defs>
      <g transform="translate(761.780375 701.176562)rotate(-90)scale(0.1 -0.1)">
       <use xlink:href="#DejaVuSans-7b"/>
       <use x="63.623047" xlink:href="#DejaVuSans-72"/>
       <use x="104.705078" xlink:href="#DejaVuSans-65"/>
       <use x="166.228516" xlink:href="#DejaVuSans-63"/>
       <use x="221.208984" xlink:href="#DejaVuSans-79"/>
       <use x="280.388672" xlink:href="#DejaVuSans-63"/>
       <use x="335.369141" xlink:href="#DejaVuSans-6c"/>
       <use x="363.152344" xlink:href="#DejaVuSans-2c"/>
       <use x="394.939453" xlink:href="#DejaVuSans-20"/>
       <use x="426.726562" xlink:href="#DejaVuSans-68"/>
       <use x="490.105469" xlink:href="#DejaVuSans-6f"/>
       <use x="551.287109" xlink:href="#DejaVuSans-75"/>
       <use x="614.666016" xlink:href="#DejaVuSans-73"/>
       <use x="666.765625" xlink:href="#DejaVuSans-65"/>
       <use x="728.289062" xlink:href="#DejaVuSans-68"/>
       <use x="791.667969" xlink:href="#DejaVuSans-6f"/>
       <use x="852.849609" xlink:href="#DejaVuSans-6c"/>
       <use x="880.632812" xlink:href="#DejaVuSans-64"/>
       <use x="944.109375" xlink:href="#DejaVuSans-2c"/>
       <use x="975.896484" xlink:href="#DejaVuSans-20"/>
       <use x="1007.683594" xlink:href="#DejaVuSans-63"/>
       <use x="1062.664062" xlink:href="#DejaVuSans-6f"/>
       <use x="1123.845703" xlink:href="#DejaVuSans-6c"/>
       <use x="1151.628906" xlink:href="#DejaVuSans-6c"/>
       <use x="1179.412109" xlink:href="#DejaVuSans-65"/>
       <use x="1240.935547" xlink:href="#DejaVuSans-63"/>
       <use x="1295.916016" xlink:href="#DejaVuSans-74"/>
       <use x="1335.125" xlink:href="#DejaVuSans-7d"/>
      </g>
     </g>
    </g>
    <g id="xtick_22">
     <g id="line2d_22">
      <g>
       <use style="stroke:#000000;stroke-width:0.8;" x="794.733" xlink:href="#m02412a16a2" y="554.3"/>
      </g>
     </g>
     <g id="text_22">
      <!-- {bicycl, cycl, cyclist} -->
      <g transform="translate(797.492375 666.853125)rotate(-90)scale(0.1 -0.1)">
       <use xlink:href="#DejaVuSans-7b"/>
       <use x="63.623047" xlink:href="#DejaVuSans-62"/>
       <use x="127.099609" xlink:href="#DejaVuSans-69"/>
       <use x="154.882812" xlink:href="#DejaVuSans-63"/>
       <use x="209.863281" xlink:href="#DejaVuSans-79"/>
       <use x="269.042969" xlink:href="#DejaVuSans-63"/>
       <use x="324.023438" xlink:href="#DejaVuSans-6c"/>
       <use x="351.806641" xlink:href="#DejaVuSans-2c"/>
       <use x="383.59375" xlink:href="#DejaVuSans-20"/>
       <use x="415.380859" xlink:href="#DejaVuSans-63"/>
       <use x="470.361328" xlink:href="#DejaVuSans-79"/>
       <use x="529.541016" xlink:href="#DejaVuSans-63"/>
       <use x="584.521484" xlink:href="#DejaVuSans-6c"/>
       <use x="612.304688" xlink:href="#DejaVuSans-2c"/>
       <use x="644.091797" xlink:href="#DejaVuSans-20"/>
       <use x="675.878906" xlink:href="#DejaVuSans-63"/>
       <use x="730.859375" xlink:href="#DejaVuSans-79"/>
       <use x="790.039062" xlink:href="#DejaVuSans-63"/>
       <use x="845.019531" xlink:href="#DejaVuSans-6c"/>
       <use x="872.802734" xlink:href="#DejaVuSans-69"/>
       <use x="900.585938" xlink:href="#DejaVuSans-73"/>
       <use x="952.685547" xlink:href="#DejaVuSans-74"/>
       <use x="991.894531" xlink:href="#DejaVuSans-7d"/>
      </g>
     </g>
    </g>
    <g id="xtick_23">
     <g id="line2d_23">
      <g>
       <use style="stroke:#000000;stroke-width:0.8;" x="830.445" xlink:href="#m02412a16a2" y="554.3"/>
      </g>
     </g>
     <g id="text_23">
      <!-- {toll, lane, link} -->
      <g transform="translate(833.204375 641.414062)rotate(-90)scale(0.1 -0.1)">
       <use xlink:href="#DejaVuSans-7b"/>
       <use x="63.623047" xlink:href="#DejaVuSans-74"/>
       <use x="102.832031" xlink:href="#DejaVuSans-6f"/>
       <use x="164.013672" xlink:href="#DejaVuSans-6c"/>
       <use x="191.796875" xlink:href="#DejaVuSans-6c"/>
       <use x="219.580078" xlink:href="#DejaVuSans-2c"/>
       <use x="251.367188" xlink:href="#DejaVuSans-20"/>
       <use x="283.154297" xlink:href="#DejaVuSans-6c"/>
       <use x="310.9375" xlink:href="#DejaVuSans-61"/>
       <use x="372.216797" xlink:href="#DejaVuSans-6e"/>
       <use x="435.595703" xlink:href="#DejaVuSans-65"/>
       <use x="497.119141" xlink:href="#DejaVuSans-2c"/>
       <use x="528.90625" xlink:href="#DejaVuSans-20"/>
       <use x="560.693359" xlink:href="#DejaVuSans-6c"/>
       <use x="588.476562" xlink:href="#DejaVuSans-69"/>
       <use x="616.259766" xlink:href="#DejaVuSans-6e"/>
       <use x="679.638672" xlink:href="#DejaVuSans-6b"/>
       <use x="737.548828" xlink:href="#DejaVuSans-7d"/>
      </g>
     </g>
    </g>
    <g id="xtick_24">
     <g id="line2d_24">
      <g>
       <use style="stroke:#000000;stroke-width:0.8;" x="866.157" xlink:href="#m02412a16a2" y="554.3"/>
      </g>
     </g>
     <g id="text_24">
      <!-- {brt, bus, system} -->
      <g transform="translate(868.916375 655.164062)rotate(-90)scale(0.1 -0.1)">
       <use xlink:href="#DejaVuSans-7b"/>
       <use x="63.623047" xlink:href="#DejaVuSans-62"/>
       <use x="127.099609" xlink:href="#DejaVuSans-72"/>
       <use x="168.212891" xlink:href="#DejaVuSans-74"/>
       <use x="207.421875" xlink:href="#DejaVuSans-2c"/>
       <use x="239.208984" xlink:href="#DejaVuSans-20"/>
       <use x="270.996094" xlink:href="#DejaVuSans-62"/>
       <use x="334.472656" xlink:href="#DejaVuSans-75"/>
       <use x="397.851562" xlink:href="#DejaVuSans-73"/>
       <use x="449.951172" xlink:href="#DejaVuSans-2c"/>
       <use x="481.738281" xlink:href="#DejaVuSans-20"/>
       <use x="513.525391" xlink:href="#DejaVuSans-73"/>
       <use x="565.625" xlink:href="#DejaVuSans-79"/>
       <use x="624.804688" xlink:href="#DejaVuSans-73"/>
       <use x="676.904297" xlink:href="#DejaVuSans-74"/>
       <use x="716.113281" xlink:href="#DejaVuSans-65"/>
       <use x="777.636719" xlink:href="#DejaVuSans-6d"/>
       <use x="875.048828" xlink:href="#DejaVuSans-7d"/>
      </g>
     </g>
    </g>
    <g id="xtick_25">
     <g id="line2d_25">
      <g>
       <use style="stroke:#000000;stroke-width:0.8;" x="901.869" xlink:href="#m02412a16a2" y="554.3"/>
      </g>
     </g>
     <g id="text_25">
      <!-- {park, space, price} -->
      <g transform="translate(904.628375 663.342187)rotate(-90)scale(0.1 -0.1)">
       <use xlink:href="#DejaVuSans-7b"/>
       <use x="63.623047" xlink:href="#DejaVuSans-70"/>
       <use x="127.099609" xlink:href="#DejaVuSans-61"/>
       <use x="188.378906" xlink:href="#DejaVuSans-72"/>
       <use x="229.492188" xlink:href="#DejaVuSans-6b"/>
       <use x="287.402344" xlink:href="#DejaVuSans-2c"/>
       <use x="319.189453" xlink:href="#DejaVuSans-20"/>
       <use x="350.976562" xlink:href="#DejaVuSans-73"/>
       <use x="403.076172" xlink:href="#DejaVuSans-70"/>
       <use x="466.552734" xlink:href="#DejaVuSans-61"/>
       <use x="527.832031" xlink:href="#DejaVuSans-63"/>
       <use x="582.8125" xlink:href="#DejaVuSans-65"/>
       <use x="644.335938" xlink:href="#DejaVuSans-2c"/>
       <use x="676.123047" xlink:href="#DejaVuSans-20"/>
       <use x="707.910156" xlink:href="#DejaVuSans-70"/>
       <use x="771.386719" xlink:href="#DejaVuSans-72"/>
       <use x="812.5" xlink:href="#DejaVuSans-69"/>
       <use x="840.283203" xlink:href="#DejaVuSans-63"/>
       <use x="895.263672" xlink:href="#DejaVuSans-65"/>
       <use x="956.787109" xlink:href="#DejaVuSans-7d"/>
      </g>
     </g>
    </g>
    <g id="text_26">
     <!-- Topic Title -->
     <defs>
      <path d="M -0.296875 72.90625 
L 61.375 72.90625 
L 61.375 64.59375 
L 35.5 64.59375 
L 35.5 0 
L 25.59375 0 
L 25.59375 64.59375 
L -0.296875 64.59375 
z
" id="DejaVuSans-54"/>
     </defs>
     <g transform="translate(447.457031 722.045312)scale(0.1 -0.1)">
      <use xlink:href="#DejaVuSans-54"/>
      <use x="60.818359" xlink:href="#DejaVuSans-6f"/>
      <use x="122" xlink:href="#DejaVuSans-70"/>
      <use x="185.476562" xlink:href="#DejaVuSans-69"/>
      <use x="213.259766" xlink:href="#DejaVuSans-63"/>
      <use x="268.240234" xlink:href="#DejaVuSans-20"/>
      <use x="300.027344" xlink:href="#DejaVuSans-54"/>
      <use x="361.064453" xlink:href="#DejaVuSans-69"/>
      <use x="388.847656" xlink:href="#DejaVuSans-74"/>
      <use x="428.056641" xlink:href="#DejaVuSans-6c"/>
      <use x="455.839844" xlink:href="#DejaVuSans-65"/>
     </g>
    </g>
   </g>
   <g id="matplotlib.axis_2">
    <g id="ytick_1">
     <g id="line2d_26">
      <defs>
       <path d="M 0 0 
L -3.5 0 
" id="mc9d9251d0b" style="stroke:#000000;stroke-width:0.8;"/>
      </defs>
      <g>
       <use style="stroke:#000000;stroke-width:0.8;" x="26.925" xlink:href="#mc9d9251d0b" y="554.3"/>
      </g>
     </g>
     <g id="text_27">
      <!-- 0 -->
      <defs>
       <path d="M 31.78125 66.40625 
Q 24.171875 66.40625 20.328125 58.90625 
Q 16.5 51.421875 16.5 36.375 
Q 16.5 21.390625 20.328125 13.890625 
Q 24.171875 6.390625 31.78125 6.390625 
Q 39.453125 6.390625 43.28125 13.890625 
Q 47.125 21.390625 47.125 36.375 
Q 47.125 51.421875 43.28125 58.90625 
Q 39.453125 66.40625 31.78125 66.40625 
M 31.78125 74.21875 
Q 44.046875 74.21875 50.515625 64.515625 
Q 56.984375 54.828125 56.984375 36.375 
Q 56.984375 17.96875 50.515625 8.265625 
Q 44.046875 -1.421875 31.78125 -1.421875 
Q 19.53125 -1.421875 13.0625 8.265625 
Q 6.59375 17.96875 6.59375 36.375 
Q 6.59375 54.828125 13.0625 64.515625 
Q 19.53125 74.21875 31.78125 74.21875 
" id="DejaVuSans-30"/>
      </defs>
      <g transform="translate(13.5625 558.099219)scale(0.1 -0.1)">
       <use xlink:href="#DejaVuSans-30"/>
      </g>
     </g>
    </g>
    <g id="ytick_2">
     <g id="line2d_27">
      <g>
       <use style="stroke:#000000;stroke-width:0.8;" x="26.925" xlink:href="#mc9d9251d0b" y="444.148024"/>
      </g>
     </g>
     <g id="text_28">
      <!-- 20 -->
      <defs>
       <path d="M 19.1875 8.296875 
L 53.609375 8.296875 
L 53.609375 0 
L 7.328125 0 
L 7.328125 8.296875 
Q 12.9375 14.109375 22.625 23.890625 
Q 32.328125 33.6875 34.8125 36.53125 
Q 39.546875 41.84375 41.421875 45.53125 
Q 43.3125 49.21875 43.3125 52.78125 
Q 43.3125 58.59375 39.234375 62.25 
Q 35.15625 65.921875 28.609375 65.921875 
Q 23.96875 65.921875 18.8125 64.3125 
Q 13.671875 62.703125 7.8125 59.421875 
L 7.8125 69.390625 
Q 13.765625 71.78125 18.9375 73 
Q 24.125 74.21875 28.421875 74.21875 
Q 39.75 74.21875 46.484375 68.546875 
Q 53.21875 62.890625 53.21875 53.421875 
Q 53.21875 48.921875 51.53125 44.890625 
Q 49.859375 40.875 45.40625 35.40625 
Q 44.1875 33.984375 37.640625 27.21875 
Q 31.109375 20.453125 19.1875 8.296875 
" id="DejaVuSans-32"/>
      </defs>
      <g transform="translate(7.2 447.947243)scale(0.1 -0.1)">
       <use xlink:href="#DejaVuSans-32"/>
       <use x="63.623047" xlink:href="#DejaVuSans-30"/>
      </g>
     </g>
    </g>
    <g id="ytick_3">
     <g id="line2d_28">
      <g>
       <use style="stroke:#000000;stroke-width:0.8;" x="26.925" xlink:href="#mc9d9251d0b" y="333.996049"/>
      </g>
     </g>
     <g id="text_29">
      <!-- 40 -->
      <defs>
       <path d="M 37.796875 64.3125 
L 12.890625 25.390625 
L 37.796875 25.390625 
z
M 35.203125 72.90625 
L 47.609375 72.90625 
L 47.609375 25.390625 
L 58.015625 25.390625 
L 58.015625 17.1875 
L 47.609375 17.1875 
L 47.609375 0 
L 37.796875 0 
L 37.796875 17.1875 
L 4.890625 17.1875 
L 4.890625 26.703125 
z
" id="DejaVuSans-34"/>
      </defs>
      <g transform="translate(7.2 337.795267)scale(0.1 -0.1)">
       <use xlink:href="#DejaVuSans-34"/>
       <use x="63.623047" xlink:href="#DejaVuSans-30"/>
      </g>
     </g>
    </g>
    <g id="ytick_4">
     <g id="line2d_29">
      <g>
       <use style="stroke:#000000;stroke-width:0.8;" x="26.925" xlink:href="#mc9d9251d0b" y="223.844073"/>
      </g>
     </g>
     <g id="text_30">
      <!-- 60 -->
      <defs>
       <path d="M 33.015625 40.375 
Q 26.375 40.375 22.484375 35.828125 
Q 18.609375 31.296875 18.609375 23.390625 
Q 18.609375 15.53125 22.484375 10.953125 
Q 26.375 6.390625 33.015625 6.390625 
Q 39.65625 6.390625 43.53125 10.953125 
Q 47.40625 15.53125 47.40625 23.390625 
Q 47.40625 31.296875 43.53125 35.828125 
Q 39.65625 40.375 33.015625 40.375 
M 52.59375 71.296875 
L 52.59375 62.3125 
Q 48.875 64.0625 45.09375 64.984375 
Q 41.3125 65.921875 37.59375 65.921875 
Q 27.828125 65.921875 22.671875 59.328125 
Q 17.53125 52.734375 16.796875 39.40625 
Q 19.671875 43.65625 24.015625 45.921875 
Q 28.375 48.1875 33.59375 48.1875 
Q 44.578125 48.1875 50.953125 41.515625 
Q 57.328125 34.859375 57.328125 23.390625 
Q 57.328125 12.15625 50.6875 5.359375 
Q 44.046875 -1.421875 33.015625 -1.421875 
Q 20.359375 -1.421875 13.671875 8.265625 
Q 6.984375 17.96875 6.984375 36.375 
Q 6.984375 53.65625 15.1875 63.9375 
Q 23.390625 74.21875 37.203125 74.21875 
Q 40.921875 74.21875 44.703125 73.484375 
Q 48.484375 72.75 52.59375 71.296875 
" id="DejaVuSans-36"/>
      </defs>
      <g transform="translate(7.2 227.643292)scale(0.1 -0.1)">
       <use xlink:href="#DejaVuSans-36"/>
       <use x="63.623047" xlink:href="#DejaVuSans-30"/>
      </g>
     </g>
    </g>
    <g id="ytick_5">
     <g id="line2d_30">
      <g>
       <use style="stroke:#000000;stroke-width:0.8;" x="26.925" xlink:href="#mc9d9251d0b" y="113.692097"/>
      </g>
     </g>
     <g id="text_31">
      <!-- 80 -->
      <defs>
       <path d="M 31.78125 34.625 
Q 24.75 34.625 20.71875 30.859375 
Q 16.703125 27.09375 16.703125 20.515625 
Q 16.703125 13.921875 20.71875 10.15625 
Q 24.75 6.390625 31.78125 6.390625 
Q 38.8125 6.390625 42.859375 10.171875 
Q 46.921875 13.96875 46.921875 20.515625 
Q 46.921875 27.09375 42.890625 30.859375 
Q 38.875 34.625 31.78125 34.625 
M 21.921875 38.8125 
Q 15.578125 40.375 12.03125 44.71875 
Q 8.5 49.078125 8.5 55.328125 
Q 8.5 64.0625 14.71875 69.140625 
Q 20.953125 74.21875 31.78125 74.21875 
Q 42.671875 74.21875 48.875 69.140625 
Q 55.078125 64.0625 55.078125 55.328125 
Q 55.078125 49.078125 51.53125 44.71875 
Q 48 40.375 41.703125 38.8125 
Q 48.828125 37.15625 52.796875 32.3125 
Q 56.78125 27.484375 56.78125 20.515625 
Q 56.78125 9.90625 50.3125 4.234375 
Q 43.84375 -1.421875 31.78125 -1.421875 
Q 19.734375 -1.421875 13.25 4.234375 
Q 6.78125 9.90625 6.78125 20.515625 
Q 6.78125 27.484375 10.78125 32.3125 
Q 14.796875 37.15625 21.921875 38.8125 
M 18.3125 54.390625 
Q 18.3125 48.734375 21.84375 45.5625 
Q 25.390625 42.390625 31.78125 42.390625 
Q 38.140625 42.390625 41.71875 45.5625 
Q 45.3125 48.734375 45.3125 54.390625 
Q 45.3125 60.0625 41.71875 63.234375 
Q 38.140625 66.40625 31.78125 66.40625 
Q 25.390625 66.40625 21.84375 63.234375 
Q 18.3125 60.0625 18.3125 54.390625 
" id="DejaVuSans-38"/>
      </defs>
      <g transform="translate(7.2 117.491316)scale(0.1 -0.1)">
       <use xlink:href="#DejaVuSans-38"/>
       <use x="63.623047" xlink:href="#DejaVuSans-30"/>
      </g>
     </g>
    </g>
   </g>
   <g id="patch_28">
    <path d="M 26.925 554.3 
L 26.925 10.7 
" style="fill:none;stroke:#000000;stroke-linecap:square;stroke-linejoin:miter;stroke-width:0.8;"/>
   </g>
   <g id="patch_29">
    <path d="M 919.725 554.3 
L 919.725 10.7 
" style="fill:none;stroke:#000000;stroke-linecap:square;stroke-linejoin:miter;stroke-width:0.8;"/>
   </g>
   <g id="patch_30">
    <path d="M 26.925 554.3 
L 919.725 554.3 
" style="fill:none;stroke:#000000;stroke-linecap:square;stroke-linejoin:miter;stroke-width:0.8;"/>
   </g>
   <g id="patch_31">
    <path d="M 26.925 10.7 
L 919.725 10.7 
" style="fill:none;stroke:#000000;stroke-linecap:square;stroke-linejoin:miter;stroke-width:0.8;"/>
   </g>
   <g id="legend_1">
    <g id="patch_32">
     <path d="M 860.601562 33.378125 
L 912.725 33.378125 
Q 914.725 33.378125 914.725 31.378125 
L 914.725 17.7 
Q 914.725 15.7 912.725 15.7 
L 860.601562 15.7 
Q 858.601562 15.7 858.601562 17.7 
L 858.601562 31.378125 
Q 858.601562 33.378125 860.601562 33.378125 
z
" style="fill:#ffffff;opacity:0.8;stroke:#cccccc;stroke-linejoin:miter;"/>
    </g>
    <g id="patch_33">
     <path d="M 862.601562 27.298437 
L 882.601562 27.298437 
L 882.601562 20.298437 
L 862.601562 20.298437 
z
" style="fill:#1f77b4;"/>
    </g>
    <g id="text_32">
     <!-- ipcc -->
     <g transform="translate(890.601562 27.298437)scale(0.1 -0.1)">
      <use xlink:href="#DejaVuSans-69"/>
      <use x="27.783203" xlink:href="#DejaVuSans-70"/>
      <use x="91.259766" xlink:href="#DejaVuSans-63"/>
      <use x="146.240234" xlink:href="#DejaVuSans-63"/>
     </g>
    </g>
   </g>
  </g>
 </g>
 <defs>
  <clipPath id="p6cf6cffb38">
   <rect height="543.6" width="892.8" x="26.925" y="10.7"/>
  </clipPath>
 </defs>
</svg>
