<?xml version="1.0" encoding="utf-8" standalone="no"?>
<!DOCTYPE svg PUBLIC "-//W3C//DTD SVG 1.1//EN"
  "http://www.w3.org/Graphics/SVG/1.1/DTD/svg11.dtd">
<!-- Created with matplotlib (http://matplotlib.org/) -->
<svg height="750pt" version="1.1" viewBox="0 0 936 750" width="936pt" xmlns="http://www.w3.org/2000/svg" xmlns:xlink="http://www.w3.org/1999/xlink">
 <defs>
  <style type="text/css">
*{stroke-linecap:butt;stroke-linejoin:round;}
  </style>
 </defs>
 <g id="figure_1">
  <g id="patch_1">
   <path d="M 0 750.092188 
L 936.7875 750.092188 
L 936.7875 0 
L 0 0 
z
" style="fill:#ffffff;"/>
  </g>
  <g id="axes_1">
   <g id="patch_2">
    <path d="M 33.2875 554.3 
L 926.0875 554.3 
L 926.0875 10.7 
L 33.2875 10.7 
z
" style="fill:#ffffff;"/>
   </g>
   <g id="patch_3">
    <path clip-path="url(#pe0c8ac1a48)" d="M 41.554167 554.3 
L 58.0875 554.3 
L 58.0875 36.585714 
L 41.554167 36.585714 
z
" style="fill:#1f77b4;"/>
   </g>
   <g id="patch_4">
    <path clip-path="url(#pe0c8ac1a48)" d="M 74.620833 554.3 
L 91.154167 554.3 
L 91.154167 41.379365 
L 74.620833 41.379365 
z
" style="fill:#1f77b4;"/>
   </g>
   <g id="patch_5">
    <path clip-path="url(#pe0c8ac1a48)" d="M 107.6875 554.3 
L 124.220833 554.3 
L 124.220833 84.522222 
L 107.6875 84.522222 
z
" style="fill:#1f77b4;"/>
   </g>
   <g id="patch_6">
    <path clip-path="url(#pe0c8ac1a48)" d="M 140.754167 554.3 
L 157.2875 554.3 
L 157.2875 213.950794 
L 140.754167 213.950794 
z
" style="fill:#1f77b4;"/>
   </g>
   <g id="patch_7">
    <path clip-path="url(#pe0c8ac1a48)" d="M 173.820833 554.3 
L 190.354167 554.3 
L 190.354167 228.331746 
L 173.820833 228.331746 
z
" style="fill:#1f77b4;"/>
   </g>
   <g id="patch_8">
    <path clip-path="url(#pe0c8ac1a48)" d="M 206.8875 554.3 
L 223.420833 554.3 
L 223.420833 266.680952 
L 206.8875 266.680952 
z
" style="fill:#1f77b4;"/>
   </g>
   <g id="patch_9">
    <path clip-path="url(#pe0c8ac1a48)" d="M 239.954167 554.3 
L 256.4875 554.3 
L 256.4875 314.61746 
L 239.954167 314.61746 
z
" style="fill:#1f77b4;"/>
   </g>
   <g id="patch_10">
    <path clip-path="url(#pe0c8ac1a48)" d="M 273.020833 554.3 
L 289.554167 554.3 
L 289.554167 352.966667 
L 273.020833 352.966667 
z
" style="fill:#1f77b4;"/>
   </g>
   <g id="patch_11">
    <path clip-path="url(#pe0c8ac1a48)" d="M 306.0875 554.3 
L 322.620833 554.3 
L 322.620833 352.966667 
L 306.0875 352.966667 
z
" style="fill:#1f77b4;"/>
   </g>
   <g id="patch_12">
    <path clip-path="url(#pe0c8ac1a48)" d="M 339.154167 554.3 
L 355.6875 554.3 
L 355.6875 391.315873 
L 339.154167 391.315873 
z
" style="fill:#1f77b4;"/>
   </g>
   <g id="patch_13">
    <path clip-path="url(#pe0c8ac1a48)" d="M 372.220833 554.3 
L 388.754167 554.3 
L 388.754167 396.109524 
L 372.220833 396.109524 
z
" style="fill:#1f77b4;"/>
   </g>
   <g id="patch_14">
    <path clip-path="url(#pe0c8ac1a48)" d="M 405.2875 554.3 
L 421.820833 554.3 
L 421.820833 405.696825 
L 405.2875 405.696825 
z
" style="fill:#1f77b4;"/>
   </g>
   <g id="patch_15">
    <path clip-path="url(#pe0c8ac1a48)" d="M 438.354167 554.3 
L 454.8875 554.3 
L 454.8875 415.284127 
L 438.354167 415.284127 
z
" style="fill:#1f77b4;"/>
   </g>
   <g id="patch_16">
    <path clip-path="url(#pe0c8ac1a48)" d="M 471.420833 554.3 
L 487.954167 554.3 
L 487.954167 420.077778 
L 471.420833 420.077778 
z
" style="fill:#1f77b4;"/>
   </g>
   <g id="patch_17">
    <path clip-path="url(#pe0c8ac1a48)" d="M 504.4875 554.3 
L 521.020833 554.3 
L 521.020833 429.665079 
L 504.4875 429.665079 
z
" style="fill:#1f77b4;"/>
   </g>
   <g id="patch_18">
    <path clip-path="url(#pe0c8ac1a48)" d="M 537.554167 554.3 
L 554.0875 554.3 
L 554.0875 444.046032 
L 537.554167 444.046032 
z
" style="fill:#1f77b4;"/>
   </g>
   <g id="patch_19">
    <path clip-path="url(#pe0c8ac1a48)" d="M 570.620833 554.3 
L 587.154167 554.3 
L 587.154167 453.633333 
L 570.620833 453.633333 
z
" style="fill:#1f77b4;"/>
   </g>
   <g id="patch_20">
    <path clip-path="url(#pe0c8ac1a48)" d="M 603.6875 554.3 
L 620.220833 554.3 
L 620.220833 468.014286 
L 603.6875 468.014286 
z
" style="fill:#1f77b4;"/>
   </g>
   <g id="patch_21">
    <path clip-path="url(#pe0c8ac1a48)" d="M 636.754167 554.3 
L 653.2875 554.3 
L 653.2875 482.395238 
L 636.754167 482.395238 
z
" style="fill:#1f77b4;"/>
   </g>
   <g id="patch_22">
    <path clip-path="url(#pe0c8ac1a48)" d="M 669.820833 554.3 
L 686.354167 554.3 
L 686.354167 491.98254 
L 669.820833 491.98254 
z
" style="fill:#1f77b4;"/>
   </g>
   <g id="patch_23">
    <path clip-path="url(#pe0c8ac1a48)" d="M 702.8875 554.3 
L 719.420833 554.3 
L 719.420833 491.98254 
L 702.8875 491.98254 
z
" style="fill:#1f77b4;"/>
   </g>
   <g id="patch_24">
    <path clip-path="url(#pe0c8ac1a48)" d="M 735.954167 554.3 
L 752.4875 554.3 
L 752.4875 501.569841 
L 735.954167 501.569841 
z
" style="fill:#1f77b4;"/>
   </g>
   <g id="patch_25">
    <path clip-path="url(#pe0c8ac1a48)" d="M 769.020833 554.3 
L 785.554167 554.3 
L 785.554167 515.950794 
L 769.020833 515.950794 
z
" style="fill:#1f77b4;"/>
   </g>
   <g id="patch_26">
    <path clip-path="url(#pe0c8ac1a48)" d="M 802.0875 554.3 
L 818.620833 554.3 
L 818.620833 525.538095 
L 802.0875 525.538095 
z
" style="fill:#1f77b4;"/>
   </g>
   <g id="patch_27">
    <path clip-path="url(#pe0c8ac1a48)" d="M 835.154167 554.3 
L 851.6875 554.3 
L 851.6875 525.538095 
L 835.154167 525.538095 
z
" style="fill:#1f77b4;"/>
   </g>
   <g id="patch_28">
    <path clip-path="url(#pe0c8ac1a48)" d="M 868.220833 554.3 
L 884.754167 554.3 
L 884.754167 535.125397 
L 868.220833 535.125397 
z
" style="fill:#1f77b4;"/>
   </g>
   <g id="patch_29">
    <path clip-path="url(#pe0c8ac1a48)" d="M 901.2875 554.3 
L 917.820833 554.3 
L 917.820833 554.3 
L 901.2875 554.3 
z
" style="fill:#1f77b4;"/>
   </g>
   <g id="matplotlib.axis_1">
    <g id="xtick_1">
     <g id="line2d_1">
      <defs>
       <path d="M 0 0 
L 0 3.5 
" id="m927b1319a2" style="stroke:#000000;stroke-width:0.8;"/>
      </defs>
      <g>
       <use style="stroke:#000000;stroke-width:0.8;" x="49.820833" xlink:href="#m927b1319a2" y="554.3"/>
      </g>
     </g>
     <g id="text_1">
      <!-- Planning &amp; governance -->
      <defs>
       <path d="M 19.671875 64.796875 
L 19.671875 37.40625 
L 32.078125 37.40625 
Q 38.96875 37.40625 42.71875 40.96875 
Q 46.484375 44.53125 46.484375 51.125 
Q 46.484375 57.671875 42.71875 61.234375 
Q 38.96875 64.796875 32.078125 64.796875 
z
M 9.8125 72.90625 
L 32.078125 72.90625 
Q 44.34375 72.90625 50.609375 67.359375 
Q 56.890625 61.8125 56.890625 51.125 
Q 56.890625 40.328125 50.609375 34.8125 
Q 44.34375 29.296875 32.078125 29.296875 
L 19.671875 29.296875 
L 19.671875 0 
L 9.8125 0 
z
" id="DejaVuSans-50"/>
       <path d="M 9.421875 75.984375 
L 18.40625 75.984375 
L 18.40625 0 
L 9.421875 0 
z
" id="DejaVuSans-6c"/>
       <path d="M 34.28125 27.484375 
Q 23.390625 27.484375 19.1875 25 
Q 14.984375 22.515625 14.984375 16.5 
Q 14.984375 11.71875 18.140625 8.90625 
Q 21.296875 6.109375 26.703125 6.109375 
Q 34.1875 6.109375 38.703125 11.40625 
Q 43.21875 16.703125 43.21875 25.484375 
L 43.21875 27.484375 
z
M 52.203125 31.203125 
L 52.203125 0 
L 43.21875 0 
L 43.21875 8.296875 
Q 40.140625 3.328125 35.546875 0.953125 
Q 30.953125 -1.421875 24.3125 -1.421875 
Q 15.921875 -1.421875 10.953125 3.296875 
Q 6 8.015625 6 15.921875 
Q 6 25.140625 12.171875 29.828125 
Q 18.359375 34.515625 30.609375 34.515625 
L 43.21875 34.515625 
L 43.21875 35.40625 
Q 43.21875 41.609375 39.140625 45 
Q 35.0625 48.390625 27.6875 48.390625 
Q 23 48.390625 18.546875 47.265625 
Q 14.109375 46.140625 10.015625 43.890625 
L 10.015625 52.203125 
Q 14.9375 54.109375 19.578125 55.046875 
Q 24.21875 56 28.609375 56 
Q 40.484375 56 46.34375 49.84375 
Q 52.203125 43.703125 52.203125 31.203125 
" id="DejaVuSans-61"/>
       <path d="M 54.890625 33.015625 
L 54.890625 0 
L 45.90625 0 
L 45.90625 32.71875 
Q 45.90625 40.484375 42.875 44.328125 
Q 39.84375 48.1875 33.796875 48.1875 
Q 26.515625 48.1875 22.3125 43.546875 
Q 18.109375 38.921875 18.109375 30.90625 
L 18.109375 0 
L 9.078125 0 
L 9.078125 54.6875 
L 18.109375 54.6875 
L 18.109375 46.1875 
Q 21.34375 51.125 25.703125 53.5625 
Q 30.078125 56 35.796875 56 
Q 45.21875 56 50.046875 50.171875 
Q 54.890625 44.34375 54.890625 33.015625 
" id="DejaVuSans-6e"/>
       <path d="M 9.421875 54.6875 
L 18.40625 54.6875 
L 18.40625 0 
L 9.421875 0 
z
M 9.421875 75.984375 
L 18.40625 75.984375 
L 18.40625 64.59375 
L 9.421875 64.59375 
z
" id="DejaVuSans-69"/>
       <path d="M 45.40625 27.984375 
Q 45.40625 37.75 41.375 43.109375 
Q 37.359375 48.484375 30.078125 48.484375 
Q 22.859375 48.484375 18.828125 43.109375 
Q 14.796875 37.75 14.796875 27.984375 
Q 14.796875 18.265625 18.828125 12.890625 
Q 22.859375 7.515625 30.078125 7.515625 
Q 37.359375 7.515625 41.375 12.890625 
Q 45.40625 18.265625 45.40625 27.984375 
M 54.390625 6.78125 
Q 54.390625 -7.171875 48.1875 -13.984375 
Q 42 -20.796875 29.203125 -20.796875 
Q 24.46875 -20.796875 20.265625 -20.09375 
Q 16.0625 -19.390625 12.109375 -17.921875 
L 12.109375 -9.1875 
Q 16.0625 -11.328125 19.921875 -12.34375 
Q 23.78125 -13.375 27.78125 -13.375 
Q 36.625 -13.375 41.015625 -8.765625 
Q 45.40625 -4.15625 45.40625 5.171875 
L 45.40625 9.625 
Q 42.625 4.78125 38.28125 2.390625 
Q 33.9375 0 27.875 0 
Q 17.828125 0 11.671875 7.65625 
Q 5.515625 15.328125 5.515625 27.984375 
Q 5.515625 40.671875 11.671875 48.328125 
Q 17.828125 56 27.875 56 
Q 33.9375 56 38.28125 53.609375 
Q 42.625 51.21875 45.40625 46.390625 
L 45.40625 54.6875 
L 54.390625 54.6875 
z
" id="DejaVuSans-67"/>
       <path id="DejaVuSans-20"/>
       <path d="M 24.3125 39.203125 
Q 19.875 35.25 17.796875 31.3125 
Q 15.71875 27.390625 15.71875 23.09375 
Q 15.71875 15.96875 20.890625 11.234375 
Q 26.078125 6.5 33.890625 6.5 
Q 38.53125 6.5 42.578125 8.03125 
Q 46.625 9.578125 50.203125 12.703125 
z
M 31.203125 44.671875 
L 56 19.28125 
Q 58.890625 23.640625 60.5 28.59375 
Q 62.109375 33.546875 62.40625 39.109375 
L 71.484375 39.109375 
Q 70.90625 32.671875 68.359375 26.359375 
Q 65.828125 20.0625 61.28125 13.921875 
L 74.90625 0 
L 62.59375 0 
L 55.609375 7.171875 
Q 50.53125 2.828125 44.96875 0.703125 
Q 39.40625 -1.421875 33.015625 -1.421875 
Q 21.234375 -1.421875 13.765625 5.296875 
Q 6.296875 12.015625 6.296875 22.515625 
Q 6.296875 28.765625 9.5625 34.25 
Q 12.84375 39.75 19.390625 44.578125 
Q 17.046875 47.65625 15.8125 50.703125 
Q 14.59375 53.765625 14.59375 56.6875 
Q 14.59375 64.59375 20.015625 69.40625 
Q 25.4375 74.21875 34.421875 74.21875 
Q 38.484375 74.21875 42.5 73.34375 
Q 46.53125 72.46875 50.6875 70.703125 
L 50.6875 61.8125 
Q 46.4375 64.109375 42.578125 65.296875 
Q 38.71875 66.5 35.40625 66.5 
Q 30.28125 66.5 27.078125 63.78125 
Q 23.875 61.078125 23.875 56.78125 
Q 23.875 54.296875 25.3125 51.78125 
Q 26.765625 49.265625 31.203125 44.671875 
" id="DejaVuSans-26"/>
       <path d="M 30.609375 48.390625 
Q 23.390625 48.390625 19.1875 42.75 
Q 14.984375 37.109375 14.984375 27.296875 
Q 14.984375 17.484375 19.15625 11.84375 
Q 23.34375 6.203125 30.609375 6.203125 
Q 37.796875 6.203125 41.984375 11.859375 
Q 46.1875 17.53125 46.1875 27.296875 
Q 46.1875 37.015625 41.984375 42.703125 
Q 37.796875 48.390625 30.609375 48.390625 
M 30.609375 56 
Q 42.328125 56 49.015625 48.375 
Q 55.71875 40.765625 55.71875 27.296875 
Q 55.71875 13.875 49.015625 6.21875 
Q 42.328125 -1.421875 30.609375 -1.421875 
Q 18.84375 -1.421875 12.171875 6.21875 
Q 5.515625 13.875 5.515625 27.296875 
Q 5.515625 40.765625 12.171875 48.375 
Q 18.84375 56 30.609375 56 
" id="DejaVuSans-6f"/>
       <path d="M 2.984375 54.6875 
L 12.5 54.6875 
L 29.59375 8.796875 
L 46.6875 54.6875 
L 56.203125 54.6875 
L 35.6875 0 
L 23.484375 0 
z
" id="DejaVuSans-76"/>
       <path d="M 56.203125 29.59375 
L 56.203125 25.203125 
L 14.890625 25.203125 
Q 15.484375 15.921875 20.484375 11.0625 
Q 25.484375 6.203125 34.421875 6.203125 
Q 39.59375 6.203125 44.453125 7.46875 
Q 49.3125 8.734375 54.109375 11.28125 
L 54.109375 2.78125 
Q 49.265625 0.734375 44.1875 -0.34375 
Q 39.109375 -1.421875 33.890625 -1.421875 
Q 20.796875 -1.421875 13.15625 6.1875 
Q 5.515625 13.8125 5.515625 26.8125 
Q 5.515625 40.234375 12.765625 48.109375 
Q 20.015625 56 32.328125 56 
Q 43.359375 56 49.78125 48.890625 
Q 56.203125 41.796875 56.203125 29.59375 
M 47.21875 32.234375 
Q 47.125 39.59375 43.09375 43.984375 
Q 39.0625 48.390625 32.421875 48.390625 
Q 24.90625 48.390625 20.390625 44.140625 
Q 15.875 39.890625 15.1875 32.171875 
z
" id="DejaVuSans-65"/>
       <path d="M 41.109375 46.296875 
Q 39.59375 47.171875 37.8125 47.578125 
Q 36.03125 48 33.890625 48 
Q 26.265625 48 22.1875 43.046875 
Q 18.109375 38.09375 18.109375 28.8125 
L 18.109375 0 
L 9.078125 0 
L 9.078125 54.6875 
L 18.109375 54.6875 
L 18.109375 46.1875 
Q 20.953125 51.171875 25.484375 53.578125 
Q 30.03125 56 36.53125 56 
Q 37.453125 56 38.578125 55.875 
Q 39.703125 55.765625 41.0625 55.515625 
z
" id="DejaVuSans-72"/>
       <path d="M 48.78125 52.59375 
L 48.78125 44.1875 
Q 44.96875 46.296875 41.140625 47.34375 
Q 37.3125 48.390625 33.40625 48.390625 
Q 24.65625 48.390625 19.8125 42.84375 
Q 14.984375 37.3125 14.984375 27.296875 
Q 14.984375 17.28125 19.8125 11.734375 
Q 24.65625 6.203125 33.40625 6.203125 
Q 37.3125 6.203125 41.140625 7.25 
Q 44.96875 8.296875 48.78125 10.40625 
L 48.78125 2.09375 
Q 45.015625 0.34375 40.984375 -0.53125 
Q 36.96875 -1.421875 32.421875 -1.421875 
Q 20.0625 -1.421875 12.78125 6.34375 
Q 5.515625 14.109375 5.515625 27.296875 
Q 5.515625 40.671875 12.859375 48.328125 
Q 20.21875 56 33.015625 56 
Q 37.15625 56 41.109375 55.140625 
Q 45.0625 54.296875 48.78125 52.59375 
" id="DejaVuSans-63"/>
      </defs>
      <g transform="translate(52.580208 677.632812)rotate(-90)scale(0.1 -0.1)">
       <use xlink:href="#DejaVuSans-50"/>
       <use x="60.302734" xlink:href="#DejaVuSans-6c"/>
       <use x="88.085938" xlink:href="#DejaVuSans-61"/>
       <use x="149.365234" xlink:href="#DejaVuSans-6e"/>
       <use x="212.744141" xlink:href="#DejaVuSans-6e"/>
       <use x="276.123047" xlink:href="#DejaVuSans-69"/>
       <use x="303.90625" xlink:href="#DejaVuSans-6e"/>
       <use x="367.285156" xlink:href="#DejaVuSans-67"/>
       <use x="430.761719" xlink:href="#DejaVuSans-20"/>
       <use x="462.548828" xlink:href="#DejaVuSans-26"/>
       <use x="540.527344" xlink:href="#DejaVuSans-20"/>
       <use x="572.314453" xlink:href="#DejaVuSans-67"/>
       <use x="635.791016" xlink:href="#DejaVuSans-6f"/>
       <use x="696.972656" xlink:href="#DejaVuSans-76"/>
       <use x="756.152344" xlink:href="#DejaVuSans-65"/>
       <use x="817.675781" xlink:href="#DejaVuSans-72"/>
       <use x="858.773438" xlink:href="#DejaVuSans-6e"/>
       <use x="922.152344" xlink:href="#DejaVuSans-61"/>
       <use x="983.431641" xlink:href="#DejaVuSans-6e"/>
       <use x="1046.810547" xlink:href="#DejaVuSans-63"/>
       <use x="1101.791016" xlink:href="#DejaVuSans-65"/>
      </g>
     </g>
    </g>
    <g id="xtick_2">
     <g id="line2d_2">
      <g>
       <use style="stroke:#000000;stroke-width:0.8;" x="82.8875" xlink:href="#m927b1319a2" y="554.3"/>
      </g>
     </g>
     <g id="text_2">
      <!-- Climate change mitigation -->
      <defs>
       <path d="M 64.40625 67.28125 
L 64.40625 56.890625 
Q 59.421875 61.53125 53.78125 63.8125 
Q 48.140625 66.109375 41.796875 66.109375 
Q 29.296875 66.109375 22.65625 58.46875 
Q 16.015625 50.828125 16.015625 36.375 
Q 16.015625 21.96875 22.65625 14.328125 
Q 29.296875 6.6875 41.796875 6.6875 
Q 48.140625 6.6875 53.78125 8.984375 
Q 59.421875 11.28125 64.40625 15.921875 
L 64.40625 5.609375 
Q 59.234375 2.09375 53.4375 0.328125 
Q 47.65625 -1.421875 41.21875 -1.421875 
Q 24.65625 -1.421875 15.125 8.703125 
Q 5.609375 18.84375 5.609375 36.375 
Q 5.609375 53.953125 15.125 64.078125 
Q 24.65625 74.21875 41.21875 74.21875 
Q 47.75 74.21875 53.53125 72.484375 
Q 59.328125 70.75 64.40625 67.28125 
" id="DejaVuSans-43"/>
       <path d="M 52 44.1875 
Q 55.375 50.25 60.0625 53.125 
Q 64.75 56 71.09375 56 
Q 79.640625 56 84.28125 50.015625 
Q 88.921875 44.046875 88.921875 33.015625 
L 88.921875 0 
L 79.890625 0 
L 79.890625 32.71875 
Q 79.890625 40.578125 77.09375 44.375 
Q 74.3125 48.1875 68.609375 48.1875 
Q 61.625 48.1875 57.5625 43.546875 
Q 53.515625 38.921875 53.515625 30.90625 
L 53.515625 0 
L 44.484375 0 
L 44.484375 32.71875 
Q 44.484375 40.625 41.703125 44.40625 
Q 38.921875 48.1875 33.109375 48.1875 
Q 26.21875 48.1875 22.15625 43.53125 
Q 18.109375 38.875 18.109375 30.90625 
L 18.109375 0 
L 9.078125 0 
L 9.078125 54.6875 
L 18.109375 54.6875 
L 18.109375 46.1875 
Q 21.1875 51.21875 25.484375 53.609375 
Q 29.78125 56 35.6875 56 
Q 41.65625 56 45.828125 52.96875 
Q 50 49.953125 52 44.1875 
" id="DejaVuSans-6d"/>
       <path d="M 18.3125 70.21875 
L 18.3125 54.6875 
L 36.8125 54.6875 
L 36.8125 47.703125 
L 18.3125 47.703125 
L 18.3125 18.015625 
Q 18.3125 11.328125 20.140625 9.421875 
Q 21.96875 7.515625 27.59375 7.515625 
L 36.8125 7.515625 
L 36.8125 0 
L 27.59375 0 
Q 17.1875 0 13.234375 3.875 
Q 9.28125 7.765625 9.28125 18.015625 
L 9.28125 47.703125 
L 2.6875 47.703125 
L 2.6875 54.6875 
L 9.28125 54.6875 
L 9.28125 70.21875 
z
" id="DejaVuSans-74"/>
       <path d="M 54.890625 33.015625 
L 54.890625 0 
L 45.90625 0 
L 45.90625 32.71875 
Q 45.90625 40.484375 42.875 44.328125 
Q 39.84375 48.1875 33.796875 48.1875 
Q 26.515625 48.1875 22.3125 43.546875 
Q 18.109375 38.921875 18.109375 30.90625 
L 18.109375 0 
L 9.078125 0 
L 9.078125 75.984375 
L 18.109375 75.984375 
L 18.109375 46.1875 
Q 21.34375 51.125 25.703125 53.5625 
Q 30.078125 56 35.796875 56 
Q 45.21875 56 50.046875 50.171875 
Q 54.890625 44.34375 54.890625 33.015625 
" id="DejaVuSans-68"/>
      </defs>
      <g transform="translate(85.646875 693.789062)rotate(-90)scale(0.1 -0.1)">
       <use xlink:href="#DejaVuSans-43"/>
       <use x="69.824219" xlink:href="#DejaVuSans-6c"/>
       <use x="97.607422" xlink:href="#DejaVuSans-69"/>
       <use x="125.390625" xlink:href="#DejaVuSans-6d"/>
       <use x="222.802734" xlink:href="#DejaVuSans-61"/>
       <use x="284.082031" xlink:href="#DejaVuSans-74"/>
       <use x="323.291016" xlink:href="#DejaVuSans-65"/>
       <use x="384.814453" xlink:href="#DejaVuSans-20"/>
       <use x="416.601562" xlink:href="#DejaVuSans-63"/>
       <use x="471.582031" xlink:href="#DejaVuSans-68"/>
       <use x="534.960938" xlink:href="#DejaVuSans-61"/>
       <use x="596.240234" xlink:href="#DejaVuSans-6e"/>
       <use x="659.619141" xlink:href="#DejaVuSans-67"/>
       <use x="723.095703" xlink:href="#DejaVuSans-65"/>
       <use x="784.619141" xlink:href="#DejaVuSans-20"/>
       <use x="816.40625" xlink:href="#DejaVuSans-6d"/>
       <use x="913.818359" xlink:href="#DejaVuSans-69"/>
       <use x="941.601562" xlink:href="#DejaVuSans-74"/>
       <use x="980.810547" xlink:href="#DejaVuSans-69"/>
       <use x="1008.59375" xlink:href="#DejaVuSans-67"/>
       <use x="1072.070312" xlink:href="#DejaVuSans-61"/>
       <use x="1133.349609" xlink:href="#DejaVuSans-74"/>
       <use x="1172.558594" xlink:href="#DejaVuSans-69"/>
       <use x="1200.341797" xlink:href="#DejaVuSans-6f"/>
       <use x="1261.523438" xlink:href="#DejaVuSans-6e"/>
      </g>
     </g>
    </g>
    <g id="xtick_3">
     <g id="line2d_3">
      <g>
       <use style="stroke:#000000;stroke-width:0.8;" x="115.954167" xlink:href="#m927b1319a2" y="554.3"/>
      </g>
     </g>
     <g id="text_3">
      <!-- GHG emissions -->
      <defs>
       <path d="M 59.515625 10.40625 
L 59.515625 29.984375 
L 43.40625 29.984375 
L 43.40625 38.09375 
L 69.28125 38.09375 
L 69.28125 6.78125 
Q 63.578125 2.734375 56.6875 0.65625 
Q 49.8125 -1.421875 42 -1.421875 
Q 24.90625 -1.421875 15.25 8.5625 
Q 5.609375 18.5625 5.609375 36.375 
Q 5.609375 54.25 15.25 64.234375 
Q 24.90625 74.21875 42 74.21875 
Q 49.125 74.21875 55.546875 72.453125 
Q 61.96875 70.703125 67.390625 67.28125 
L 67.390625 56.78125 
Q 61.921875 61.421875 55.765625 63.765625 
Q 49.609375 66.109375 42.828125 66.109375 
Q 29.4375 66.109375 22.71875 58.640625 
Q 16.015625 51.171875 16.015625 36.375 
Q 16.015625 21.625 22.71875 14.15625 
Q 29.4375 6.6875 42.828125 6.6875 
Q 48.046875 6.6875 52.140625 7.59375 
Q 56.25 8.5 59.515625 10.40625 
" id="DejaVuSans-47"/>
       <path d="M 9.8125 72.90625 
L 19.671875 72.90625 
L 19.671875 43.015625 
L 55.515625 43.015625 
L 55.515625 72.90625 
L 65.375 72.90625 
L 65.375 0 
L 55.515625 0 
L 55.515625 34.71875 
L 19.671875 34.71875 
L 19.671875 0 
L 9.8125 0 
z
" id="DejaVuSans-48"/>
       <path d="M 44.28125 53.078125 
L 44.28125 44.578125 
Q 40.484375 46.53125 36.375 47.5 
Q 32.28125 48.484375 27.875 48.484375 
Q 21.1875 48.484375 17.84375 46.4375 
Q 14.5 44.390625 14.5 40.28125 
Q 14.5 37.15625 16.890625 35.375 
Q 19.28125 33.59375 26.515625 31.984375 
L 29.59375 31.296875 
Q 39.15625 29.25 43.1875 25.515625 
Q 47.21875 21.78125 47.21875 15.09375 
Q 47.21875 7.46875 41.1875 3.015625 
Q 35.15625 -1.421875 24.609375 -1.421875 
Q 20.21875 -1.421875 15.453125 -0.5625 
Q 10.6875 0.296875 5.421875 2 
L 5.421875 11.28125 
Q 10.40625 8.6875 15.234375 7.390625 
Q 20.0625 6.109375 24.8125 6.109375 
Q 31.15625 6.109375 34.5625 8.28125 
Q 37.984375 10.453125 37.984375 14.40625 
Q 37.984375 18.0625 35.515625 20.015625 
Q 33.0625 21.96875 24.703125 23.78125 
L 21.578125 24.515625 
Q 13.234375 26.265625 9.515625 29.90625 
Q 5.8125 33.546875 5.8125 39.890625 
Q 5.8125 47.609375 11.28125 51.796875 
Q 16.75 56 26.8125 56 
Q 31.78125 56 36.171875 55.265625 
Q 40.578125 54.546875 44.28125 53.078125 
" id="DejaVuSans-73"/>
      </defs>
      <g transform="translate(118.713542 637.029688)rotate(-90)scale(0.1 -0.1)">
       <use xlink:href="#DejaVuSans-47"/>
       <use x="77.490234" xlink:href="#DejaVuSans-48"/>
       <use x="152.685547" xlink:href="#DejaVuSans-47"/>
       <use x="230.175781" xlink:href="#DejaVuSans-20"/>
       <use x="261.962891" xlink:href="#DejaVuSans-65"/>
       <use x="323.486328" xlink:href="#DejaVuSans-6d"/>
       <use x="420.898438" xlink:href="#DejaVuSans-69"/>
       <use x="448.681641" xlink:href="#DejaVuSans-73"/>
       <use x="500.78125" xlink:href="#DejaVuSans-73"/>
       <use x="552.880859" xlink:href="#DejaVuSans-69"/>
       <use x="580.664062" xlink:href="#DejaVuSans-6f"/>
       <use x="641.845703" xlink:href="#DejaVuSans-6e"/>
       <use x="705.224609" xlink:href="#DejaVuSans-73"/>
      </g>
     </g>
    </g>
    <g id="xtick_4">
     <g id="line2d_4">
      <g>
       <use style="stroke:#000000;stroke-width:0.8;" x="149.020833" xlink:href="#m927b1319a2" y="554.3"/>
      </g>
     </g>
     <g id="text_4">
      <!-- Urban form -->
      <defs>
       <path d="M 8.6875 72.90625 
L 18.609375 72.90625 
L 18.609375 28.609375 
Q 18.609375 16.890625 22.84375 11.734375 
Q 27.09375 6.59375 36.625 6.59375 
Q 46.09375 6.59375 50.34375 11.734375 
Q 54.59375 16.890625 54.59375 28.609375 
L 54.59375 72.90625 
L 64.5 72.90625 
L 64.5 27.390625 
Q 64.5 13.140625 57.4375 5.859375 
Q 50.390625 -1.421875 36.625 -1.421875 
Q 22.796875 -1.421875 15.734375 5.859375 
Q 8.6875 13.140625 8.6875 27.390625 
z
" id="DejaVuSans-55"/>
       <path d="M 48.6875 27.296875 
Q 48.6875 37.203125 44.609375 42.84375 
Q 40.53125 48.484375 33.40625 48.484375 
Q 26.265625 48.484375 22.1875 42.84375 
Q 18.109375 37.203125 18.109375 27.296875 
Q 18.109375 17.390625 22.1875 11.75 
Q 26.265625 6.109375 33.40625 6.109375 
Q 40.53125 6.109375 44.609375 11.75 
Q 48.6875 17.390625 48.6875 27.296875 
M 18.109375 46.390625 
Q 20.953125 51.265625 25.265625 53.625 
Q 29.59375 56 35.59375 56 
Q 45.5625 56 51.78125 48.09375 
Q 58.015625 40.1875 58.015625 27.296875 
Q 58.015625 14.40625 51.78125 6.484375 
Q 45.5625 -1.421875 35.59375 -1.421875 
Q 29.59375 -1.421875 25.265625 0.953125 
Q 20.953125 3.328125 18.109375 8.203125 
L 18.109375 0 
L 9.078125 0 
L 9.078125 75.984375 
L 18.109375 75.984375 
z
" id="DejaVuSans-62"/>
       <path d="M 37.109375 75.984375 
L 37.109375 68.5 
L 28.515625 68.5 
Q 23.6875 68.5 21.796875 66.546875 
Q 19.921875 64.59375 19.921875 59.515625 
L 19.921875 54.6875 
L 34.71875 54.6875 
L 34.71875 47.703125 
L 19.921875 47.703125 
L 19.921875 0 
L 10.890625 0 
L 10.890625 47.703125 
L 2.296875 47.703125 
L 2.296875 54.6875 
L 10.890625 54.6875 
L 10.890625 58.5 
Q 10.890625 67.625 15.140625 71.796875 
Q 19.390625 75.984375 28.609375 75.984375 
z
" id="DejaVuSans-66"/>
      </defs>
      <g transform="translate(151.780208 618.210938)rotate(-90)scale(0.1 -0.1)">
       <use xlink:href="#DejaVuSans-55"/>
       <use x="73.193359" xlink:href="#DejaVuSans-72"/>
       <use x="114.306641" xlink:href="#DejaVuSans-62"/>
       <use x="177.783203" xlink:href="#DejaVuSans-61"/>
       <use x="239.0625" xlink:href="#DejaVuSans-6e"/>
       <use x="302.441406" xlink:href="#DejaVuSans-20"/>
       <use x="334.228516" xlink:href="#DejaVuSans-66"/>
       <use x="369.433594" xlink:href="#DejaVuSans-6f"/>
       <use x="430.615234" xlink:href="#DejaVuSans-72"/>
       <use x="471.712891" xlink:href="#DejaVuSans-6d"/>
      </g>
     </g>
    </g>
    <g id="xtick_5">
     <g id="line2d_5">
      <g>
       <use style="stroke:#000000;stroke-width:0.8;" x="182.0875" xlink:href="#m927b1319a2" y="554.3"/>
      </g>
     </g>
     <g id="text_5">
      <!-- Energy efficiency &amp; consumption -->
      <defs>
       <path d="M 9.8125 72.90625 
L 55.90625 72.90625 
L 55.90625 64.59375 
L 19.671875 64.59375 
L 19.671875 43.015625 
L 54.390625 43.015625 
L 54.390625 34.71875 
L 19.671875 34.71875 
L 19.671875 8.296875 
L 56.78125 8.296875 
L 56.78125 0 
L 9.8125 0 
z
" id="DejaVuSans-45"/>
       <path d="M 32.171875 -5.078125 
Q 28.375 -14.84375 24.75 -17.8125 
Q 21.140625 -20.796875 15.09375 -20.796875 
L 7.90625 -20.796875 
L 7.90625 -13.28125 
L 13.1875 -13.28125 
Q 16.890625 -13.28125 18.9375 -11.515625 
Q 21 -9.765625 23.484375 -3.21875 
L 25.09375 0.875 
L 2.984375 54.6875 
L 12.5 54.6875 
L 29.59375 11.921875 
L 46.6875 54.6875 
L 56.203125 54.6875 
z
" id="DejaVuSans-79"/>
       <path d="M 8.5 21.578125 
L 8.5 54.6875 
L 17.484375 54.6875 
L 17.484375 21.921875 
Q 17.484375 14.15625 20.5 10.265625 
Q 23.53125 6.390625 29.59375 6.390625 
Q 36.859375 6.390625 41.078125 11.03125 
Q 45.3125 15.671875 45.3125 23.6875 
L 45.3125 54.6875 
L 54.296875 54.6875 
L 54.296875 0 
L 45.3125 0 
L 45.3125 8.40625 
Q 42.046875 3.421875 37.71875 1 
Q 33.40625 -1.421875 27.6875 -1.421875 
Q 18.265625 -1.421875 13.375 4.4375 
Q 8.5 10.296875 8.5 21.578125 
M 31.109375 56 
z
" id="DejaVuSans-75"/>
       <path d="M 18.109375 8.203125 
L 18.109375 -20.796875 
L 9.078125 -20.796875 
L 9.078125 54.6875 
L 18.109375 54.6875 
L 18.109375 46.390625 
Q 20.953125 51.265625 25.265625 53.625 
Q 29.59375 56 35.59375 56 
Q 45.5625 56 51.78125 48.09375 
Q 58.015625 40.1875 58.015625 27.296875 
Q 58.015625 14.40625 51.78125 6.484375 
Q 45.5625 -1.421875 35.59375 -1.421875 
Q 29.59375 -1.421875 25.265625 0.953125 
Q 20.953125 3.328125 18.109375 8.203125 
M 48.6875 27.296875 
Q 48.6875 37.203125 44.609375 42.84375 
Q 40.53125 48.484375 33.40625 48.484375 
Q 26.265625 48.484375 22.1875 42.84375 
Q 18.109375 37.203125 18.109375 27.296875 
Q 18.109375 17.390625 22.1875 11.75 
Q 26.265625 6.109375 33.40625 6.109375 
Q 40.53125 6.109375 44.609375 11.75 
Q 48.6875 17.390625 48.6875 27.296875 
" id="DejaVuSans-70"/>
      </defs>
      <g transform="translate(184.846875 726.720313)rotate(-90)scale(0.1 -0.1)">
       <use xlink:href="#DejaVuSans-45"/>
       <use x="63.183594" xlink:href="#DejaVuSans-6e"/>
       <use x="126.5625" xlink:href="#DejaVuSans-65"/>
       <use x="188.085938" xlink:href="#DejaVuSans-72"/>
       <use x="229.183594" xlink:href="#DejaVuSans-67"/>
       <use x="292.660156" xlink:href="#DejaVuSans-79"/>
       <use x="351.839844" xlink:href="#DejaVuSans-20"/>
       <use x="383.626953" xlink:href="#DejaVuSans-65"/>
       <use x="445.150391" xlink:href="#DejaVuSans-66"/>
       <use x="480.355469" xlink:href="#DejaVuSans-66"/>
       <use x="515.560547" xlink:href="#DejaVuSans-69"/>
       <use x="543.34375" xlink:href="#DejaVuSans-63"/>
       <use x="598.324219" xlink:href="#DejaVuSans-69"/>
       <use x="626.107422" xlink:href="#DejaVuSans-65"/>
       <use x="687.630859" xlink:href="#DejaVuSans-6e"/>
       <use x="751.009766" xlink:href="#DejaVuSans-63"/>
       <use x="805.990234" xlink:href="#DejaVuSans-79"/>
       <use x="865.169922" xlink:href="#DejaVuSans-20"/>
       <use x="896.957031" xlink:href="#DejaVuSans-26"/>
       <use x="974.935547" xlink:href="#DejaVuSans-20"/>
       <use x="1006.722656" xlink:href="#DejaVuSans-63"/>
       <use x="1061.703125" xlink:href="#DejaVuSans-6f"/>
       <use x="1122.884766" xlink:href="#DejaVuSans-6e"/>
       <use x="1186.263672" xlink:href="#DejaVuSans-73"/>
       <use x="1238.363281" xlink:href="#DejaVuSans-75"/>
       <use x="1301.742188" xlink:href="#DejaVuSans-6d"/>
       <use x="1399.154297" xlink:href="#DejaVuSans-70"/>
       <use x="1462.630859" xlink:href="#DejaVuSans-74"/>
       <use x="1501.839844" xlink:href="#DejaVuSans-69"/>
       <use x="1529.623047" xlink:href="#DejaVuSans-6f"/>
       <use x="1590.804688" xlink:href="#DejaVuSans-6e"/>
      </g>
     </g>
    </g>
    <g id="xtick_6">
     <g id="line2d_6">
      <g>
       <use style="stroke:#000000;stroke-width:0.8;" x="215.154167" xlink:href="#m927b1319a2" y="554.3"/>
      </g>
     </g>
     <g id="text_6">
      <!-- Active travel -->
      <defs>
       <path d="M 34.1875 63.1875 
L 20.796875 26.90625 
L 47.609375 26.90625 
z
M 28.609375 72.90625 
L 39.796875 72.90625 
L 67.578125 0 
L 57.328125 0 
L 50.6875 18.703125 
L 17.828125 18.703125 
L 11.1875 0 
L 0.78125 0 
z
" id="DejaVuSans-41"/>
      </defs>
      <g transform="translate(217.913542 624.595312)rotate(-90)scale(0.1 -0.1)">
       <use xlink:href="#DejaVuSans-41"/>
       <use x="68.392578" xlink:href="#DejaVuSans-63"/>
       <use x="123.373047" xlink:href="#DejaVuSans-74"/>
       <use x="162.582031" xlink:href="#DejaVuSans-69"/>
       <use x="190.365234" xlink:href="#DejaVuSans-76"/>
       <use x="249.544922" xlink:href="#DejaVuSans-65"/>
       <use x="311.068359" xlink:href="#DejaVuSans-20"/>
       <use x="342.855469" xlink:href="#DejaVuSans-74"/>
       <use x="382.064453" xlink:href="#DejaVuSans-72"/>
       <use x="423.177734" xlink:href="#DejaVuSans-61"/>
       <use x="484.457031" xlink:href="#DejaVuSans-76"/>
       <use x="543.636719" xlink:href="#DejaVuSans-65"/>
       <use x="605.160156" xlink:href="#DejaVuSans-6c"/>
      </g>
     </g>
    </g>
    <g id="xtick_7">
     <g id="line2d_7">
      <g>
       <use style="stroke:#000000;stroke-width:0.8;" x="248.220833" xlink:href="#m927b1319a2" y="554.3"/>
      </g>
     </g>
     <g id="text_7">
      <!-- Public transport -->
      <g transform="translate(250.980208 640.451563)rotate(-90)scale(0.1 -0.1)">
       <use xlink:href="#DejaVuSans-50"/>
       <use x="60.287109" xlink:href="#DejaVuSans-75"/>
       <use x="123.666016" xlink:href="#DejaVuSans-62"/>
       <use x="187.142578" xlink:href="#DejaVuSans-6c"/>
       <use x="214.925781" xlink:href="#DejaVuSans-69"/>
       <use x="242.708984" xlink:href="#DejaVuSans-63"/>
       <use x="297.689453" xlink:href="#DejaVuSans-20"/>
       <use x="329.476562" xlink:href="#DejaVuSans-74"/>
       <use x="368.685547" xlink:href="#DejaVuSans-72"/>
       <use x="409.798828" xlink:href="#DejaVuSans-61"/>
       <use x="471.078125" xlink:href="#DejaVuSans-6e"/>
       <use x="534.457031" xlink:href="#DejaVuSans-73"/>
       <use x="586.556641" xlink:href="#DejaVuSans-70"/>
       <use x="650.033203" xlink:href="#DejaVuSans-6f"/>
       <use x="711.214844" xlink:href="#DejaVuSans-72"/>
       <use x="752.328125" xlink:href="#DejaVuSans-74"/>
      </g>
     </g>
    </g>
    <g id="xtick_8">
     <g id="line2d_8">
      <g>
       <use style="stroke:#000000;stroke-width:0.8;" x="281.2875" xlink:href="#m927b1319a2" y="554.3"/>
      </g>
     </g>
     <g id="text_8">
      <!-- Air quality -->
      <defs>
       <path d="M 14.796875 27.296875 
Q 14.796875 17.390625 18.875 11.75 
Q 22.953125 6.109375 30.078125 6.109375 
Q 37.203125 6.109375 41.296875 11.75 
Q 45.40625 17.390625 45.40625 27.296875 
Q 45.40625 37.203125 41.296875 42.84375 
Q 37.203125 48.484375 30.078125 48.484375 
Q 22.953125 48.484375 18.875 42.84375 
Q 14.796875 37.203125 14.796875 27.296875 
M 45.40625 8.203125 
Q 42.578125 3.328125 38.25 0.953125 
Q 33.9375 -1.421875 27.875 -1.421875 
Q 17.96875 -1.421875 11.734375 6.484375 
Q 5.515625 14.40625 5.515625 27.296875 
Q 5.515625 40.1875 11.734375 48.09375 
Q 17.96875 56 27.875 56 
Q 33.9375 56 38.25 53.625 
Q 42.578125 51.265625 45.40625 46.390625 
L 45.40625 54.6875 
L 54.390625 54.6875 
L 54.390625 -20.796875 
L 45.40625 -20.796875 
z
" id="DejaVuSans-71"/>
      </defs>
      <g transform="translate(284.046875 612.417187)rotate(-90)scale(0.1 -0.1)">
       <use xlink:href="#DejaVuSans-41"/>
       <use x="68.408203" xlink:href="#DejaVuSans-69"/>
       <use x="96.191406" xlink:href="#DejaVuSans-72"/>
       <use x="137.304688" xlink:href="#DejaVuSans-20"/>
       <use x="169.091797" xlink:href="#DejaVuSans-71"/>
       <use x="232.568359" xlink:href="#DejaVuSans-75"/>
       <use x="295.947266" xlink:href="#DejaVuSans-61"/>
       <use x="357.226562" xlink:href="#DejaVuSans-6c"/>
       <use x="385.009766" xlink:href="#DejaVuSans-69"/>
       <use x="412.792969" xlink:href="#DejaVuSans-74"/>
       <use x="452.001953" xlink:href="#DejaVuSans-79"/>
      </g>
     </g>
    </g>
    <g id="xtick_9">
     <g id="line2d_9">
      <g>
       <use style="stroke:#000000;stroke-width:0.8;" x="314.354167" xlink:href="#m927b1319a2" y="554.3"/>
      </g>
     </g>
     <g id="text_9">
      <!-- Network optimisation -->
      <defs>
       <path d="M 9.8125 72.90625 
L 23.09375 72.90625 
L 55.421875 11.921875 
L 55.421875 72.90625 
L 64.984375 72.90625 
L 64.984375 0 
L 51.703125 0 
L 19.390625 60.984375 
L 19.390625 0 
L 9.8125 0 
z
" id="DejaVuSans-4e"/>
       <path d="M 4.203125 54.6875 
L 13.1875 54.6875 
L 24.421875 12.015625 
L 35.59375 54.6875 
L 46.1875 54.6875 
L 57.421875 12.015625 
L 68.609375 54.6875 
L 77.59375 54.6875 
L 63.28125 0 
L 52.6875 0 
L 40.921875 44.828125 
L 29.109375 0 
L 18.5 0 
z
" id="DejaVuSans-77"/>
       <path d="M 9.078125 75.984375 
L 18.109375 75.984375 
L 18.109375 31.109375 
L 44.921875 54.6875 
L 56.390625 54.6875 
L 27.390625 29.109375 
L 57.625 0 
L 45.90625 0 
L 18.109375 26.703125 
L 18.109375 0 
L 9.078125 0 
z
" id="DejaVuSans-6b"/>
      </defs>
      <g transform="translate(317.113542 668.407812)rotate(-90)scale(0.1 -0.1)">
       <use xlink:href="#DejaVuSans-4e"/>
       <use x="74.804688" xlink:href="#DejaVuSans-65"/>
       <use x="136.328125" xlink:href="#DejaVuSans-74"/>
       <use x="175.537109" xlink:href="#DejaVuSans-77"/>
       <use x="257.324219" xlink:href="#DejaVuSans-6f"/>
       <use x="318.505859" xlink:href="#DejaVuSans-72"/>
       <use x="359.619141" xlink:href="#DejaVuSans-6b"/>
       <use x="417.529297" xlink:href="#DejaVuSans-20"/>
       <use x="449.316406" xlink:href="#DejaVuSans-6f"/>
       <use x="510.498047" xlink:href="#DejaVuSans-70"/>
       <use x="573.974609" xlink:href="#DejaVuSans-74"/>
       <use x="613.183594" xlink:href="#DejaVuSans-69"/>
       <use x="640.966797" xlink:href="#DejaVuSans-6d"/>
       <use x="738.378906" xlink:href="#DejaVuSans-69"/>
       <use x="766.162109" xlink:href="#DejaVuSans-73"/>
       <use x="818.261719" xlink:href="#DejaVuSans-61"/>
       <use x="879.541016" xlink:href="#DejaVuSans-74"/>
       <use x="918.75" xlink:href="#DejaVuSans-69"/>
       <use x="946.533203" xlink:href="#DejaVuSans-6f"/>
       <use x="1007.714844" xlink:href="#DejaVuSans-6e"/>
      </g>
     </g>
    </g>
    <g id="xtick_10">
     <g id="line2d_10">
      <g>
       <use style="stroke:#000000;stroke-width:0.8;" x="347.420833" xlink:href="#m927b1319a2" y="554.3"/>
      </g>
     </g>
     <g id="text_10">
      <!-- System design -->
      <defs>
       <path d="M 53.515625 70.515625 
L 53.515625 60.890625 
Q 47.90625 63.578125 42.921875 64.890625 
Q 37.9375 66.21875 33.296875 66.21875 
Q 25.25 66.21875 20.875 63.09375 
Q 16.5 59.96875 16.5 54.203125 
Q 16.5 49.359375 19.40625 46.890625 
Q 22.3125 44.4375 30.421875 42.921875 
L 36.375 41.703125 
Q 47.40625 39.59375 52.65625 34.296875 
Q 57.90625 29 57.90625 20.125 
Q 57.90625 9.515625 50.796875 4.046875 
Q 43.703125 -1.421875 29.984375 -1.421875 
Q 24.8125 -1.421875 18.96875 -0.25 
Q 13.140625 0.921875 6.890625 3.21875 
L 6.890625 13.375 
Q 12.890625 10.015625 18.65625 8.296875 
Q 24.421875 6.59375 29.984375 6.59375 
Q 38.421875 6.59375 43.015625 9.90625 
Q 47.609375 13.234375 47.609375 19.390625 
Q 47.609375 24.75 44.3125 27.78125 
Q 41.015625 30.8125 33.5 32.328125 
L 27.484375 33.5 
Q 16.453125 35.6875 11.515625 40.375 
Q 6.59375 45.0625 6.59375 53.421875 
Q 6.59375 63.09375 13.40625 68.65625 
Q 20.21875 74.21875 32.171875 74.21875 
Q 37.3125 74.21875 42.625 73.28125 
Q 47.953125 72.359375 53.515625 70.515625 
" id="DejaVuSans-53"/>
       <path d="M 45.40625 46.390625 
L 45.40625 75.984375 
L 54.390625 75.984375 
L 54.390625 0 
L 45.40625 0 
L 45.40625 8.203125 
Q 42.578125 3.328125 38.25 0.953125 
Q 33.9375 -1.421875 27.875 -1.421875 
Q 17.96875 -1.421875 11.734375 6.484375 
Q 5.515625 14.40625 5.515625 27.296875 
Q 5.515625 40.1875 11.734375 48.09375 
Q 17.96875 56 27.875 56 
Q 33.9375 56 38.25 53.625 
Q 42.578125 51.265625 45.40625 46.390625 
M 14.796875 27.296875 
Q 14.796875 17.390625 18.875 11.75 
Q 22.953125 6.109375 30.078125 6.109375 
Q 37.203125 6.109375 41.296875 11.75 
Q 45.40625 17.390625 45.40625 27.296875 
Q 45.40625 37.203125 41.296875 42.84375 
Q 37.203125 48.484375 30.078125 48.484375 
Q 22.953125 48.484375 18.875 42.84375 
Q 14.796875 37.203125 14.796875 27.296875 
" id="DejaVuSans-64"/>
      </defs>
      <g transform="translate(350.180208 634.94375)rotate(-90)scale(0.1 -0.1)">
       <use xlink:href="#DejaVuSans-53"/>
       <use x="63.476562" xlink:href="#DejaVuSans-79"/>
       <use x="122.65625" xlink:href="#DejaVuSans-73"/>
       <use x="174.755859" xlink:href="#DejaVuSans-74"/>
       <use x="213.964844" xlink:href="#DejaVuSans-65"/>
       <use x="275.488281" xlink:href="#DejaVuSans-6d"/>
       <use x="372.900391" xlink:href="#DejaVuSans-20"/>
       <use x="404.6875" xlink:href="#DejaVuSans-64"/>
       <use x="468.164062" xlink:href="#DejaVuSans-65"/>
       <use x="529.6875" xlink:href="#DejaVuSans-73"/>
       <use x="581.787109" xlink:href="#DejaVuSans-69"/>
       <use x="609.570312" xlink:href="#DejaVuSans-67"/>
       <use x="673.046875" xlink:href="#DejaVuSans-6e"/>
      </g>
     </g>
    </g>
    <g id="xtick_11">
     <g id="line2d_11">
      <g>
       <use style="stroke:#000000;stroke-width:0.8;" x="380.4875" xlink:href="#m927b1319a2" y="554.3"/>
      </g>
     </g>
     <g id="text_11">
      <!-- Building energy standards -->
      <defs>
       <path d="M 19.671875 34.8125 
L 19.671875 8.109375 
L 35.5 8.109375 
Q 43.453125 8.109375 47.28125 11.40625 
Q 51.125 14.703125 51.125 21.484375 
Q 51.125 28.328125 47.28125 31.5625 
Q 43.453125 34.8125 35.5 34.8125 
z
M 19.671875 64.796875 
L 19.671875 42.828125 
L 34.28125 42.828125 
Q 41.5 42.828125 45.03125 45.53125 
Q 48.578125 48.25 48.578125 53.8125 
Q 48.578125 59.328125 45.03125 62.0625 
Q 41.5 64.796875 34.28125 64.796875 
z
M 9.8125 72.90625 
L 35.015625 72.90625 
Q 46.296875 72.90625 52.390625 68.21875 
Q 58.5 63.53125 58.5 54.890625 
Q 58.5 48.1875 55.375 44.234375 
Q 52.25 40.28125 46.1875 39.3125 
Q 53.46875 37.75 57.5 32.78125 
Q 61.53125 27.828125 61.53125 20.40625 
Q 61.53125 10.640625 54.890625 5.3125 
Q 48.25 0 35.984375 0 
L 9.8125 0 
z
" id="DejaVuSans-42"/>
      </defs>
      <g transform="translate(383.246875 692.982813)rotate(-90)scale(0.1 -0.1)">
       <use xlink:href="#DejaVuSans-42"/>
       <use x="68.603516" xlink:href="#DejaVuSans-75"/>
       <use x="131.982422" xlink:href="#DejaVuSans-69"/>
       <use x="159.765625" xlink:href="#DejaVuSans-6c"/>
       <use x="187.548828" xlink:href="#DejaVuSans-64"/>
       <use x="251.025391" xlink:href="#DejaVuSans-69"/>
       <use x="278.808594" xlink:href="#DejaVuSans-6e"/>
       <use x="342.1875" xlink:href="#DejaVuSans-67"/>
       <use x="405.664062" xlink:href="#DejaVuSans-20"/>
       <use x="437.451172" xlink:href="#DejaVuSans-65"/>
       <use x="498.974609" xlink:href="#DejaVuSans-6e"/>
       <use x="562.353516" xlink:href="#DejaVuSans-65"/>
       <use x="623.876953" xlink:href="#DejaVuSans-72"/>
       <use x="664.974609" xlink:href="#DejaVuSans-67"/>
       <use x="728.451172" xlink:href="#DejaVuSans-79"/>
       <use x="787.630859" xlink:href="#DejaVuSans-20"/>
       <use x="819.417969" xlink:href="#DejaVuSans-73"/>
       <use x="871.517578" xlink:href="#DejaVuSans-74"/>
       <use x="910.726562" xlink:href="#DejaVuSans-61"/>
       <use x="972.005859" xlink:href="#DejaVuSans-6e"/>
       <use x="1035.384766" xlink:href="#DejaVuSans-64"/>
       <use x="1098.861328" xlink:href="#DejaVuSans-61"/>
       <use x="1160.140625" xlink:href="#DejaVuSans-72"/>
       <use x="1201.238281" xlink:href="#DejaVuSans-64"/>
       <use x="1264.714844" xlink:href="#DejaVuSans-73"/>
      </g>
     </g>
    </g>
    <g id="xtick_12">
     <g id="line2d_12">
      <g>
       <use style="stroke:#000000;stroke-width:0.8;" x="413.554167" xlink:href="#m927b1319a2" y="554.3"/>
      </g>
     </g>
     <g id="text_12">
      <!-- Waste management -->
      <defs>
       <path d="M 3.328125 72.90625 
L 13.28125 72.90625 
L 28.609375 11.28125 
L 43.890625 72.90625 
L 54.984375 72.90625 
L 70.3125 11.28125 
L 85.59375 72.90625 
L 95.609375 72.90625 
L 77.296875 0 
L 64.890625 0 
L 49.515625 63.28125 
L 33.984375 0 
L 21.578125 0 
z
" id="DejaVuSans-57"/>
      </defs>
      <g transform="translate(416.313542 662.754688)rotate(-90)scale(0.1 -0.1)">
       <use xlink:href="#DejaVuSans-57"/>
       <use x="98.783203" xlink:href="#DejaVuSans-61"/>
       <use x="160.0625" xlink:href="#DejaVuSans-73"/>
       <use x="212.162109" xlink:href="#DejaVuSans-74"/>
       <use x="251.371094" xlink:href="#DejaVuSans-65"/>
       <use x="312.894531" xlink:href="#DejaVuSans-20"/>
       <use x="344.681641" xlink:href="#DejaVuSans-6d"/>
       <use x="442.09375" xlink:href="#DejaVuSans-61"/>
       <use x="503.373047" xlink:href="#DejaVuSans-6e"/>
       <use x="566.751953" xlink:href="#DejaVuSans-61"/>
       <use x="628.03125" xlink:href="#DejaVuSans-67"/>
       <use x="691.507812" xlink:href="#DejaVuSans-65"/>
       <use x="753.03125" xlink:href="#DejaVuSans-6d"/>
       <use x="850.443359" xlink:href="#DejaVuSans-65"/>
       <use x="911.966797" xlink:href="#DejaVuSans-6e"/>
       <use x="975.345703" xlink:href="#DejaVuSans-74"/>
      </g>
     </g>
    </g>
    <g id="xtick_13">
     <g id="line2d_13">
      <g>
       <use style="stroke:#000000;stroke-width:0.8;" x="446.620833" xlink:href="#m927b1319a2" y="554.3"/>
      </g>
     </g>
     <g id="text_13">
      <!-- e-Vehicles -->
      <defs>
       <path d="M 4.890625 31.390625 
L 31.203125 31.390625 
L 31.203125 23.390625 
L 4.890625 23.390625 
z
" id="DejaVuSans-2d"/>
       <path d="M 28.609375 0 
L 0.78125 72.90625 
L 11.078125 72.90625 
L 34.1875 11.53125 
L 57.328125 72.90625 
L 67.578125 72.90625 
L 39.796875 0 
z
" id="DejaVuSans-56"/>
      </defs>
      <g transform="translate(449.380208 612.790625)rotate(-90)scale(0.1 -0.1)">
       <use xlink:href="#DejaVuSans-65"/>
       <use x="61.523438" xlink:href="#DejaVuSans-2d"/>
       <use x="97.529297" xlink:href="#DejaVuSans-56"/>
       <use x="165.828125" xlink:href="#DejaVuSans-65"/>
       <use x="227.351562" xlink:href="#DejaVuSans-68"/>
       <use x="290.730469" xlink:href="#DejaVuSans-69"/>
       <use x="318.513672" xlink:href="#DejaVuSans-63"/>
       <use x="373.494141" xlink:href="#DejaVuSans-6c"/>
       <use x="401.277344" xlink:href="#DejaVuSans-65"/>
       <use x="462.800781" xlink:href="#DejaVuSans-73"/>
      </g>
     </g>
    </g>
    <g id="xtick_14">
     <g id="line2d_14">
      <g>
       <use style="stroke:#000000;stroke-width:0.8;" x="479.6875" xlink:href="#m927b1319a2" y="554.3"/>
      </g>
     </g>
     <g id="text_14">
      <!-- Congestion charging -->
      <g transform="translate(482.446875 664.66875)rotate(-90)scale(0.1 -0.1)">
       <use xlink:href="#DejaVuSans-43"/>
       <use x="69.824219" xlink:href="#DejaVuSans-6f"/>
       <use x="131.005859" xlink:href="#DejaVuSans-6e"/>
       <use x="194.384766" xlink:href="#DejaVuSans-67"/>
       <use x="257.861328" xlink:href="#DejaVuSans-65"/>
       <use x="319.384766" xlink:href="#DejaVuSans-73"/>
       <use x="371.484375" xlink:href="#DejaVuSans-74"/>
       <use x="410.693359" xlink:href="#DejaVuSans-69"/>
       <use x="438.476562" xlink:href="#DejaVuSans-6f"/>
       <use x="499.658203" xlink:href="#DejaVuSans-6e"/>
       <use x="563.037109" xlink:href="#DejaVuSans-20"/>
       <use x="594.824219" xlink:href="#DejaVuSans-63"/>
       <use x="649.804688" xlink:href="#DejaVuSans-68"/>
       <use x="713.183594" xlink:href="#DejaVuSans-61"/>
       <use x="774.462891" xlink:href="#DejaVuSans-72"/>
       <use x="815.560547" xlink:href="#DejaVuSans-67"/>
       <use x="879.037109" xlink:href="#DejaVuSans-69"/>
       <use x="906.820312" xlink:href="#DejaVuSans-6e"/>
       <use x="970.199219" xlink:href="#DejaVuSans-67"/>
      </g>
     </g>
    </g>
    <g id="xtick_15">
     <g id="line2d_15">
      <g>
       <use style="stroke:#000000;stroke-width:0.8;" x="512.754167" xlink:href="#m927b1319a2" y="554.3"/>
      </g>
     </g>
     <g id="text_15">
      <!-- Heating &amp; cooling systems -->
      <g transform="translate(515.513542 695.157812)rotate(-90)scale(0.1 -0.1)">
       <use xlink:href="#DejaVuSans-48"/>
       <use x="75.195312" xlink:href="#DejaVuSans-65"/>
       <use x="136.71875" xlink:href="#DejaVuSans-61"/>
       <use x="197.998047" xlink:href="#DejaVuSans-74"/>
       <use x="237.207031" xlink:href="#DejaVuSans-69"/>
       <use x="264.990234" xlink:href="#DejaVuSans-6e"/>
       <use x="328.369141" xlink:href="#DejaVuSans-67"/>
       <use x="391.845703" xlink:href="#DejaVuSans-20"/>
       <use x="423.632812" xlink:href="#DejaVuSans-26"/>
       <use x="501.611328" xlink:href="#DejaVuSans-20"/>
       <use x="533.398438" xlink:href="#DejaVuSans-63"/>
       <use x="588.378906" xlink:href="#DejaVuSans-6f"/>
       <use x="649.560547" xlink:href="#DejaVuSans-6f"/>
       <use x="710.742188" xlink:href="#DejaVuSans-6c"/>
       <use x="738.525391" xlink:href="#DejaVuSans-69"/>
       <use x="766.308594" xlink:href="#DejaVuSans-6e"/>
       <use x="829.6875" xlink:href="#DejaVuSans-67"/>
       <use x="893.164062" xlink:href="#DejaVuSans-20"/>
       <use x="924.951172" xlink:href="#DejaVuSans-73"/>
       <use x="977.050781" xlink:href="#DejaVuSans-79"/>
       <use x="1036.230469" xlink:href="#DejaVuSans-73"/>
       <use x="1088.330078" xlink:href="#DejaVuSans-74"/>
       <use x="1127.539062" xlink:href="#DejaVuSans-65"/>
       <use x="1189.0625" xlink:href="#DejaVuSans-6d"/>
       <use x="1286.474609" xlink:href="#DejaVuSans-73"/>
      </g>
     </g>
    </g>
    <g id="xtick_16">
     <g id="line2d_16">
      <g>
       <use style="stroke:#000000;stroke-width:0.8;" x="545.820833" xlink:href="#m927b1319a2" y="554.3"/>
      </g>
     </g>
     <g id="text_16">
      <!-- Travel behaviour -->
      <defs>
       <path d="M -0.296875 72.90625 
L 61.375 72.90625 
L 61.375 64.59375 
L 35.5 64.59375 
L 35.5 0 
L 25.59375 0 
L 25.59375 64.59375 
L -0.296875 64.59375 
z
" id="DejaVuSans-54"/>
      </defs>
      <g transform="translate(548.580208 645.884375)rotate(-90)scale(0.1 -0.1)">
       <use xlink:href="#DejaVuSans-54"/>
       <use x="60.865234" xlink:href="#DejaVuSans-72"/>
       <use x="101.978516" xlink:href="#DejaVuSans-61"/>
       <use x="163.257812" xlink:href="#DejaVuSans-76"/>
       <use x="222.4375" xlink:href="#DejaVuSans-65"/>
       <use x="283.960938" xlink:href="#DejaVuSans-6c"/>
       <use x="311.744141" xlink:href="#DejaVuSans-20"/>
       <use x="343.53125" xlink:href="#DejaVuSans-62"/>
       <use x="407.007812" xlink:href="#DejaVuSans-65"/>
       <use x="468.53125" xlink:href="#DejaVuSans-68"/>
       <use x="531.910156" xlink:href="#DejaVuSans-61"/>
       <use x="593.189453" xlink:href="#DejaVuSans-76"/>
       <use x="652.369141" xlink:href="#DejaVuSans-69"/>
       <use x="680.152344" xlink:href="#DejaVuSans-6f"/>
       <use x="741.333984" xlink:href="#DejaVuSans-75"/>
       <use x="804.712891" xlink:href="#DejaVuSans-72"/>
      </g>
     </g>
    </g>
    <g id="xtick_17">
     <g id="line2d_17">
      <g>
       <use style="stroke:#000000;stroke-width:0.8;" x="578.8875" xlink:href="#m927b1319a2" y="554.3"/>
      </g>
     </g>
     <g id="text_17">
      <!-- Transport services &amp; provisioning -->
      <g transform="translate(581.646875 729.214062)rotate(-90)scale(0.1 -0.1)">
       <use xlink:href="#DejaVuSans-54"/>
       <use x="60.865234" xlink:href="#DejaVuSans-72"/>
       <use x="101.978516" xlink:href="#DejaVuSans-61"/>
       <use x="163.257812" xlink:href="#DejaVuSans-6e"/>
       <use x="226.636719" xlink:href="#DejaVuSans-73"/>
       <use x="278.736328" xlink:href="#DejaVuSans-70"/>
       <use x="342.212891" xlink:href="#DejaVuSans-6f"/>
       <use x="403.394531" xlink:href="#DejaVuSans-72"/>
       <use x="444.507812" xlink:href="#DejaVuSans-74"/>
       <use x="483.716797" xlink:href="#DejaVuSans-20"/>
       <use x="515.503906" xlink:href="#DejaVuSans-73"/>
       <use x="567.603516" xlink:href="#DejaVuSans-65"/>
       <use x="629.126953" xlink:href="#DejaVuSans-72"/>
       <use x="670.240234" xlink:href="#DejaVuSans-76"/>
       <use x="729.419922" xlink:href="#DejaVuSans-69"/>
       <use x="757.203125" xlink:href="#DejaVuSans-63"/>
       <use x="812.183594" xlink:href="#DejaVuSans-65"/>
       <use x="873.707031" xlink:href="#DejaVuSans-73"/>
       <use x="925.806641" xlink:href="#DejaVuSans-20"/>
       <use x="957.59375" xlink:href="#DejaVuSans-26"/>
       <use x="1035.572266" xlink:href="#DejaVuSans-20"/>
       <use x="1067.359375" xlink:href="#DejaVuSans-70"/>
       <use x="1130.835938" xlink:href="#DejaVuSans-72"/>
       <use x="1171.917969" xlink:href="#DejaVuSans-6f"/>
       <use x="1233.099609" xlink:href="#DejaVuSans-76"/>
       <use x="1292.279297" xlink:href="#DejaVuSans-69"/>
       <use x="1320.0625" xlink:href="#DejaVuSans-73"/>
       <use x="1372.162109" xlink:href="#DejaVuSans-69"/>
       <use x="1399.945312" xlink:href="#DejaVuSans-6f"/>
       <use x="1461.126953" xlink:href="#DejaVuSans-6e"/>
       <use x="1524.505859" xlink:href="#DejaVuSans-69"/>
       <use x="1552.289062" xlink:href="#DejaVuSans-6e"/>
       <use x="1615.667969" xlink:href="#DejaVuSans-67"/>
      </g>
     </g>
    </g>
    <g id="xtick_18">
     <g id="line2d_18">
      <g>
       <use style="stroke:#000000;stroke-width:0.8;" x="611.954167" xlink:href="#m927b1319a2" y="554.3"/>
      </g>
     </g>
     <g id="text_18">
      <!-- Rail transit -->
      <defs>
       <path d="M 44.390625 34.1875 
Q 47.5625 33.109375 50.5625 29.59375 
Q 53.5625 26.078125 56.59375 19.921875 
L 66.609375 0 
L 56 0 
L 46.6875 18.703125 
Q 43.0625 26.03125 39.671875 28.421875 
Q 36.28125 30.8125 30.421875 30.8125 
L 19.671875 30.8125 
L 19.671875 0 
L 9.8125 0 
L 9.8125 72.90625 
L 32.078125 72.90625 
Q 44.578125 72.90625 50.734375 67.671875 
Q 56.890625 62.453125 56.890625 51.90625 
Q 56.890625 45.015625 53.6875 40.46875 
Q 50.484375 35.9375 44.390625 34.1875 
M 19.671875 64.796875 
L 19.671875 38.921875 
L 32.078125 38.921875 
Q 39.203125 38.921875 42.84375 42.21875 
Q 46.484375 45.515625 46.484375 51.90625 
Q 46.484375 58.296875 42.84375 61.546875 
Q 39.203125 64.796875 32.078125 64.796875 
z
" id="DejaVuSans-52"/>
      </defs>
      <g transform="translate(614.713542 615.5125)rotate(-90)scale(0.1 -0.1)">
       <use xlink:href="#DejaVuSans-52"/>
       <use x="69.451172" xlink:href="#DejaVuSans-61"/>
       <use x="130.730469" xlink:href="#DejaVuSans-69"/>
       <use x="158.513672" xlink:href="#DejaVuSans-6c"/>
       <use x="186.296875" xlink:href="#DejaVuSans-20"/>
       <use x="218.083984" xlink:href="#DejaVuSans-74"/>
       <use x="257.292969" xlink:href="#DejaVuSans-72"/>
       <use x="298.40625" xlink:href="#DejaVuSans-61"/>
       <use x="359.685547" xlink:href="#DejaVuSans-6e"/>
       <use x="423.064453" xlink:href="#DejaVuSans-73"/>
       <use x="475.164062" xlink:href="#DejaVuSans-69"/>
       <use x="502.947266" xlink:href="#DejaVuSans-74"/>
      </g>
     </g>
    </g>
    <g id="xtick_19">
     <g id="line2d_19">
      <g>
       <use style="stroke:#000000;stroke-width:0.8;" x="645.020833" xlink:href="#m927b1319a2" y="554.3"/>
      </g>
     </g>
     <g id="text_19">
      <!-- Thermal comfort -->
      <g transform="translate(647.780208 644.860937)rotate(-90)scale(0.1 -0.1)">
       <use xlink:href="#DejaVuSans-54"/>
       <use x="61.083984" xlink:href="#DejaVuSans-68"/>
       <use x="124.462891" xlink:href="#DejaVuSans-65"/>
       <use x="185.986328" xlink:href="#DejaVuSans-72"/>
       <use x="227.083984" xlink:href="#DejaVuSans-6d"/>
       <use x="324.496094" xlink:href="#DejaVuSans-61"/>
       <use x="385.775391" xlink:href="#DejaVuSans-6c"/>
       <use x="413.558594" xlink:href="#DejaVuSans-20"/>
       <use x="445.345703" xlink:href="#DejaVuSans-63"/>
       <use x="500.326172" xlink:href="#DejaVuSans-6f"/>
       <use x="561.507812" xlink:href="#DejaVuSans-6d"/>
       <use x="658.919922" xlink:href="#DejaVuSans-66"/>
       <use x="694.125" xlink:href="#DejaVuSans-6f"/>
       <use x="755.306641" xlink:href="#DejaVuSans-72"/>
       <use x="796.419922" xlink:href="#DejaVuSans-74"/>
      </g>
     </g>
    </g>
    <g id="xtick_20">
     <g id="line2d_20">
      <g>
       <use style="stroke:#000000;stroke-width:0.8;" x="678.0875" xlink:href="#m927b1319a2" y="554.3"/>
      </g>
     </g>
     <g id="text_20">
      <!-- Building water use -->
      <g transform="translate(680.846875 654.414062)rotate(-90)scale(0.1 -0.1)">
       <use xlink:href="#DejaVuSans-42"/>
       <use x="68.603516" xlink:href="#DejaVuSans-75"/>
       <use x="131.982422" xlink:href="#DejaVuSans-69"/>
       <use x="159.765625" xlink:href="#DejaVuSans-6c"/>
       <use x="187.548828" xlink:href="#DejaVuSans-64"/>
       <use x="251.025391" xlink:href="#DejaVuSans-69"/>
       <use x="278.808594" xlink:href="#DejaVuSans-6e"/>
       <use x="342.1875" xlink:href="#DejaVuSans-67"/>
       <use x="405.664062" xlink:href="#DejaVuSans-20"/>
       <use x="437.451172" xlink:href="#DejaVuSans-77"/>
       <use x="519.238281" xlink:href="#DejaVuSans-61"/>
       <use x="580.517578" xlink:href="#DejaVuSans-74"/>
       <use x="619.726562" xlink:href="#DejaVuSans-65"/>
       <use x="681.25" xlink:href="#DejaVuSans-72"/>
       <use x="722.363281" xlink:href="#DejaVuSans-20"/>
       <use x="754.150391" xlink:href="#DejaVuSans-75"/>
       <use x="817.529297" xlink:href="#DejaVuSans-73"/>
       <use x="869.628906" xlink:href="#DejaVuSans-65"/>
      </g>
     </g>
    </g>
    <g id="xtick_21">
     <g id="line2d_21">
      <g>
       <use style="stroke:#000000;stroke-width:0.8;" x="711.154167" xlink:href="#m927b1319a2" y="554.3"/>
      </g>
     </g>
     <g id="text_21">
      <!-- Waste water -->
      <g transform="translate(713.913542 624.257812)rotate(-90)scale(0.1 -0.1)">
       <use xlink:href="#DejaVuSans-57"/>
       <use x="98.783203" xlink:href="#DejaVuSans-61"/>
       <use x="160.0625" xlink:href="#DejaVuSans-73"/>
       <use x="212.162109" xlink:href="#DejaVuSans-74"/>
       <use x="251.371094" xlink:href="#DejaVuSans-65"/>
       <use x="312.894531" xlink:href="#DejaVuSans-20"/>
       <use x="344.681641" xlink:href="#DejaVuSans-77"/>
       <use x="426.46875" xlink:href="#DejaVuSans-61"/>
       <use x="487.748047" xlink:href="#DejaVuSans-74"/>
       <use x="526.957031" xlink:href="#DejaVuSans-65"/>
       <use x="588.480469" xlink:href="#DejaVuSans-72"/>
      </g>
     </g>
    </g>
    <g id="xtick_22">
     <g id="line2d_22">
      <g>
       <use style="stroke:#000000;stroke-width:0.8;" x="744.220833" xlink:href="#m927b1319a2" y="554.3"/>
      </g>
     </g>
     <g id="text_22">
      <!-- Household recycling -->
      <g transform="translate(746.980208 662.81875)rotate(-90)scale(0.1 -0.1)">
       <use xlink:href="#DejaVuSans-48"/>
       <use x="75.195312" xlink:href="#DejaVuSans-6f"/>
       <use x="136.376953" xlink:href="#DejaVuSans-75"/>
       <use x="199.755859" xlink:href="#DejaVuSans-73"/>
       <use x="251.855469" xlink:href="#DejaVuSans-65"/>
       <use x="313.378906" xlink:href="#DejaVuSans-68"/>
       <use x="376.757812" xlink:href="#DejaVuSans-6f"/>
       <use x="437.939453" xlink:href="#DejaVuSans-6c"/>
       <use x="465.722656" xlink:href="#DejaVuSans-64"/>
       <use x="529.199219" xlink:href="#DejaVuSans-20"/>
       <use x="560.986328" xlink:href="#DejaVuSans-72"/>
       <use x="602.068359" xlink:href="#DejaVuSans-65"/>
       <use x="663.591797" xlink:href="#DejaVuSans-63"/>
       <use x="718.572266" xlink:href="#DejaVuSans-79"/>
       <use x="777.751953" xlink:href="#DejaVuSans-63"/>
       <use x="832.732422" xlink:href="#DejaVuSans-6c"/>
       <use x="860.515625" xlink:href="#DejaVuSans-69"/>
       <use x="888.298828" xlink:href="#DejaVuSans-6e"/>
       <use x="951.677734" xlink:href="#DejaVuSans-67"/>
      </g>
     </g>
    </g>
    <g id="xtick_23">
     <g id="line2d_23">
      <g>
       <use style="stroke:#000000;stroke-width:0.8;" x="777.2875" xlink:href="#m927b1319a2" y="554.3"/>
      </g>
     </g>
     <g id="text_23">
      <!-- Charging stations -->
      <g transform="translate(780.046875 649.470312)rotate(-90)scale(0.1 -0.1)">
       <use xlink:href="#DejaVuSans-43"/>
       <use x="69.824219" xlink:href="#DejaVuSans-68"/>
       <use x="133.203125" xlink:href="#DejaVuSans-61"/>
       <use x="194.482422" xlink:href="#DejaVuSans-72"/>
       <use x="235.580078" xlink:href="#DejaVuSans-67"/>
       <use x="299.056641" xlink:href="#DejaVuSans-69"/>
       <use x="326.839844" xlink:href="#DejaVuSans-6e"/>
       <use x="390.21875" xlink:href="#DejaVuSans-67"/>
       <use x="453.695312" xlink:href="#DejaVuSans-20"/>
       <use x="485.482422" xlink:href="#DejaVuSans-73"/>
       <use x="537.582031" xlink:href="#DejaVuSans-74"/>
       <use x="576.791016" xlink:href="#DejaVuSans-61"/>
       <use x="638.070312" xlink:href="#DejaVuSans-74"/>
       <use x="677.279297" xlink:href="#DejaVuSans-69"/>
       <use x="705.0625" xlink:href="#DejaVuSans-6f"/>
       <use x="766.244141" xlink:href="#DejaVuSans-6e"/>
       <use x="829.623047" xlink:href="#DejaVuSans-73"/>
      </g>
     </g>
    </g>
    <g id="xtick_24">
     <g id="line2d_24">
      <g>
       <use style="stroke:#000000;stroke-width:0.8;" x="810.354167" xlink:href="#m927b1319a2" y="554.3"/>
      </g>
     </g>
     <g id="text_24">
      <!-- Cycling -->
      <g transform="translate(813.113542 597.942188)rotate(-90)scale(0.1 -0.1)">
       <use xlink:href="#DejaVuSans-43"/>
       <use x="69.824219" xlink:href="#DejaVuSans-79"/>
       <use x="129.003906" xlink:href="#DejaVuSans-63"/>
       <use x="183.984375" xlink:href="#DejaVuSans-6c"/>
       <use x="211.767578" xlink:href="#DejaVuSans-69"/>
       <use x="239.550781" xlink:href="#DejaVuSans-6e"/>
       <use x="302.929688" xlink:href="#DejaVuSans-67"/>
      </g>
     </g>
    </g>
    <g id="xtick_25">
     <g id="line2d_25">
      <g>
       <use style="stroke:#000000;stroke-width:0.8;" x="843.420833" xlink:href="#m927b1319a2" y="554.3"/>
      </g>
     </g>
     <g id="text_25">
      <!-- Bus rapid transit -->
      <g transform="translate(846.180208 644.182812)rotate(-90)scale(0.1 -0.1)">
       <use xlink:href="#DejaVuSans-42"/>
       <use x="68.603516" xlink:href="#DejaVuSans-75"/>
       <use x="131.982422" xlink:href="#DejaVuSans-73"/>
       <use x="184.082031" xlink:href="#DejaVuSans-20"/>
       <use x="215.869141" xlink:href="#DejaVuSans-72"/>
       <use x="256.982422" xlink:href="#DejaVuSans-61"/>
       <use x="318.261719" xlink:href="#DejaVuSans-70"/>
       <use x="381.738281" xlink:href="#DejaVuSans-69"/>
       <use x="409.521484" xlink:href="#DejaVuSans-64"/>
       <use x="472.998047" xlink:href="#DejaVuSans-20"/>
       <use x="504.785156" xlink:href="#DejaVuSans-74"/>
       <use x="543.994141" xlink:href="#DejaVuSans-72"/>
       <use x="585.107422" xlink:href="#DejaVuSans-61"/>
       <use x="646.386719" xlink:href="#DejaVuSans-6e"/>
       <use x="709.765625" xlink:href="#DejaVuSans-73"/>
       <use x="761.865234" xlink:href="#DejaVuSans-69"/>
       <use x="789.648438" xlink:href="#DejaVuSans-74"/>
      </g>
     </g>
    </g>
    <g id="xtick_26">
     <g id="line2d_26">
      <g>
       <use style="stroke:#000000;stroke-width:0.8;" x="876.4875" xlink:href="#m927b1319a2" y="554.3"/>
      </g>
     </g>
     <g id="text_26">
      <!-- Road tolls -->
      <g transform="translate(879.246875 610.820312)rotate(-90)scale(0.1 -0.1)">
       <use xlink:href="#DejaVuSans-52"/>
       <use x="69.419922" xlink:href="#DejaVuSans-6f"/>
       <use x="130.601562" xlink:href="#DejaVuSans-61"/>
       <use x="191.880859" xlink:href="#DejaVuSans-64"/>
       <use x="255.357422" xlink:href="#DejaVuSans-20"/>
       <use x="287.144531" xlink:href="#DejaVuSans-74"/>
       <use x="326.353516" xlink:href="#DejaVuSans-6f"/>
       <use x="387.535156" xlink:href="#DejaVuSans-6c"/>
       <use x="415.318359" xlink:href="#DejaVuSans-6c"/>
       <use x="443.101562" xlink:href="#DejaVuSans-73"/>
      </g>
     </g>
    </g>
    <g id="xtick_27">
     <g id="line2d_27">
      <g>
       <use style="stroke:#000000;stroke-width:0.8;" x="909.554167" xlink:href="#m927b1319a2" y="554.3"/>
      </g>
     </g>
     <g id="text_27">
      <!-- Car parking -->
      <g transform="translate(912.313542 619.542187)rotate(-90)scale(0.1 -0.1)">
       <use xlink:href="#DejaVuSans-43"/>
       <use x="69.824219" xlink:href="#DejaVuSans-61"/>
       <use x="131.103516" xlink:href="#DejaVuSans-72"/>
       <use x="172.216797" xlink:href="#DejaVuSans-20"/>
       <use x="204.003906" xlink:href="#DejaVuSans-70"/>
       <use x="267.480469" xlink:href="#DejaVuSans-61"/>
       <use x="328.759766" xlink:href="#DejaVuSans-72"/>
       <use x="369.873047" xlink:href="#DejaVuSans-6b"/>
       <use x="427.783203" xlink:href="#DejaVuSans-69"/>
       <use x="455.566406" xlink:href="#DejaVuSans-6e"/>
       <use x="518.945312" xlink:href="#DejaVuSans-67"/>
      </g>
     </g>
    </g>
    <g id="text_28">
     <!-- Topic Title -->
     <g transform="translate(453.819531 740.8125)scale(0.1 -0.1)">
      <use xlink:href="#DejaVuSans-54"/>
      <use x="60.818359" xlink:href="#DejaVuSans-6f"/>
      <use x="122" xlink:href="#DejaVuSans-70"/>
      <use x="185.476562" xlink:href="#DejaVuSans-69"/>
      <use x="213.259766" xlink:href="#DejaVuSans-63"/>
      <use x="268.240234" xlink:href="#DejaVuSans-20"/>
      <use x="300.027344" xlink:href="#DejaVuSans-54"/>
      <use x="361.064453" xlink:href="#DejaVuSans-69"/>
      <use x="388.847656" xlink:href="#DejaVuSans-74"/>
      <use x="428.056641" xlink:href="#DejaVuSans-6c"/>
      <use x="455.839844" xlink:href="#DejaVuSans-65"/>
     </g>
    </g>
   </g>
   <g id="matplotlib.axis_2">
    <g id="ytick_1">
     <g id="line2d_28">
      <defs>
       <path d="M 0 0 
L -3.5 0 
" id="m26554c4e7d" style="stroke:#000000;stroke-width:0.8;"/>
      </defs>
      <g>
       <use style="stroke:#000000;stroke-width:0.8;" x="33.2875" xlink:href="#m26554c4e7d" y="554.3"/>
      </g>
     </g>
     <g id="text_29">
      <!-- 0 -->
      <defs>
       <path d="M 31.78125 66.40625 
Q 24.171875 66.40625 20.328125 58.90625 
Q 16.5 51.421875 16.5 36.375 
Q 16.5 21.390625 20.328125 13.890625 
Q 24.171875 6.390625 31.78125 6.390625 
Q 39.453125 6.390625 43.28125 13.890625 
Q 47.125 21.390625 47.125 36.375 
Q 47.125 51.421875 43.28125 58.90625 
Q 39.453125 66.40625 31.78125 66.40625 
M 31.78125 74.21875 
Q 44.046875 74.21875 50.515625 64.515625 
Q 56.984375 54.828125 56.984375 36.375 
Q 56.984375 17.96875 50.515625 8.265625 
Q 44.046875 -1.421875 31.78125 -1.421875 
Q 19.53125 -1.421875 13.0625 8.265625 
Q 6.59375 17.96875 6.59375 36.375 
Q 6.59375 54.828125 13.0625 64.515625 
Q 19.53125 74.21875 31.78125 74.21875 
" id="DejaVuSans-30"/>
      </defs>
      <g transform="translate(19.925 558.099219)scale(0.1 -0.1)">
       <use xlink:href="#DejaVuSans-30"/>
      </g>
     </g>
    </g>
    <g id="ytick_2">
     <g id="line2d_29">
      <g>
       <use style="stroke:#000000;stroke-width:0.8;" x="33.2875" xlink:href="#m26554c4e7d" y="458.426984"/>
      </g>
     </g>
     <g id="text_30">
      <!-- 20 -->
      <defs>
       <path d="M 19.1875 8.296875 
L 53.609375 8.296875 
L 53.609375 0 
L 7.328125 0 
L 7.328125 8.296875 
Q 12.9375 14.109375 22.625 23.890625 
Q 32.328125 33.6875 34.8125 36.53125 
Q 39.546875 41.84375 41.421875 45.53125 
Q 43.3125 49.21875 43.3125 52.78125 
Q 43.3125 58.59375 39.234375 62.25 
Q 35.15625 65.921875 28.609375 65.921875 
Q 23.96875 65.921875 18.8125 64.3125 
Q 13.671875 62.703125 7.8125 59.421875 
L 7.8125 69.390625 
Q 13.765625 71.78125 18.9375 73 
Q 24.125 74.21875 28.421875 74.21875 
Q 39.75 74.21875 46.484375 68.546875 
Q 53.21875 62.890625 53.21875 53.421875 
Q 53.21875 48.921875 51.53125 44.890625 
Q 49.859375 40.875 45.40625 35.40625 
Q 44.1875 33.984375 37.640625 27.21875 
Q 31.109375 20.453125 19.1875 8.296875 
" id="DejaVuSans-32"/>
      </defs>
      <g transform="translate(13.5625 462.226203)scale(0.1 -0.1)">
       <use xlink:href="#DejaVuSans-32"/>
       <use x="63.623047" xlink:href="#DejaVuSans-30"/>
      </g>
     </g>
    </g>
    <g id="ytick_3">
     <g id="line2d_30">
      <g>
       <use style="stroke:#000000;stroke-width:0.8;" x="33.2875" xlink:href="#m26554c4e7d" y="362.553968"/>
      </g>
     </g>
     <g id="text_31">
      <!-- 40 -->
      <defs>
       <path d="M 37.796875 64.3125 
L 12.890625 25.390625 
L 37.796875 25.390625 
z
M 35.203125 72.90625 
L 47.609375 72.90625 
L 47.609375 25.390625 
L 58.015625 25.390625 
L 58.015625 17.1875 
L 47.609375 17.1875 
L 47.609375 0 
L 37.796875 0 
L 37.796875 17.1875 
L 4.890625 17.1875 
L 4.890625 26.703125 
z
" id="DejaVuSans-34"/>
      </defs>
      <g transform="translate(13.5625 366.353187)scale(0.1 -0.1)">
       <use xlink:href="#DejaVuSans-34"/>
       <use x="63.623047" xlink:href="#DejaVuSans-30"/>
      </g>
     </g>
    </g>
    <g id="ytick_4">
     <g id="line2d_31">
      <g>
       <use style="stroke:#000000;stroke-width:0.8;" x="33.2875" xlink:href="#m26554c4e7d" y="266.680952"/>
      </g>
     </g>
     <g id="text_32">
      <!-- 60 -->
      <defs>
       <path d="M 33.015625 40.375 
Q 26.375 40.375 22.484375 35.828125 
Q 18.609375 31.296875 18.609375 23.390625 
Q 18.609375 15.53125 22.484375 10.953125 
Q 26.375 6.390625 33.015625 6.390625 
Q 39.65625 6.390625 43.53125 10.953125 
Q 47.40625 15.53125 47.40625 23.390625 
Q 47.40625 31.296875 43.53125 35.828125 
Q 39.65625 40.375 33.015625 40.375 
M 52.59375 71.296875 
L 52.59375 62.3125 
Q 48.875 64.0625 45.09375 64.984375 
Q 41.3125 65.921875 37.59375 65.921875 
Q 27.828125 65.921875 22.671875 59.328125 
Q 17.53125 52.734375 16.796875 39.40625 
Q 19.671875 43.65625 24.015625 45.921875 
Q 28.375 48.1875 33.59375 48.1875 
Q 44.578125 48.1875 50.953125 41.515625 
Q 57.328125 34.859375 57.328125 23.390625 
Q 57.328125 12.15625 50.6875 5.359375 
Q 44.046875 -1.421875 33.015625 -1.421875 
Q 20.359375 -1.421875 13.671875 8.265625 
Q 6.984375 17.96875 6.984375 36.375 
Q 6.984375 53.65625 15.1875 63.9375 
Q 23.390625 74.21875 37.203125 74.21875 
Q 40.921875 74.21875 44.703125 73.484375 
Q 48.484375 72.75 52.59375 71.296875 
" id="DejaVuSans-36"/>
      </defs>
      <g transform="translate(13.5625 270.480171)scale(0.1 -0.1)">
       <use xlink:href="#DejaVuSans-36"/>
       <use x="63.623047" xlink:href="#DejaVuSans-30"/>
      </g>
     </g>
    </g>
    <g id="ytick_5">
     <g id="line2d_32">
      <g>
       <use style="stroke:#000000;stroke-width:0.8;" x="33.2875" xlink:href="#m26554c4e7d" y="170.807937"/>
      </g>
     </g>
     <g id="text_33">
      <!-- 80 -->
      <defs>
       <path d="M 31.78125 34.625 
Q 24.75 34.625 20.71875 30.859375 
Q 16.703125 27.09375 16.703125 20.515625 
Q 16.703125 13.921875 20.71875 10.15625 
Q 24.75 6.390625 31.78125 6.390625 
Q 38.8125 6.390625 42.859375 10.171875 
Q 46.921875 13.96875 46.921875 20.515625 
Q 46.921875 27.09375 42.890625 30.859375 
Q 38.875 34.625 31.78125 34.625 
M 21.921875 38.8125 
Q 15.578125 40.375 12.03125 44.71875 
Q 8.5 49.078125 8.5 55.328125 
Q 8.5 64.0625 14.71875 69.140625 
Q 20.953125 74.21875 31.78125 74.21875 
Q 42.671875 74.21875 48.875 69.140625 
Q 55.078125 64.0625 55.078125 55.328125 
Q 55.078125 49.078125 51.53125 44.71875 
Q 48 40.375 41.703125 38.8125 
Q 48.828125 37.15625 52.796875 32.3125 
Q 56.78125 27.484375 56.78125 20.515625 
Q 56.78125 9.90625 50.3125 4.234375 
Q 43.84375 -1.421875 31.78125 -1.421875 
Q 19.734375 -1.421875 13.25 4.234375 
Q 6.78125 9.90625 6.78125 20.515625 
Q 6.78125 27.484375 10.78125 32.3125 
Q 14.796875 37.15625 21.921875 38.8125 
M 18.3125 54.390625 
Q 18.3125 48.734375 21.84375 45.5625 
Q 25.390625 42.390625 31.78125 42.390625 
Q 38.140625 42.390625 41.71875 45.5625 
Q 45.3125 48.734375 45.3125 54.390625 
Q 45.3125 60.0625 41.71875 63.234375 
Q 38.140625 66.40625 31.78125 66.40625 
Q 25.390625 66.40625 21.84375 63.234375 
Q 18.3125 60.0625 18.3125 54.390625 
" id="DejaVuSans-38"/>
      </defs>
      <g transform="translate(13.5625 174.607155)scale(0.1 -0.1)">
       <use xlink:href="#DejaVuSans-38"/>
       <use x="63.623047" xlink:href="#DejaVuSans-30"/>
      </g>
     </g>
    </g>
    <g id="ytick_6">
     <g id="line2d_33">
      <g>
       <use style="stroke:#000000;stroke-width:0.8;" x="33.2875" xlink:href="#m26554c4e7d" y="74.934921"/>
      </g>
     </g>
     <g id="text_34">
      <!-- 100 -->
      <defs>
       <path d="M 12.40625 8.296875 
L 28.515625 8.296875 
L 28.515625 63.921875 
L 10.984375 60.40625 
L 10.984375 69.390625 
L 28.421875 72.90625 
L 38.28125 72.90625 
L 38.28125 8.296875 
L 54.390625 8.296875 
L 54.390625 0 
L 12.40625 0 
z
" id="DejaVuSans-31"/>
      </defs>
      <g transform="translate(7.2 78.734139)scale(0.1 -0.1)">
       <use xlink:href="#DejaVuSans-31"/>
       <use x="63.623047" xlink:href="#DejaVuSans-30"/>
       <use x="127.246094" xlink:href="#DejaVuSans-30"/>
      </g>
     </g>
    </g>
   </g>
   <g id="patch_30">
    <path d="M 33.2875 554.3 
L 33.2875 10.7 
" style="fill:none;stroke:#000000;stroke-linecap:square;stroke-linejoin:miter;stroke-width:0.8;"/>
   </g>
   <g id="patch_31">
    <path d="M 926.0875 554.3 
L 926.0875 10.7 
" style="fill:none;stroke:#000000;stroke-linecap:square;stroke-linejoin:miter;stroke-width:0.8;"/>
   </g>
   <g id="patch_32">
    <path d="M 33.2875 554.3 
L 926.0875 554.3 
" style="fill:none;stroke:#000000;stroke-linecap:square;stroke-linejoin:miter;stroke-width:0.8;"/>
   </g>
   <g id="patch_33">
    <path d="M 33.2875 10.7 
L 926.0875 10.7 
" style="fill:none;stroke:#000000;stroke-linecap:square;stroke-linejoin:miter;stroke-width:0.8;"/>
   </g>
   <g id="legend_1">
    <g id="patch_34">
     <path d="M 866.964062 33.378125 
L 919.0875 33.378125 
Q 921.0875 33.378125 921.0875 31.378125 
L 921.0875 17.7 
Q 921.0875 15.7 919.0875 15.7 
L 866.964062 15.7 
Q 864.964062 15.7 864.964062 17.7 
L 864.964062 31.378125 
Q 864.964062 33.378125 866.964062 33.378125 
z
" style="fill:#ffffff;opacity:0.8;stroke:#cccccc;stroke-linejoin:miter;"/>
    </g>
    <g id="patch_35">
     <path d="M 868.964062 27.298438 
L 888.964062 27.298438 
L 888.964062 20.298438 
L 868.964062 20.298438 
z
" style="fill:#1f77b4;"/>
    </g>
    <g id="text_35">
     <!-- ipcc -->
     <g transform="translate(896.964062 27.298438)scale(0.1 -0.1)">
      <use xlink:href="#DejaVuSans-69"/>
      <use x="27.783203" xlink:href="#DejaVuSans-70"/>
      <use x="91.259766" xlink:href="#DejaVuSans-63"/>
      <use x="146.240234" xlink:href="#DejaVuSans-63"/>
     </g>
    </g>
   </g>
  </g>
 </g>
 <defs>
  <clipPath id="pe0c8ac1a48">
   <rect height="543.6" width="892.8" x="33.2875" y="10.7"/>
  </clipPath>
 </defs>
</svg>
